<?xml version="1.0" standalone="no"?>
<!DOCTYPE svg PUBLIC "-//W3C//DTD SVG 1.1//EN" "http://www.w3.org/Graphics/SVG/1.1/DTD/svg11.dtd" >
<svg xmlns="http://www.w3.org/2000/svg" xmlns:xlink="http://www.w3.org/1999/xlink" version="1.1">
<metadata>
Created by FontForge 20170924 at Sat Aug  8 06:56:51 2015
 By www-data
(c) 2015 Apple Inc. All rights reserved.
</metadata>
<defs>
<font id="SFUIText-Bold" horiz-adv-x="0" >
  <font-face 
    font-family="SF UI Text"
    font-weight="700"
    font-stretch="normal"
    units-per-em="2048"
    panose-1="0 0 8 0 0 0 0 0 0 0"
    ascent="1638"
    descent="-410"
    x-height="1103"
    cap-height="1443"
    bbox="-611 -570 2789 2229"
    underline-thickness="197"
    underline-position="-375"
    stemh="251"
    stemv="295"
    unicode-range="U+0020-FB02"
  />
<missing-glyph horiz-adv-x="2048" 
d="M100 -494v198h1848v-198h-1848zM100 -45v198h1848v-198h-1848zM100 404v199h1848v-199h-1848zM100 853v199h1848v-199h-1848zM100 1303v198h1848v-198h-1848zM100 1752v198h1848v-198h-1848z" />
    <glyph glyph-name=".notdef" horiz-adv-x="2048" 
d="M100 -494v198h1848v-198h-1848zM100 -45v198h1848v-198h-1848zM100 404v199h1848v-199h-1848zM100 853v199h1848v-199h-1848zM100 1303v198h1848v-198h-1848zM100 1752v198h1848v-198h-1848z" />
    <glyph glyph-name="space" unicode=" " horiz-adv-x="528" 
 />
    <glyph glyph-name="exclam" unicode="!" horiz-adv-x="730" 
d="M205 1443h320l-27 -968h-267zM183 140c0 106 70 171 182 171c113 0 182 -65 182 -171c0 -105 -69 -170 -182 -170c-112 0 -182 65 -182 170z" />
    <glyph glyph-name="quotedbl" unicode="&#x22;" horiz-adv-x="1016" 
d="M402 831h-250v612h250v-612zM864 831h-250v612h250v-612z" />
    <glyph glyph-name="numbersign" unicode="#" horiz-adv-x="1360" 
d="M1253 857h-211l-53 -252h209l-41 -223h-210l-77 -382h-222l77 382h-234l-77 -382h-221l77 382h-206l42 223h207l52 252h-205l42 221h206l74 366h221l-74 -366h234l74 366h222l-74 -366h209zM575 876l-59 -291h261l61 291h-263z" />
    <glyph glyph-name="dollar" unicode="$" horiz-adv-x="1415" 
d="M784 -135h-140v125c-313 18 -502 176 -503 420h286c7 -99 92 -173 217 -186v372l-105 25c-240 56 -369 194 -369 403c0 246 176 404 474 428v136h140v-136c278 -26 458 -189 462 -420h-279c-3 91 -78 166 -183 181v-356l107 -22c257 -55 383 -188 383 -404
c0 -255 -177 -413 -490 -439v-127zM990 397c0 92 -66 148 -206 174v-348c130 8 206 73 206 174zM460 1052c0 -84 63 -142 184 -166v328c-108 -6 -184 -73 -184 -162z" />
    <glyph glyph-name="percent" unicode="%" horiz-adv-x="1701" 
d="M1298 159c70 0 115 67 115 175c0 110 -43 174 -115 174c-71 0 -115 -66 -115 -174s45 -175 115 -175zM1298 -33c-201 0 -337 147 -337 366s136 366 337 366c202 0 338 -146 338 -366c0 -219 -136 -366 -338 -366zM403 744c-201 0 -338 147 -338 367
c0 218 136 365 338 365s338 -146 338 -365c0 -220 -136 -367 -338 -367zM506 0h-282l545 756l434 687h281l-554 -762zM403 936c70 0 115 67 115 175c0 110 -43 175 -115 175c-71 0 -115 -67 -115 -175s45 -175 115 -175z" />
    <glyph glyph-name="ampersand" unicode="&#x26;" horiz-adv-x="1525" 
d="M1172 0l-111 117c-107 -91 -272 -145 -449 -145c-307 0 -505 159 -505 405c0 165 83 283 269 385c6 2 56 31 64 35c-132 135 -179 225 -179 331c0 195 174 337 411 337c236 0 403 -136 403 -331c0 -149 -92 -269 -294 -378l277 -287c34 60 51 143 51 263v71h245v-90
c0 -173 -45 -326 -123 -431l268 -282h-327zM535 618c-105 -57 -155 -128 -155 -216c0 -126 106 -211 262 -211c105 0 209 38 266 98l-331 349c-11 -4 -31 -14 -42 -20zM646 897c132 66 186 130 186 215c0 91 -65 153 -159 153s-161 -63 -161 -153c0 -66 35 -121 134 -215z
" />
    <glyph glyph-name="quotesingle" unicode="'" horiz-adv-x="553" 
d="M402 831h-250v612h250v-612z" />
    <glyph glyph-name="parenleft" unicode="(" horiz-adv-x="803" 
d="M705 -277h-275c-172 216 -271 535 -271 877c0 343 83 591 280 843h269c-145 -168 -248 -518 -248 -842c0 -313 75 -581 245 -878z" />
    <glyph glyph-name="parenright" unicode=")" horiz-adv-x="803" 
d="M97 -277c170 297 245 565 245 878c0 325 -102 674 -247 842h269c197 -252 280 -500 280 -843c0 -341 -99 -660 -271 -877h-276z" />
    <glyph glyph-name="asterisk" unicode="*" horiz-adv-x="1027" 
d="M631 1065l255 -100l-94 -167l-216 162l32 -266h-188l32 266l-216 -162l-94 167l255 100l-255 106l94 169l217 -174l-33 277h188l-33 -277l217 174l94 -169z" />
    <glyph glyph-name="plus" unicode="+" horiz-adv-x="1415" 
d="M835 455v-409h-255v409h-412v258h412v408h255v-408h413v-258h-413z" />
    <glyph glyph-name="comma" unicode="," horiz-adv-x="712" 
d="M384 -388h-233l79 635h288z" />
    <glyph glyph-name="hyphen" unicode="-" horiz-adv-x="992" 
d="M825 446h-657v273h657v-273z" />
    <glyph glyph-name="hyphen" unicode="&#x2011;" horiz-adv-x="992" 
d="M825 446h-657v273h657v-273z" />
    <glyph glyph-name="period" unicode="." horiz-adv-x="712" 
d="M356 -27c-107 0 -177 73 -177 174s70 173 177 173c108 0 177 -72 177 -173s-69 -174 -177 -174z" />
    <glyph glyph-name="slash" unicode="/" horiz-adv-x="772" 
d="M310 -288h-268l414 1731h274z" />
    <glyph glyph-name="zero" unicode="0" horiz-adv-x="1402" 
d="M701 -37c-357 0 -573 282 -573 761c0 478 218 756 573 756c354 0 573 -278 573 -757c0 -477 -216 -760 -573 -760zM701 209c166 0 267 177 267 515c0 336 -102 509 -267 509c-164 0 -267 -174 -267 -509c0 -337 102 -515 267 -515z" />
    <glyph glyph-name="one" unicode="1" horiz-adv-x="1051" 
d="M495 0v1149h-18l-354 -244v281l373 257h301v-1443h-302z" />
    <glyph glyph-name="two" unicode="2" horiz-adv-x="1318" 
d="M129 1011c0 279 214 469 526 469c301 0 511 -173 511 -421c0 -157 -85 -292 -335 -527l-276 -263v-18h632v-251h-1041v211l471 461c203 198 254 273 254 367c0 116 -94 198 -226 198c-140 0 -236 -92 -236 -225v-6h-280v5z" />
    <glyph glyph-name="three" unicode="3" horiz-adv-x="1370" 
d="M498 626v225h176c137 0 230 80 230 198c0 116 -90 190 -231 190c-140 0 -233 -79 -241 -204h-279c10 273 213 445 528 445c296 0 509 -162 509 -389c0 -167 -105 -297 -266 -330v-18c198 -22 322 -154 322 -344c0 -253 -238 -436 -567 -436c-322 0 -540 178 -553 450h289
c9 -122 112 -199 267 -199c151 0 256 85 256 208c0 126 -99 204 -261 204h-179z" />
    <glyph glyph-name="four" unicode="4" horiz-adv-x="1410" 
d="M820 0v252h-706v267c130 245 318 543 571 924h423v-940h189v-251h-189v-252h-288zM385 510v-16h442v714h-16c-132 -197 -261 -399 -426 -698z" />
    <glyph glyph-name="five" unicode="5" horiz-adv-x="1359" 
d="M691 -37c-314 0 -528 189 -537 447h279c17 -120 123 -200 260 -200c155 0 262 104 262 261c0 159 -108 265 -261 265c-112 0 -197 -49 -247 -130h-270l72 837h907v-251h-673l-32 -371h18c61 88 163 141 306 141c274 0 468 -201 468 -484c0 -306 -221 -515 -552 -515z" />
    <glyph glyph-name="six" unicode="6" horiz-adv-x="1401" 
d="M722 -37c-209 0 -377 92 -476 261c-80 123 -121 289 -121 487c0 479 226 769 602 769c274 0 487 -162 528 -403h-299c-28 95 -118 155 -231 155c-198 0 -318 -191 -312 -490h18c66 136 200 213 368 213c274 0 475 -203 475 -479c0 -300 -229 -513 -552 -513zM719 211
c148 0 262 111 262 256c0 147 -110 255 -261 255s-262 -108 -262 -252c0 -147 113 -259 261 -259z" />
    <glyph glyph-name="seven" unicode="7" horiz-adv-x="1239" 
d="M210 0l615 1177v18h-728v249h1032v-252l-603 -1192h-316z" />
    <glyph glyph-name="eight" unicode="8" horiz-adv-x="1421" 
d="M710 -37c-347 0 -582 171 -582 422c0 181 125 326 318 369v18c-157 36 -260 161 -260 314c0 230 218 394 525 394c306 0 524 -164 524 -394c0 -154 -102 -277 -260 -314v-18c192 -36 319 -182 319 -366c0 -253 -237 -425 -584 -425zM710 191c159 0 269 91 269 222
c0 132 -110 223 -269 223c-158 0 -268 -91 -268 -223c0 -131 110 -222 268 -222zM710 859c134 0 227 82 227 198c0 117 -93 199 -227 199s-226 -82 -226 -199c0 -116 93 -198 226 -198z" />
    <glyph glyph-name="nine" unicode="9" horiz-adv-x="1401" 
d="M674 -37c-274 0 -487 163 -528 403h299c28 -95 118 -155 231 -155c198 0 318 191 312 491h-9h-7h-2c-66 -136 -200 -213 -368 -213c-274 0 -475 202 -475 478c0 300 229 513 552 513c208 0 376 -91 476 -260c80 -124 121 -290 121 -487c0 -480 -226 -770 -602 -770z
M681 722c151 0 262 107 262 252c0 146 -113 259 -261 259s-262 -112 -262 -256c0 -148 110 -255 261 -255z" />
    <glyph glyph-name="colon" unicode=":" horiz-adv-x="712" 
d="M356 -27c-107 0 -177 73 -177 174s70 173 177 173c108 0 177 -72 177 -173s-69 -174 -177 -174zM356 711c-107 0 -177 73 -177 174s70 173 177 173c108 0 177 -72 177 -173s-69 -174 -177 -174z" />
    <glyph glyph-name="semicolon" unicode=";" horiz-adv-x="712" 
d="M372 -388h-234l79 635h288zM356 711c-107 0 -177 73 -177 174s70 173 177 173c108 0 177 -72 177 -173s-69 -174 -177 -174z" />
    <glyph glyph-name="less" unicode="&#x3c;" horiz-adv-x="1415" 
d="M1184 279v-301l-953 496v235l953 496v-301l-657 -303v-19z" />
    <glyph glyph-name="equal" unicode="=" horiz-adv-x="1415" 
d="M1244 216h-1073v259h1073v-259zM1244 695h-1073v259h1073v-259z" />
    <glyph glyph-name="greater" unicode="&#x3e;" horiz-adv-x="1415" 
d="M231 279l657 303v19l-657 303v301l953 -496v-235l-953 -496v301z" />
    <glyph glyph-name="question" unicode="?" horiz-adv-x="1141" 
d="M78 1035c5 249 179 421 486 421c286 0 475 -159 475 -390c0 -150 -73 -255 -214 -338c-133 -77 -170 -126 -170 -222v-53h-265l-2 55c-13 160 42 250 180 331c129 77 168 125 168 218s-76 159 -190 159c-115 0 -191 -71 -197 -181h-271zM533 -30c-112 0 -182 65 -182 170
c0 106 70 171 182 171s181 -65 181 -171c0 -105 -69 -170 -181 -170z" />
    <glyph glyph-name="at" unicode="@" horiz-adv-x="1899" 
d="M940 837c-106 0 -169 -85 -169 -228c0 -142 63 -228 168 -228c107 0 174 87 174 228s-67 228 -173 228zM972 1450c479 0 807 -302 807 -743c0 -318 -151 -517 -393 -517c-125 0 -216 60 -238 156h-18c-42 -101 -124 -153 -240 -153c-208 0 -346 168 -346 422
c0 243 136 408 336 408c107 0 194 -52 234 -141h18v119h202v-530c0 -71 35 -112 96 -112c101 0 166 128 166 331c0 362 -250 598 -630 598c-387 0 -656 -278 -656 -677c0 -406 269 -662 694 -662c107 0 216 13 272 33v-163c-78 -23 -181 -36 -287 -36
c-521 0 -862 331 -862 833c0 494 345 834 845 834z" />
    <glyph glyph-name="A" unicode="A" horiz-adv-x="1500" 
d="M1102 0l-109 344h-507l-111 -344h-303l501 1443h355l501 -1443h-327zM732 1143l-181 -566h378l-179 566h-18z" />
    <glyph glyph-name="B" unicode="B" horiz-adv-x="1420" 
d="M823 0h-648v1443h631c280 0 447 -137 447 -360c0 -153 -113 -286 -261 -308v-18c191 -14 330 -158 330 -344c0 -253 -191 -413 -499 -413zM477 1212v-367h227c163 0 252 67 252 183c0 115 -83 184 -227 184h-252zM477 231h269c174 0 268 73 268 208
c0 132 -97 202 -275 202h-262v-410z" />
    <glyph glyph-name="C" unicode="C" horiz-adv-x="1518" 
d="M788 -37c-418 0 -677 289 -677 759c0 469 258 758 677 758c342 0 604 -227 626 -541h-294c-29 166 -160 275 -332 275c-227 0 -368 -188 -368 -492s141 -493 369 -493c173 0 303 102 332 261h294c-25 -312 -279 -527 -627 -527z" />
    <glyph glyph-name="D" unicode="D" horiz-adv-x="1530" 
d="M175 1444h568c429 0 677 -260 677 -712c0 -469 -245 -732 -677 -732h-568v1444zM477 1186v-928h218c267 0 417 164 417 469c0 292 -155 459 -417 459h-218z" />
    <glyph glyph-name="E" unicode="E" horiz-adv-x="1274" 
d="M1131 258v-258h-956v1443h956v-258h-654v-337h617v-239h-617v-351h654z" />
    <glyph glyph-name="F" unicode="F" horiz-adv-x="1224" 
d="M477 0h-302v1443h945v-258h-643v-376h587v-247h-587v-562z" />
    <glyph glyph-name="G" unicode="G" horiz-adv-x="1557" 
d="M1443 589c0 -386 -246 -626 -640 -626c-429 0 -692 288 -692 760c0 465 265 757 685 757c341 0 592 -197 634 -497h-300c-45 146 -166 231 -334 231c-233 0 -376 -185 -376 -488c0 -309 150 -497 388 -497c198 0 335 117 341 291l1 26h-313v227h606v-184z" />
    <glyph glyph-name="H" unicode="H" horiz-adv-x="1604" 
d="M1429 0h-302v603h-650v-603h-302v1443h302v-582h650v582h302v-1443z" />
    <glyph glyph-name="I" unicode="I" horiz-adv-x="652" 
d="M477 0h-302v1443h302v-1443z" />
    <glyph glyph-name="J" unicode="J" horiz-adv-x="1231" 
d="M76 424h292c2 -116 78 -191 194 -191c124 0 192 75 192 217v993h302v-995c0 -311 -184 -485 -490 -485c-296 0 -490 178 -490 461z" />
    <glyph glyph-name="K" unicode="K" horiz-adv-x="1453" 
d="M477 0h-302v1443h302v-643h18l533 643h336l-526 -633l563 -810h-362l-419 604l-143 -169v-435z" />
    <glyph glyph-name="L" unicode="L" horiz-adv-x="1218" 
d="M1119 263v-263h-944v1443h302v-1180h642z" />
    <glyph glyph-name="M" unicode="M" horiz-adv-x="1878" 
d="M455 0h-280v1443h356l399 -970h18l400 970h355v-1443h-280v965h-16l-367 -882h-201l-368 882h-16v-965z" />
    <glyph glyph-name="N" unicode="N" horiz-adv-x="1573" 
d="M464 0h-289v1443h252l664 -899h18v899h289v-1443h-250l-666 903h-18v-903z" />
    <glyph glyph-name="O" unicode="O" horiz-adv-x="1610" 
d="M806 1480c426 0 693 -291 693 -758c0 -468 -266 -759 -693 -759c-428 0 -695 291 -695 759s271 758 695 758zM806 1215c-234 0 -386 -191 -386 -493c0 -301 149 -494 386 -494c235 0 385 193 385 494c0 302 -150 493 -385 493z" />
    <glyph glyph-name="P" unicode="P" horiz-adv-x="1380" 
d="M175 1443h602c297 0 500 -199 500 -499c0 -297 -211 -496 -515 -496h-285v-448h-302v1443zM477 1195v-502h219c173 0 274 88 274 250c0 164 -99 252 -273 252h-220z" />
    <glyph glyph-name="Q" unicode="Q" horiz-adv-x="1610" 
d="M1451 -141h-292l-100 142c-76 -25 -162 -38 -253 -38c-427 0 -695 288 -695 759c0 468 271 758 695 758s693 -290 693 -758c0 -259 -81 -466 -227 -591zM807 228c36 0 70 5 104 13l-164 240h274l67 -81c66 71 103 183 103 322c0 302 -152 493 -385 493
c-234 0 -386 -191 -386 -493c0 -304 151 -494 387 -494z" />
    <glyph glyph-name="R" unicode="R" horiz-adv-x="1422" 
d="M477 1199v-444h265c152 0 241 82 241 221c0 137 -94 223 -244 223h-262zM477 523v-523h-302v1443h606c317 0 512 -176 512 -463c0 -184 -96 -344 -262 -410l304 -570h-342l-269 523h-247z" />
    <glyph glyph-name="S" unicode="S" horiz-adv-x="1383" 
d="M110 401h292c14 -117 132 -192 302 -192c157 0 268 76 268 185c0 92 -72 145 -249 183l-188 40c-263 55 -392 192 -392 412c0 272 219 451 552 451c318 0 543 -178 552 -435h-284c-14 114 -120 190 -266 190c-151 0 -251 -70 -251 -180c0 -89 69 -140 238 -176l174 -37
c290 -61 415 -186 415 -410c0 -291 -223 -469 -585 -469c-344 0 -567 169 -578 438z" />
    <glyph glyph-name="T" unicode="T" horiz-adv-x="1352" 
d="M827 0h-302v1185h-433v258h1168v-258h-433v-1185z" />
    <glyph glyph-name="U" unicode="U" horiz-adv-x="1564" 
d="M480 1443v-914c0 -182 109 -298 302 -298c194 0 303 116 303 298v914h302v-945c0 -320 -235 -535 -605 -535c-369 0 -604 215 -604 535v945h302z" />
    <glyph glyph-name="V" unicode="V" horiz-adv-x="1477" 
d="M925 0h-365l-488 1443h341l328 -1103h18l322 1103h325z" />
    <glyph glyph-name="W" unicode="W" horiz-adv-x="2067" 
d="M1025 955l-270 -955h-285l-382 1443h314l225 -1017h16l263 1017h255l268 -1017h16l223 1017h312l-383 -1443h-283l-273 955h-16z" />
    <glyph glyph-name="X" unicode="X" horiz-adv-x="1494" 
d="M88 0l461 727l-458 716h355l301 -505h18l304 505h338l-475 -721l468 -722h-344l-310 489h-18l-314 -489h-326z" />
    <glyph glyph-name="Y" unicode="Y" horiz-adv-x="1451" 
d="M877 0h-302v531l-503 912h327l318 -604h18l317 604h327l-502 -912v-531z" />
    <glyph glyph-name="Z" unicode="Z" horiz-adv-x="1384" 
d="M135 0v204l726 963v18h-709v258h1077v-203l-724 -964v-18h744v-258h-1114z" />
    <glyph glyph-name="bracketleft" unicode="[" horiz-adv-x="848" 
d="M159 1444h575v-223h-294v-1239h306v-222h-587v1684z" />
    <glyph glyph-name="backslash" unicode="\" horiz-adv-x="772" 
d="M462 -288l-420 1731h274l414 -1731h-268z" />
    <glyph glyph-name="bracketright" unicode="]" horiz-adv-x="848" 
d="M689 1444v-1684h-587v222h307v1239h-294v223h574z" />
    <glyph glyph-name="asciicircum" unicode="^" horiz-adv-x="1066" 
d="M524 1182l-182 -410h-257l319 636h259l319 -636h-257l-183 410h-18z" />
    <glyph glyph-name="underscore" unicode="_" horiz-adv-x="945" 
d="M947 -334h-949v227h949v-227z" />
    <glyph glyph-name="grave" unicode="`" horiz-adv-x="1098" 
d="M826 1281h-269l-287 353h309z" />
    <glyph glyph-name="a" unicode="a" horiz-adv-x="1208" 
d="M544 202c135 0 237 86 237 198v81l-223 -14c-125 -9 -186 -54 -186 -133c0 -82 71 -132 172 -132zM448 -17c-212 0 -361 130 -361 332c0 200 153 316 427 332l267 16v90c0 92 -66 144 -186 144c-105 0 -175 -36 -199 -102h-268c19 204 206 332 483 332
c292 0 457 -138 457 -374v-753h-282v144h-18c-57 -101 -177 -161 -320 -161z" />
    <glyph glyph-name="b" unicode="b" horiz-adv-x="1334" 
d="M796 -17c-156 0 -281 70 -340 190h-18v-173h-282v1524h291v-597h18c56 121 180 194 331 194c279 0 447 -213 447 -569c0 -354 -170 -569 -447 -569zM695 877c-153 0 -250 -125 -251 -326c1 -200 97 -325 251 -325c155 0 249 124 249 326c0 201 -95 325 -249 325z" />
    <glyph glyph-name="c" unicode="c" horiz-adv-x="1203" 
d="M1122 714h-272c-20 105 -95 174 -219 174c-157 0 -245 -117 -245 -334c0 -220 89 -339 245 -339c119 0 197 58 219 167h272c-24 -247 -204 -406 -491 -406c-344 0 -539 208 -539 578c0 366 194 573 539 573c292 0 467 -162 491 -413z" />
    <glyph glyph-name="d" unicode="d" horiz-adv-x="1334" 
d="M541 -17c-278 0 -449 218 -449 570c0 351 172 568 449 568c149 0 272 -72 329 -194h17v597h291v-1524h-282v173h-18c-59 -119 -184 -190 -337 -190zM640 877c-155 0 -249 -123 -249 -325c0 -204 93 -326 249 -326s250 123 250 325c0 201 -95 326 -250 326z" />
    <glyph glyph-name="e" unicode="e" horiz-adv-x="1231" 
d="M623 904c-135 0 -230 -94 -240 -237h470c-6 146 -94 237 -230 237zM859 314h271c-44 -208 -234 -338 -504 -338c-336 0 -534 212 -534 570c0 359 202 581 530 581c325 0 517 -207 517 -557v-89h-757v-15c4 -164 100 -266 252 -266c115 0 194 41 225 114z" />
    <glyph glyph-name="f" unicode="f" horiz-adv-x="836" 
d="M231 0v863h-178v229h178v108c0 223 133 315 392 315c57 0 93 -4 136 -11v-209c-19 4 -55 8 -95 8c-102 0 -148 -40 -148 -130v-81h234v-229h-228v-863h-291z" />
    <glyph glyph-name="g" unicode="g" horiz-adv-x="1322" 
d="M888 561c0 194 -95 316 -252 316s-248 -122 -248 -315c0 -195 90 -316 248 -316s252 121 252 315zM632 -418c-293 0 -487 129 -505 323h288c15 -68 97 -111 223 -111c156 0 247 72 247 196v204h-18c-61 -116 -177 -178 -332 -178c-275 0 -446 213 -446 545
c0 342 172 560 452 560c149 0 276 -74 335 -195h18v177h282v-1099c0 -259 -211 -422 -544 -422z" />
    <glyph glyph-name="h" unicode="h" horiz-adv-x="1307" 
d="M156 0v1524h286v-602h18c51 126 171 202 333 202c237 0 378 -149 378 -414v-710h-291v641c0 153 -71 232 -203 232c-146 0 -230 -97 -230 -240v-633h-291z" />
    <glyph glyph-name="i" unicode="i" horiz-adv-x="587" 
d="M148 0v1103h291v-1103h-291zM294 1257c-105 0 -172 61 -172 147c0 87 67 147 172 147c104 0 172 -60 172 -147c0 -86 -68 -147 -172 -147z" />
    <glyph glyph-name="j" unicode="j" horiz-adv-x="587" 
d="M439 1103v-1137c0 -226 -135 -342 -390 -342c-21 0 -66 2 -78 4v223c6 -1 28 -1 37 -1c102 0 140 36 140 124v1129h291zM294 1257c-105 0 -172 61 -172 147c0 87 67 147 172 147c104 0 172 -60 172 -147c0 -86 -68 -147 -172 -147z" />
    <glyph glyph-name="k" unicode="k" horiz-adv-x="1232" 
d="M465 672l369 431h331l-420 -473l449 -630h-345l-322 448l-80 -82v-366h-291v1524h291v-852h18z" />
    <glyph glyph-name="l" unicode="l" horiz-adv-x="603" 
d="M156 0v1524h291v-1524h-291z" />
    <glyph glyph-name="m" unicode="m" horiz-adv-x="1899" 
d="M146 0v1103h282v-180h18c45 126 160 204 305 204c155 0 261 -76 305 -204h18c51 123 178 204 332 204c220 0 357 -143 357 -370v-757h-291v680c0 131 -61 196 -184 196c-118 0 -194 -84 -194 -201v-675h-280v692c0 117 -68 184 -182 184s-195 -89 -195 -212v-664h-291z
" />
    <glyph glyph-name="n" unicode="n" horiz-adv-x="1285" 
d="M146 0v1103h282v-177h18c51 124 163 201 326 201c245 0 377 -150 377 -414v-713h-291v644c0 152 -65 232 -203 232c-135 0 -218 -95 -218 -240v-636h-291z" />
    <glyph glyph-name="o" unicode="o" horiz-adv-x="1269" 
d="M635 214c155 0 244 124 244 338c0 212 -90 337 -244 337c-155 0 -244 -125 -244 -337c0 -215 88 -338 244 -338zM635 -24c-339 0 -543 215 -543 576c0 357 207 575 543 575s543 -217 543 -575c0 -361 -204 -576 -543 -576z" />
    <glyph glyph-name="p" unicode="p" horiz-adv-x="1324" 
d="M783 1121c279 0 450 -212 450 -569c0 -356 -169 -569 -445 -569c-158 0 -279 69 -333 186h-18v-535h-291v1469h282v-181h18c60 124 185 199 337 199zM684 226c157 0 250 122 250 326c0 202 -94 325 -249 325s-251 -124 -251 -326s96 -325 250 -325z" />
    <glyph glyph-name="q" unicode="q" horiz-adv-x="1324" 
d="M543 1121c149 0 276 -77 334 -199h18v181h283v-1469h-292v535h-18c-59 -118 -175 -186 -331 -186c-277 0 -445 217 -445 570c0 350 173 568 451 568zM638 226c156 0 252 123 252 325c0 201 -97 326 -251 326c-155 0 -248 -123 -248 -325c0 -204 92 -326 247 -326z" />
    <glyph glyph-name="r" unicode="r" horiz-adv-x="891" 
d="M146 0v1103h282v-176h18c29 110 143 194 283 194c40 0 89 -5 114 -14v-265c-23 9 -91 18 -138 18c-159 0 -268 -94 -268 -249v-611h-291z" />
    <glyph glyph-name="s" unicode="s" horiz-adv-x="1160" 
d="M121 779c0 209 184 348 459 348c280 0 445 -117 461 -328h-269c-15 71 -82 115 -190 115c-104 0 -181 -47 -181 -117c0 -54 47 -87 149 -110l207 -45c214 -47 310 -137 310 -302c0 -220 -197 -364 -486 -364c-291 0 -467 119 -487 331h284c22 -75 93 -118 209 -118
c113 0 191 47 191 118c0 54 -42 87 -139 108l-200 45c-214 47 -318 149 -318 319z" />
    <glyph glyph-name="t" unicode="t" horiz-adv-x="845" 
d="M229 1365h291v-273h229v-229h-229v-496c0 -96 44 -140 143 -140c38 0 58 1 86 4v-222c-36 -7 -90 -13 -146 -13c-268 0 -374 87 -374 302v565h-172v229h172v273z" />
    <glyph glyph-name="u" unicode="u" horiz-adv-x="1290" 
d="M1144 1103v-1103h-282v177h-18c-52 -128 -155 -201 -322 -201c-238 0 -386 152 -386 408v719h291v-644c0 -152 69 -230 203 -230c145 0 223 91 223 238v636h291z" />
    <glyph glyph-name="v" unicode="v" horiz-adv-x="1194" 
d="M51 1103h313l228 -822h18l226 822h307l-381 -1103h-328z" />
    <glyph glyph-name="w" unicode="w" horiz-adv-x="1735" 
d="M1674 1103l-293 -1103h-310l-197 761h-18l-195 -761h-306l-294 1103h295l164 -791h18l193 791h278l194 -791h18l164 791h289z" />
    <glyph glyph-name="x" unicode="x" horiz-adv-x="1190" 
d="M598 360h-18l-205 -360h-309l346 545l-348 558h334l195 -362h18l195 362h318l-346 -545l349 -558h-324z" />
    <glyph glyph-name="y" unicode="y" horiz-adv-x="1223" 
d="M283 -401c-11 0 -99 1 -111 3v234c10 -2 54 -2 66 -2c109 0 171 35 195 119l10 40l-387 1110h321l232 -836h18l232 836h308l-380 -1120c-94 -284 -229 -384 -504 -384z" />
    <glyph glyph-name="z" unicode="z" horiz-adv-x="1160" 
d="M121 0v172l558 681v18h-550v232h898v-192l-526 -661v-18h539v-232h-919z" />
    <glyph glyph-name="braceleft" unicode="{" horiz-adv-x="927" 
d="M371 601c136 -13 208 -103 208 -256v-260c0 -156 52 -204 214 -204h45v-219h-105c-304 0 -433 113 -433 385v218c0 155 -42 207 -168 207v277c126 0 168 52 168 208v185c0 266 128 376 433 376h105v-220h-45c-163 0 -214 -48 -214 -205v-237c0 -146 -66 -224 -208 -237
v-18z" />
    <glyph glyph-name="bar" unicode="|" horiz-adv-x="749" 
d="M508 -289h-267v1732h267v-1732z" />
    <glyph glyph-name="braceright" unicode="}" horiz-adv-x="927" 
d="M556 601v18c-142 13 -208 91 -208 237v237c0 157 -51 205 -214 205h-45v220h105c305 0 433 -110 433 -376v-185c0 -156 42 -208 168 -208v-277c-126 0 -168 -52 -168 -207v-218c0 -272 -129 -385 -433 -385h-105v219h45c162 0 214 48 214 204v260c0 153 72 243 208 256z
" />
    <glyph glyph-name="asciitilde" unicode="~" horiz-adv-x="1225" 
d="M566 622c-62 61 -95 81 -137 81c-76 0 -116 -58 -119 -178h-228c-1 13 -2 25 -2 38c0 243 123 394 323 394c91 0 162 -36 259 -131c59 -58 95 -79 135 -79c75 0 115 59 119 178h227c1 -13 2 -26 2 -38c0 -242 -122 -394 -321 -394c-91 0 -163 36 -258 129z" />
    <glyph glyph-name="nonbreakingspace" unicode="&#xa0;" horiz-adv-x="528" 
 />
    <glyph glyph-name="exclamdown" unicode="&#xa1;" horiz-adv-x="730" 
d="M205 -322l26 969h267l27 -969h-320zM183 982c0 105 70 170 182 170c113 0 182 -65 182 -170c0 -106 -69 -171 -182 -171c-112 0 -182 65 -182 171z" />
    <glyph glyph-name="cent" unicode="&#xa2;" horiz-adv-x="1415" 
d="M1253 528c-22 -216 -185 -361 -413 -396v-184h-242v188c-261 51 -440 257 -440 564c0 304 179 510 440 560v189h242v-185c223 -38 391 -188 413 -404h-272c-29 106 -125 174 -248 174c-158 0 -281 -124 -281 -334c0 -213 123 -338 280 -338c134 0 224 63 249 166h272z
" />
    <glyph glyph-name="sterling" unicode="&#xa3;" horiz-adv-x="1415" 
d="M1264 257v-257h-1124v240c178 25 300 156 303 324c0 24 -5 47 -11 68h-288v213h224c-35 85 -59 159 -59 243c0 248 205 392 558 392c134 0 236 -10 330 -33v-243c-96 23 -184 33 -287 33c-184 0 -298 -78 -298 -204c0 -68 18 -128 42 -188h417v-213h-354
c6 -20 10 -42 10 -65c6 -121 -58 -235 -165 -291v-19h702z" />
    <glyph glyph-name="currency" unicode="&#xa4;" horiz-adv-x="1415" 
d="M474 648c0 -126 106 -232 234 -232s235 106 235 232c0 127 -107 233 -235 233s-234 -106 -234 -233zM1248 1021l-147 -149c37 -66 58 -143 58 -224s-21 -158 -59 -224l148 -149l-166 -172l-149 150c-66 -39 -143 -61 -225 -61s-159 22 -225 61l-149 -150l-166 172
l148 149c-37 67 -58 143 -58 224s21 158 58 224l-148 149l166 172l148 -150c67 40 144 62 226 62s159 -22 225 -61l149 149z" />
    <glyph glyph-name="yen" unicode="&#xa5;" horiz-adv-x="1415" 
d="M1130 206h-271v-206h-302v206h-271v169h271v133h-271v169h195l-427 766h327l318 -604h18l317 604h327l-426 -766h195v-169h-271v-133h271v-169z" />
    <glyph glyph-name="brokenbar" unicode="&#xa6;" horiz-adv-x="749" 
d="M508 773h-267v670h267v-670zM508 -289h-267v669h267v-669z" />
    <glyph glyph-name="section" unicode="&#xa7;" horiz-adv-x="1032" 
d="M464 454l109 -38c79 12 139 72 139 138c0 63 -51 114 -141 139l-109 38c-78 -12 -140 -73 -140 -138c0 -62 52 -113 142 -139zM515 -286c-249 0 -426 135 -436 334h253c10 -73 87 -124 187 -124c103 0 174 52 174 127c0 56 -44 93 -149 124l-175 60
c-211 68 -301 158 -301 301c0 125 81 226 215 268v18c-143 66 -205 149 -205 274c0 203 174 337 438 337c245 0 415 -130 430 -329h-251c-10 71 -83 119 -181 119c-102 0 -171 -51 -171 -126c0 -56 42 -91 147 -124l171 -60c213 -73 304 -161 304 -299
c0 -129 -92 -239 -231 -276v-19c154 -59 223 -138 223 -267c0 -202 -178 -338 -442 -338z" />
    <glyph glyph-name="dieresis" unicode="&#xa8;" horiz-adv-x="1176" 
d="M354 1267c-90 0 -155 64 -155 152s65 151 155 151s155 -63 155 -151s-65 -152 -155 -152zM822 1267c-89 0 -155 64 -155 152s66 151 155 151c90 0 156 -63 156 -151s-66 -152 -156 -152z" />
    <glyph glyph-name="copyright" unicode="&#xa9;" horiz-adv-x="1742" 
d="M871 -136c-439 0 -788 349 -788 788c0 440 348 789 788 789c441 0 789 -349 789 -789c0 -439 -349 -788 -789 -788zM871 30c350 0 625 275 625 622c0 349 -275 623 -625 623c-349 0 -624 -275 -624 -623c0 -347 275 -622 624 -622zM1238 759h-188
c-15 78 -78 126 -162 126c-113 0 -182 -87 -182 -231c0 -147 69 -234 182 -234c88 0 147 44 162 120h188c-19 -176 -153 -284 -351 -284c-236 0 -382 153 -382 398c0 242 147 395 381 395c194 0 333 -114 352 -290z" />
    <glyph glyph-name="ordfeminine" unicode="&#xaa;" horiz-adv-x="1031" 
d="M491 693c100 0 173 65 173 155v70l-167 -12c-93 -6 -143 -43 -143 -107c0 -65 52 -106 137 -106zM392 497c-182 0 -301 112 -301 286c0 169 126 267 364 282l207 11v75c1 67 -53 107 -144 107c-78 0 -130 -30 -141 -82h-252c13 180 166 289 403 289
c247 0 397 -121 397 -319v-631h-256v113h-18c-44 -82 -141 -131 -259 -131z" />
    <glyph glyph-name="guillemotleft" unicode="&#xab;" horiz-adv-x="1447" 
d="M942 572v-11l347 -410h-276l-344 411v8l349 411h271zM431 572v-11l347 -410h-276l-344 411v8l349 411h271z" />
    <glyph glyph-name="logicalnot" unicode="&#xac;" horiz-adv-x="1415" 
d="M1230 713v-654h-255v396h-790v258h1045z" />
    <glyph glyph-name="registered" unicode="&#xae;" horiz-adv-x="1260" 
d="M630 438c-293 0 -530 237 -530 531s237 531 530 531c294 0 530 -237 530 -531s-236 -531 -530 -531zM630 574c221 0 397 176 397 395c0 220 -176 395 -397 395c-220 0 -397 -175 -397 -395c0 -219 177 -395 397 -395zM546 733h-125v487h256c107 0 180 -63 180 -156
c0 -74 -38 -129 -103 -148l127 -183h-149l-111 165h-75v-165zM546 1116v-121h99c52 0 78 19 78 60c0 40 -26 61 -76 61h-101z" />
    <glyph glyph-name="macron" unicode="&#xaf;" horiz-adv-x="1048" 
d="M892 1316h-735v180h735v-180z" />
    <glyph glyph-name="degree" unicode="&#xb0;" horiz-adv-x="924" 
d="M462 742c-206 0 -360 158 -360 360s154 360 360 360s360 -158 360 -360s-154 -360 -360 -360zM462 918c109 0 183 80 183 184c0 105 -74 183 -183 183s-182 -79 -182 -183c0 -103 73 -184 182 -184z" />
    <glyph glyph-name="plusminus" unicode="&#xb1;" horiz-adv-x="1415" 
d="M1205 71h-997v225h997v-225zM832 650v-234h-249v234h-375v224h375v234h249v-234h375v-224h-375z" />
    <glyph glyph-name="two.sups" unicode="&#xb2;" horiz-adv-x="914" 
d="M80 1530c0 193 148 320 373 320c218 0 358 -111 358 -283c0 -118 -64 -214 -239 -343l-114 -97v-18h368v-213h-727v189l277 239c142 119 176 161 176 218c0 58 -46 98 -111 98c-69 0 -116 -44 -116 -109v-6h-245v5z" />
    <glyph glyph-name="three.sups" unicode="&#xb3;" horiz-adv-x="950" 
d="M354 1278v177h113c71 0 116 37 116 94c0 54 -48 91 -118 91c-75 0 -124 -40 -128 -104h-243c1 189 148 311 376 311c216 0 361 -103 361 -257c0 -105 -71 -188 -176 -205v-19c129 -11 210 -94 210 -213c0 -169 -160 -284 -395 -284c-233 0 -384 126 -385 320h246
c3 -65 57 -106 137 -106c78 0 131 40 131 99c0 61 -48 96 -130 96h-115z" />
    <glyph glyph-name="acute" unicode="&#xb4;" horiz-adv-x="1098" 
d="M260 1281l247 353h309l-287 -353h-269z" />
    <glyph glyph-name="mugreek" unicode="&#xb5;" horiz-adv-x="1365" 
d="M146 -366v1469h291v-644c0 -149 66 -230 201 -230c128 0 215 94 215 236v638h291v-760c0 -94 24 -123 89 -123c16 0 41 5 54 8v-221c-37 -11 -85 -18 -130 -18c-154 0 -233 53 -266 188l-3 14h-19c-28 -136 -105 -215 -244 -215c-82 0 -140 29 -170 78h-18v-420h-291z
" />
    <glyph glyph-name="mugreek" unicode="&#x3bc;" horiz-adv-x="1365" 
d="M146 -366v1469h291v-644c0 -149 66 -230 201 -230c128 0 215 94 215 236v638h291v-760c0 -94 24 -123 89 -123c16 0 41 5 54 8v-221c-37 -11 -85 -18 -130 -18c-154 0 -233 53 -266 188l-3 14h-19c-28 -136 -105 -215 -244 -215c-82 0 -140 29 -170 78h-18v-420h-291z
" />
    <glyph glyph-name="paragraph" unicode="&#xb6;" horiz-adv-x="1580" 
d="M966 -259h-280v702h-20c-301 0 -524 218 -524 496c0 290 216 504 525 504h299v-1702zM1135 -259v1702h280v-1702h-280z" />
    <glyph glyph-name="periodcentered" unicode="&#xb7;" horiz-adv-x="723" 
d="M362 555c-113 0 -183 72 -183 179c0 105 70 178 183 178s182 -73 182 -178c0 -107 -69 -179 -182 -179z" />
    <glyph glyph-name="cedilla" unicode="&#xb8;" horiz-adv-x="1098" 
d="M405 -241v115l55 132h174l-49 -119c126 -6 196 -69 196 -177c0 -127 -96 -204 -267 -204c-58 0 -110 7 -147 17v135c21 -8 77 -14 116 -14c74 0 112 20 112 59s-38 56 -130 56h-60z" />
    <glyph glyph-name="one.sups" unicode="&#xb9;" horiz-adv-x="761" 
d="M589 896h-267v679h-18c-10 -6 -216 -140 -217 -141v235c62 46 153 106 232 155h270v-928z" />
    <glyph glyph-name="ordmasculine" unicode="&#xba;" horiz-adv-x="1107" 
d="M553 710c118 0 186 98 186 270c0 170 -68 269 -186 269c-117 0 -186 -100 -186 -269c0 -172 67 -270 186 -270zM553 497c-287 0 -458 180 -458 483c0 298 175 482 458 482c285 0 458 -182 458 -482c0 -304 -170 -483 -458 -483z" />
    <glyph glyph-name="guillemotright" unicode="&#xbb;" horiz-adv-x="1447" 
d="M505 572l-347 409h271l349 -411v-8l-344 -411h-276l347 410v11zM1016 572l-347 409h271l349 -411v-8l-344 -411h-276l347 410v11z" />
    <glyph glyph-name="onequarter" unicode="&#xbc;" horiz-adv-x="2242" 
d="M1677 928h367v-588h110v-196h-119v-144h-236v134h-481v214c63 130 144 264 359 580zM1546 337v-3h254v393h-14c-132 -204 -193 -299 -240 -390zM589 515h-267v679h-18c-10 -6 -216 -140 -217 -141v235c62 46 153 106 232 155h270v-928zM569 0l394 749l305 694h274
l-399 -742l-300 -701h-274z" />
    <glyph glyph-name="onehalf" unicode="&#xbd;" horiz-adv-x="2243" 
d="M1410 634c0 193 148 320 373 320c218 0 358 -111 358 -283c0 -118 -64 -214 -239 -343l-114 -97v-18h368v-213h-727v189l277 239c142 119 176 161 176 218c0 58 -46 98 -111 98c-69 0 -116 -44 -116 -109v-6h-245v5zM589 515h-267v679h-18c-10 -6 -216 -140 -217 -141
v235c62 46 153 106 232 155h270v-928zM569 0l394 749l305 694h274l-399 -742l-300 -701h-274z" />
    <glyph glyph-name="threequarters" unicode="&#xbe;" horiz-adv-x="2402" 
d="M354 897v177h113c71 0 116 37 116 94c0 54 -48 91 -118 91c-75 0 -124 -40 -128 -104h-243c1 189 148 311 376 311c216 0 361 -103 361 -257c0 -105 -71 -188 -176 -205v-19c129 -11 210 -94 210 -213c0 -169 -160 -284 -395 -284c-233 0 -384 126 -385 320h246
c3 -65 57 -106 137 -106c78 0 131 40 131 99c0 61 -48 96 -130 96h-115zM1837 928h367v-588h110v-196h-119v-144h-236v134h-481v214c63 130 144 264 359 580zM1706 337v-3h254v393h-14c-132 -204 -193 -299 -240 -390zM729 0l394 749l305 694h274l-399 -742l-300 -701h-274z
" />
    <glyph glyph-name="questiondown" unicode="&#xbf;" horiz-adv-x="1141" 
d="M1064 87c-5 -250 -180 -422 -485 -422c-287 0 -476 159 -476 391c0 149 74 254 214 337c133 78 170 126 170 222v53h264l2 -54c13 -161 -41 -250 -180 -332c-128 -77 -168 -125 -168 -217c0 -94 77 -160 191 -160s190 71 196 182h272zM609 811c-112 0 -182 64 -182 170
c0 105 70 170 182 170c113 0 182 -65 182 -170c0 -106 -69 -170 -182 -170z" />
    <glyph glyph-name="Agrave" unicode="&#xc0;" horiz-adv-x="1500" 
d="M1102 0l-109 344h-507l-111 -344h-303l501 1443h355l501 -1443h-327zM732 1143l-181 -566h378l-179 566h-18zM624 1908l276 -318h-277l-314 318h315z" />
    <glyph glyph-name="Aacute" unicode="&#xc1;" horiz-adv-x="1500" 
d="M1102 0l-109 344h-507l-111 -344h-303l501 1443h355l501 -1443h-327zM732 1143l-181 -566h378l-179 566h-18zM609 1590l277 318h315l-314 -318h-278z" />
    <glyph glyph-name="Acircumflex" unicode="&#xc2;" horiz-adv-x="1500" 
d="M1102 0l-109 344h-507l-111 -344h-303l501 1443h355l501 -1443h-327zM732 1143l-181 -566h378l-179 566h-18zM886 1925l284 -335h-265l-146 187h-18l-146 -187h-265l284 335h272z" />
    <glyph glyph-name="Atilde" unicode="&#xc3;" horiz-adv-x="1500" 
d="M1102 0l-109 344h-507l-111 -344h-303l501 1443h355l501 -1443h-327zM732 1143l-181 -566h378l-179 566h-18zM909 1577c-162 0 -200 138 -295 138c-50 0 -83 -35 -86 -128h-184c0 198 103 309 247 309c168 0 210 -138 295 -138c46 0 82 30 87 124h183
c0 -192 -103 -305 -247 -305z" />
    <glyph glyph-name="Adieresis" unicode="&#xc4;" horiz-adv-x="1500" 
d="M1102 0l-109 344h-507l-111 -344h-303l501 1443h355l501 -1443h-327zM732 1143l-181 -566h378l-179 566h-18zM516 1579c-90 0 -155 64 -155 152s65 151 155 151s155 -63 155 -151s-65 -152 -155 -152zM984 1579c-89 0 -155 64 -155 152s66 151 155 151
c90 0 156 -63 156 -151s-66 -152 -156 -152z" />
    <glyph glyph-name="Aring" unicode="&#xc5;" horiz-adv-x="1500" 
d="M1102 0l-109 344h-507l-111 -344h-303l501 1443h355l501 -1443h-327zM732 1143l-181 -566h378l-179 566h-18zM751 1546c-118 0 -206 84 -206 200c0 115 88 199 206 199c116 0 204 -84 204 -199c0 -116 -88 -200 -204 -200zM750 1652c56 0 95 40 95 93c0 54 -40 94 -95 94
s-95 -40 -95 -94c0 -53 40 -93 95 -93z" />
    <glyph glyph-name="AE" unicode="&#xc6;" horiz-adv-x="2059" 
d="M990 1202h-129l-249 -604h378v604zM990 0v364h-465l-154 -364h-299l595 1443h1250v-258h-651v-341h614v-239h-614v-347h651v-258h-927z" />
    <glyph glyph-name="Ccedilla" unicode="&#xc7;" horiz-adv-x="1518" 
d="M1121 490h294c-23 -286 -238 -491 -542 -523l-33 -79c126 -6 196 -69 196 -177c0 -127 -96 -204 -267 -204c-58 0 -110 7 -147 17v135c21 -8 77 -14 116 -14c74 0 112 20 112 59s-38 56 -130 56h-60v115l39 93c-366 38 -588 318 -588 754c0 469 258 758 677 758
c342 0 604 -227 626 -541h-294c-29 166 -160 275 -332 275c-227 0 -368 -188 -368 -492s141 -493 369 -493c173 0 303 102 332 261z" />
    <glyph glyph-name="Egrave" unicode="&#xc8;" horiz-adv-x="1274" 
d="M527 1908l276 -318h-277l-314 318h315zM1131 258v-258h-956v1443h956v-258h-654v-337h617v-239h-617v-351h654z" />
    <glyph glyph-name="Eacute" unicode="&#xc9;" horiz-adv-x="1274" 
d="M512 1590l277 318h315l-314 -318h-278zM1131 258v-258h-956v1443h956v-258h-654v-337h617v-239h-617v-351h654z" />
    <glyph glyph-name="Ecircumflex" unicode="&#xca;" horiz-adv-x="1274" 
d="M789 1925l284 -335h-265l-146 187h-18l-146 -187h-265l284 335h272zM1131 258v-258h-956v1443h956v-258h-654v-337h617v-239h-617v-351h654z" />
    <glyph glyph-name="Edieresis" unicode="&#xcb;" horiz-adv-x="1274" 
d="M419 1579c-90 0 -155 64 -155 152s65 151 155 151s155 -63 155 -151s-65 -152 -155 -152zM887 1579c-89 0 -155 64 -155 152s66 151 155 151c90 0 156 -63 156 -151s-66 -152 -156 -152zM1131 258v-258h-956v1443h956v-258h-654v-337h617v-239h-617v-351h654z" />
    <glyph glyph-name="Igrave" unicode="&#xcc;" horiz-adv-x="652" 
d="M477 0h-302v1443h302v-1443zM200 1908l276 -318h-277l-314 318h315z" />
    <glyph glyph-name="Iacute" unicode="&#xcd;" horiz-adv-x="652" 
d="M477 0h-302v1443h302v-1443zM185 1590l277 318h315l-314 -318h-278z" />
    <glyph glyph-name="Icircumflex" unicode="&#xce;" horiz-adv-x="652" 
d="M477 0h-302v1443h302v-1443zM462 1925l284 -335h-265l-146 187h-18l-146 -187h-265l284 335h272z" />
    <glyph glyph-name="Idieresis" unicode="&#xcf;" horiz-adv-x="652" 
d="M477 0h-302v1443h302v-1443zM92 1579c-90 0 -155 64 -155 152s65 151 155 151s155 -63 155 -151s-65 -152 -155 -152zM560 1579c-89 0 -155 64 -155 152s66 151 155 151c90 0 156 -63 156 -151s-66 -152 -156 -152z" />
    <glyph glyph-name="Eth" unicode="&#xd0;" horiz-adv-x="1530" 
d="M477 258h218c267 0 417 164 417 469c0 292 -155 459 -417 459h-218v-341h228v-227h-228v-360zM175 1444h568c429 0 677 -260 677 -712c0 -469 -245 -732 -677 -732h-568v618h-125v227h125v599z" />
    <glyph glyph-name="Ntilde" unicode="&#xd1;" horiz-adv-x="1573" 
d="M942 1577c-162 0 -200 138 -295 138c-50 0 -83 -35 -86 -128h-184c0 198 103 309 247 309c168 0 210 -138 295 -138c46 0 82 30 87 124h183c0 -192 -103 -305 -247 -305zM464 0h-289v1443h252l664 -899h18v899h289v-1443h-250l-666 903h-18v-903z" />
    <glyph glyph-name="Ograve" unicode="&#xd2;" horiz-adv-x="1610" 
d="M680 1908l276 -318h-277l-314 318h315zM806 1480c426 0 693 -291 693 -758c0 -468 -266 -759 -693 -759c-428 0 -695 291 -695 759s271 758 695 758zM806 1215c-234 0 -386 -191 -386 -493c0 -301 149 -494 386 -494c235 0 385 193 385 494c0 302 -150 493 -385 493z" />
    <glyph glyph-name="Oacute" unicode="&#xd3;" horiz-adv-x="1610" 
d="M665 1590l277 318h315l-314 -318h-278zM806 1480c426 0 693 -291 693 -758c0 -468 -266 -759 -693 -759c-428 0 -695 291 -695 759s271 758 695 758zM806 1215c-234 0 -386 -191 -386 -493c0 -301 149 -494 386 -494c235 0 385 193 385 494c0 302 -150 493 -385 493z" />
    <glyph glyph-name="Ocircumflex" unicode="&#xd4;" horiz-adv-x="1610" 
d="M942 1925l284 -335h-265l-146 187h-18l-146 -187h-265l284 335h272zM806 1480c426 0 693 -291 693 -758c0 -468 -266 -759 -693 -759c-428 0 -695 291 -695 759s271 758 695 758zM806 1215c-234 0 -386 -191 -386 -493c0 -301 149 -494 386 -494c235 0 385 193 385 494
c0 302 -150 493 -385 493z" />
    <glyph glyph-name="Otilde" unicode="&#xd5;" horiz-adv-x="1610" 
d="M806 1480c426 0 693 -291 693 -758c0 -468 -266 -759 -693 -759c-428 0 -695 291 -695 759s271 758 695 758zM806 1215c-234 0 -386 -191 -386 -493c0 -301 149 -494 386 -494c235 0 385 193 385 494c0 302 -150 493 -385 493zM965 1577c-162 0 -200 138 -295 138
c-50 0 -83 -35 -86 -128h-184c0 198 103 309 247 309c168 0 210 -138 295 -138c46 0 82 30 87 124h183c0 -192 -103 -305 -247 -305z" />
    <glyph glyph-name="Odieresis" unicode="&#xd6;" horiz-adv-x="1610" 
d="M572 1579c-90 0 -155 64 -155 152s65 151 155 151s155 -63 155 -151s-65 -152 -155 -152zM1040 1579c-89 0 -155 64 -155 152s66 151 155 151c90 0 156 -63 156 -151s-66 -152 -156 -152zM806 1480c426 0 693 -291 693 -758c0 -468 -266 -759 -693 -759
c-428 0 -695 291 -695 759s271 758 695 758zM806 1215c-234 0 -386 -191 -386 -493c0 -301 149 -494 386 -494c235 0 385 193 385 494c0 302 -150 493 -385 493z" />
    <glyph glyph-name="multiply" unicode="&#xd7;" horiz-adv-x="1415" 
d="M708 402l-305 -304l-175 182l304 304l-304 305l175 182l305 -304l304 304l175 -182l-304 -305l304 -304l-175 -182z" />
    <glyph glyph-name="Oslash" unicode="&#xd8;" horiz-adv-x="1592" 
d="M1097 1067l-510 -768c60 -46 134 -71 219 -71c235 0 385 193 385 494c0 143 -33 261 -94 345zM503 392l506 763c-57 39 -125 60 -203 60c-234 0 -386 -191 -386 -493c0 -134 29 -246 83 -330zM1350 1448l-84 -127c149 -130 233 -337 233 -599c0 -468 -266 -759 -693 -759
c-146 0 -273 34 -377 97l-85 -128l-102 66l90 135c-142 132 -221 334 -221 589c0 468 271 758 695 758c138 0 259 -30 360 -88l76 115z" />
    <glyph glyph-name="Ugrave" unicode="&#xd9;" horiz-adv-x="1565" 
d="M656 1908l276 -318h-277l-314 318h315zM480 1443v-914c0 -182 109 -298 302 -298c194 0 303 116 303 298v914h302v-945c0 -320 -235 -535 -605 -535c-369 0 -604 215 -604 535v945h302z" />
    <glyph glyph-name="Uacute" unicode="&#xda;" horiz-adv-x="1565" 
d="M641 1590l277 318h315l-314 -318h-278zM480 1443v-914c0 -182 109 -298 302 -298c194 0 303 116 303 298v914h302v-945c0 -320 -235 -535 -605 -535c-369 0 -604 215 -604 535v945h302z" />
    <glyph glyph-name="Ucircumflex" unicode="&#xdb;" horiz-adv-x="1565" 
d="M918 1925l284 -335h-265l-146 187h-18l-146 -187h-265l284 335h272zM480 1443v-914c0 -182 109 -298 302 -298c194 0 303 116 303 298v914h302v-945c0 -320 -235 -535 -605 -535c-369 0 -604 215 -604 535v945h302z" />
    <glyph glyph-name="Udieresis" unicode="&#xdc;" horiz-adv-x="1565" 
d="M548 1579c-90 0 -155 64 -155 152s65 151 155 151s155 -63 155 -151s-65 -152 -155 -152zM1016 1579c-89 0 -155 64 -155 152s66 151 155 151c90 0 156 -63 156 -151s-66 -152 -156 -152zM480 1443v-914c0 -182 109 -298 302 -298c194 0 303 116 303 298v914h302v-945
c0 -320 -235 -535 -605 -535c-369 0 -604 215 -604 535v945h302z" />
    <glyph glyph-name="Yacute" unicode="&#xdd;" horiz-adv-x="1452" 
d="M877 0h-302v531l-503 912h327l318 -604h18l317 604h327l-502 -912v-531zM585 1590l277 318h315l-314 -318h-278z" />
    <glyph glyph-name="Thorn" unicode="&#xde;" horiz-adv-x="1378" 
d="M175 1443h304v-232h307c272 0 475 -173 475 -462c0 -286 -210 -461 -490 -461h-294v-288h-302v1443zM477 963v-430h226c153 0 251 73 251 216c0 142 -98 214 -250 214h-227z" />
    <glyph glyph-name="germandbls" unicode="&#xdf;" horiz-adv-x="1402" 
d="M482 0h-290v1079c0 249 196 402 500 402c292 0 494 -154 494 -377c0 -160 -91 -286 -218 -322v-19c199 -13 335 -150 335 -362c0 -248 -188 -416 -485 -416c-68 0 -139 6 -181 16v241c36 -12 80 -18 129 -18c155 0 241 77 241 195c0 121 -101 196 -274 196h-72v245h49
c116 0 193 71 193 192c0 109 -77 185 -206 185c-138 0 -215 -77 -215 -220v-1017z" />
    <glyph glyph-name="agrave" unicode="&#xe0;" horiz-adv-x="1208" 
d="M544 202c135 0 237 86 237 198v81l-223 -14c-125 -9 -186 -54 -186 -133c0 -82 71 -132 172 -132zM448 -17c-212 0 -361 130 -361 332c0 200 153 316 427 332l267 16v90c0 92 -66 144 -186 144c-105 0 -175 -36 -199 -102h-268c19 204 206 332 483 332
c292 0 457 -138 457 -374v-753h-282v144h-18c-57 -101 -177 -161 -320 -161zM770 1281h-269l-287 353h309z" />
    <glyph glyph-name="aacute" unicode="&#xe1;" horiz-adv-x="1208" 
d="M544 202c135 0 237 86 237 198v81l-223 -14c-125 -9 -186 -54 -186 -133c0 -82 71 -132 172 -132zM448 -17c-212 0 -361 130 -361 332c0 200 153 316 427 332l267 16v90c0 92 -66 144 -186 144c-105 0 -175 -36 -199 -102h-268c19 204 206 332 483 332
c292 0 457 -138 457 -374v-753h-282v144h-18c-57 -101 -177 -161 -320 -161zM456 1281l247 353h309l-287 -353h-269z" />
    <glyph glyph-name="acircumflex" unicode="&#xe2;" horiz-adv-x="1208" 
d="M544 202c135 0 237 86 237 198v81l-223 -14c-125 -9 -186 -54 -186 -133c0 -82 71 -132 172 -132zM448 -17c-212 0 -361 130 -361 332c0 200 153 316 427 332l267 16v90c0 92 -66 144 -186 144c-105 0 -175 -36 -199 -102h-268c19 204 206 332 483 332
c292 0 457 -138 457 -374v-753h-282v144h-18c-57 -101 -177 -161 -320 -161zM756 1605l275 -354h-263l-148 209h-18l-149 -209h-263l275 354h291z" />
    <glyph glyph-name="atilde" unicode="&#xe3;" horiz-adv-x="1208" 
d="M544 202c135 0 237 86 237 198v81l-223 -14c-125 -9 -186 -54 -186 -133c0 -82 71 -132 172 -132zM448 -17c-212 0 -361 130 -361 332c0 200 153 316 427 332l267 16v90c0 92 -66 144 -186 144c-105 0 -175 -36 -199 -102h-268c19 204 206 332 483 332
c292 0 457 -138 457 -374v-753h-282v144h-18c-57 -101 -177 -161 -320 -161zM484 1397c-57 0 -87 -48 -88 -141h-187c0 193 104 321 261 321c151 0 200 -144 278 -144c57 0 87 45 88 138h187c0 -192 -103 -318 -261 -318c-151 0 -200 144 -278 144z" />
    <glyph glyph-name="adieresis" unicode="&#xe4;" horiz-adv-x="1208" 
d="M544 202c135 0 237 86 237 198v81l-223 -14c-125 -9 -186 -54 -186 -133c0 -82 71 -132 172 -132zM448 -17c-212 0 -361 130 -361 332c0 200 153 316 427 332l267 16v90c0 92 -66 144 -186 144c-105 0 -175 -36 -199 -102h-268c19 204 206 332 483 332
c292 0 457 -138 457 -374v-753h-282v144h-18c-57 -101 -177 -161 -320 -161zM377 1251c-90 0 -155 64 -155 152s65 151 155 151s155 -63 155 -151s-65 -152 -155 -152zM845 1251c-89 0 -155 64 -155 152s66 151 155 151c90 0 156 -63 156 -151s-66 -152 -156 -152z" />
    <glyph glyph-name="aring" unicode="&#xe5;" horiz-adv-x="1208" 
d="M544 202c135 0 237 86 237 198v81l-223 -14c-125 -9 -186 -54 -186 -133c0 -82 71 -132 172 -132zM448 -17c-212 0 -361 130 -361 332c0 200 153 316 427 332l267 16v90c0 92 -66 144 -186 144c-105 0 -175 -36 -199 -102h-268c19 204 206 332 483 332
c292 0 457 -138 457 -374v-753h-282v144h-18c-57 -101 -177 -161 -320 -161zM611 1251c-140 0 -246 102 -246 241c0 137 106 238 246 238s245 -101 245 -238c0 -139 -105 -241 -245 -241zM611 1387c61 0 105 44 105 104c0 59 -45 103 -105 103c-61 0 -106 -44 -106 -103
c0 -61 45 -104 106 -104z" />
    <glyph glyph-name="ae" unicode="&#xe6;" horiz-adv-x="1894" 
d="M1315 -24c-174 0 -323 78 -391 198h-18c-83 -121 -227 -198 -407 -198c-251 0 -412 139 -412 339s153 316 427 332l267 16v73c0 109 -73 161 -186 161c-111 0 -175 -36 -199 -102h-268c17 195 202 332 452 332c179 0 293 -63 357 -158h18c75 93 204 158 356 158
c304 0 492 -212 492 -549v-94h-747v-26c5 -156 106 -258 256 -258c105 0 174 38 212 114h269c-44 -208 -226 -338 -478 -338zM1293 904c-136 0 -229 -94 -237 -235h462c-6 140 -97 235 -225 235zM549 199c141 0 232 93 232 198v84l-223 -14c-125 -9 -186 -55 -186 -135
c0 -83 71 -133 177 -133z" />
    <glyph glyph-name="ccedilla" unicode="&#xe7;" horiz-adv-x="1203" 
d="M1122 714h-272c-20 105 -95 174 -219 174c-157 0 -245 -117 -245 -334c0 -220 89 -339 245 -339c119 0 197 58 219 167h272c-21 -220 -166 -370 -400 -400l-39 -94c126 -6 196 -69 196 -177c0 -127 -96 -204 -267 -204c-58 0 -110 7 -147 17v135c21 -8 77 -14 116 -14
c74 0 112 20 112 59s-38 56 -130 56h-60v115l44 105c-292 32 -455 235 -455 574c0 366 194 573 539 573c292 0 467 -162 491 -413z" />
    <glyph glyph-name="egrave" unicode="&#xe8;" horiz-adv-x="1231" 
d="M781 1281h-269l-287 353h309zM623 904c-135 0 -230 -94 -240 -237h470c-6 146 -94 237 -230 237zM859 314h271c-44 -208 -234 -338 -504 -338c-336 0 -534 212 -534 570c0 359 202 581 530 581c325 0 517 -207 517 -557v-89h-757v-15c4 -164 100 -266 252 -266
c115 0 194 41 225 114z" />
    <glyph glyph-name="eacute" unicode="&#xe9;" horiz-adv-x="1231" 
d="M467 1281l247 353h309l-287 -353h-269zM623 904c-135 0 -230 -94 -240 -237h470c-6 146 -94 237 -230 237zM859 314h271c-44 -208 -234 -338 -504 -338c-336 0 -534 212 -534 570c0 359 202 581 530 581c325 0 517 -207 517 -557v-89h-757v-15c4 -164 100 -266 252 -266
c115 0 194 41 225 114z" />
    <glyph glyph-name="ecircumflex" unicode="&#xea;" horiz-adv-x="1231" 
d="M767 1605l275 -354h-263l-148 209h-18l-149 -209h-263l275 354h291zM623 904c-135 0 -230 -94 -240 -237h470c-6 146 -94 237 -230 237zM859 314h271c-44 -208 -234 -338 -504 -338c-336 0 -534 212 -534 570c0 359 202 581 530 581c325 0 517 -207 517 -557v-89h-757
v-15c4 -164 100 -266 252 -266c115 0 194 41 225 114z" />
    <glyph glyph-name="edieresis" unicode="&#xeb;" horiz-adv-x="1231" 
d="M623 904c-135 0 -230 -94 -240 -237h470c-6 146 -94 237 -230 237zM859 314h271c-44 -208 -234 -338 -504 -338c-336 0 -534 212 -534 570c0 359 202 581 530 581c325 0 517 -207 517 -557v-89h-757v-15c4 -164 100 -266 252 -266c115 0 194 41 225 114zM388 1251
c-90 0 -155 64 -155 152s65 151 155 151s155 -63 155 -151s-65 -152 -155 -152zM856 1251c-89 0 -155 64 -155 152s66 151 155 151c90 0 156 -63 156 -151s-66 -152 -156 -152z" />
    <glyph glyph-name="igrave" unicode="&#xec;" horiz-adv-x="587" 
d="M453 1281h-269l-287 353h309zM148 0v1103h291v-1103h-291z" />
    <glyph glyph-name="iacute" unicode="&#xed;" horiz-adv-x="587" 
d="M139 1281l247 353h309l-287 -353h-269zM148 0v1103h291v-1103h-291z" />
    <glyph glyph-name="icircumflex" unicode="&#xee;" horiz-adv-x="587" 
d="M439 1605l275 -354h-263l-148 209h-18l-149 -209h-263l275 354h291zM148 0v1103h291v-1103h-291z" />
    <glyph glyph-name="idieresis" unicode="&#xef;" horiz-adv-x="587" 
d="M148 0v1103h291v-1103h-291zM60 1251c-90 0 -155 64 -155 152s65 151 155 151s155 -63 155 -151s-65 -152 -155 -152zM528 1251c-89 0 -155 64 -155 152s66 151 155 151c90 0 156 -63 156 -151s-66 -152 -156 -152z" />
    <glyph glyph-name="eth" unicode="&#xf0;" horiz-adv-x="1277" 
d="M638 -17c-327 0 -541 219 -541 553c0 307 186 517 458 517c120 0 230 -49 283 -125h17c-26 87 -91 194 -171 281l-285 -95l-55 143l228 76c-57 51 -132 107 -242 183h363c38 -28 81 -64 119 -100l265 89l57 -143l-205 -68c165 -195 253 -435 253 -690
c0 -377 -213 -621 -544 -621zM645 843c-153 0 -249 -120 -249 -309s96 -308 249 -308c154 0 250 118 250 308c0 188 -98 309 -250 309z" />
    <glyph glyph-name="ntilde" unicode="&#xf1;" horiz-adv-x="1285" 
d="M528 1397c-57 0 -87 -48 -88 -141h-187c0 193 104 321 261 321c151 0 200 -144 278 -144c57 0 87 45 88 138h187c0 -192 -103 -318 -261 -318c-151 0 -200 144 -278 144zM146 0v1103h282v-177h18c51 124 163 201 326 201c245 0 377 -150 377 -414v-713h-291v644
c0 152 -65 232 -203 232c-135 0 -218 -95 -218 -240v-636h-291z" />
    <glyph glyph-name="ograve" unicode="&#xf2;" horiz-adv-x="1269" 
d="M794 1281h-269l-287 353h309zM635 214c155 0 244 124 244 338c0 212 -90 337 -244 337c-155 0 -244 -125 -244 -337c0 -215 88 -338 244 -338zM635 -24c-339 0 -543 215 -543 576c0 357 207 575 543 575s543 -217 543 -575c0 -361 -204 -576 -543 -576z" />
    <glyph glyph-name="oacute" unicode="&#xf3;" horiz-adv-x="1269" 
d="M480 1281l247 353h309l-287 -353h-269zM635 214c155 0 244 124 244 338c0 212 -90 337 -244 337c-155 0 -244 -125 -244 -337c0 -215 88 -338 244 -338zM635 -24c-339 0 -543 215 -543 576c0 357 207 575 543 575s543 -217 543 -575c0 -361 -204 -576 -543 -576z" />
    <glyph glyph-name="ocircumflex" unicode="&#xf4;" horiz-adv-x="1269" 
d="M780 1605l275 -354h-263l-148 209h-18l-149 -209h-263l275 354h291zM635 214c155 0 244 124 244 338c0 212 -90 337 -244 337c-155 0 -244 -125 -244 -337c0 -215 88 -338 244 -338zM635 -24c-339 0 -543 215 -543 576c0 357 207 575 543 575s543 -217 543 -575
c0 -361 -204 -576 -543 -576z" />
    <glyph glyph-name="otilde" unicode="&#xf5;" horiz-adv-x="1269" 
d="M508 1397c-57 0 -87 -48 -88 -141h-187c0 193 104 321 261 321c151 0 200 -144 278 -144c57 0 87 45 88 138h187c0 -192 -103 -318 -261 -318c-151 0 -200 144 -278 144zM635 214c155 0 244 124 244 338c0 212 -90 337 -244 337c-155 0 -244 -125 -244 -337
c0 -215 88 -338 244 -338zM635 -24c-339 0 -543 215 -543 576c0 357 207 575 543 575s543 -217 543 -575c0 -361 -204 -576 -543 -576z" />
    <glyph glyph-name="odieresis" unicode="&#xf6;" horiz-adv-x="1269" 
d="M401 1251c-90 0 -155 64 -155 152s65 151 155 151s155 -63 155 -151s-65 -152 -155 -152zM869 1251c-89 0 -155 64 -155 152s66 151 155 151c90 0 156 -63 156 -151s-66 -152 -156 -152zM635 214c155 0 244 124 244 338c0 212 -90 337 -244 337
c-155 0 -244 -125 -244 -337c0 -215 88 -338 244 -338zM635 -24c-339 0 -543 215 -543 576c0 357 207 575 543 575s543 -217 543 -575c0 -361 -204 -576 -543 -576z" />
    <glyph glyph-name="divide" unicode="&#xf7;" horiz-adv-x="1415" 
d="M1248 472h-1080v225h1080v-225zM708 815c-99 0 -167 66 -167 162s68 161 167 161s167 -65 167 -161s-68 -162 -167 -162zM708 30c-99 0 -167 66 -167 162s68 162 167 162s167 -66 167 -162s-68 -162 -167 -162z" />
    <glyph glyph-name="oslash" unicode="&#xf8;" horiz-adv-x="1269" 
d="M841 755l-320 -513c33 -19 71 -28 114 -28c155 0 244 124 244 338c0 81 -13 149 -38 203zM436 333l324 520c-35 24 -77 36 -125 36c-155 0 -244 -125 -244 -337c0 -90 15 -164 45 -219zM1065 1114l-67 -107c115 -99 180 -255 180 -455c0 -361 -204 -576 -543 -576
c-94 0 -178 17 -249 48l-61 -97l-103 63l60 96c-122 98 -190 258 -190 466c0 357 207 575 543 575c99 0 187 -19 262 -55l62 100z" />
    <glyph glyph-name="ugrave" unicode="&#xf9;" horiz-adv-x="1290" 
d="M799 1281h-269l-287 353h309zM1144 1103v-1103h-282v177h-18c-52 -128 -155 -201 -322 -201c-238 0 -386 152 -386 408v719h291v-644c0 -152 69 -230 203 -230c145 0 223 91 223 238v636h291z" />
    <glyph glyph-name="uacute" unicode="&#xfa;" horiz-adv-x="1290" 
d="M485 1281l247 353h309l-287 -353h-269zM1144 1103v-1103h-282v177h-18c-52 -128 -155 -201 -322 -201c-238 0 -386 152 -386 408v719h291v-644c0 -152 69 -230 203 -230c145 0 223 91 223 238v636h291z" />
    <glyph glyph-name="ucircumflex" unicode="&#xfb;" horiz-adv-x="1290" 
d="M785 1605l275 -354h-263l-148 209h-18l-149 -209h-263l275 354h291zM1144 1103v-1103h-282v177h-18c-52 -128 -155 -201 -322 -201c-238 0 -386 152 -386 408v719h291v-644c0 -152 69 -230 203 -230c145 0 223 91 223 238v636h291z" />
    <glyph glyph-name="udieresis" unicode="&#xfc;" horiz-adv-x="1290" 
d="M1144 1103v-1103h-282v177h-18c-52 -128 -155 -201 -322 -201c-238 0 -386 152 -386 408v719h291v-644c0 -152 69 -230 203 -230c145 0 223 91 223 238v636h291zM406 1251c-90 0 -155 64 -155 152s65 151 155 151s155 -63 155 -151s-65 -152 -155 -152zM874 1251
c-89 0 -155 64 -155 152s66 151 155 151c90 0 156 -63 156 -151s-66 -152 -156 -152z" />
    <glyph glyph-name="yacute" unicode="&#xfd;" horiz-adv-x="1223" 
d="M283 -401c-11 0 -99 1 -111 3v234c10 -2 54 -2 66 -2c109 0 171 35 195 119l10 40l-387 1110h321l232 -836h18l232 836h308l-380 -1120c-94 -284 -229 -384 -504 -384zM461 1281l247 353h309l-287 -353h-269z" />
    <glyph glyph-name="thorn" unicode="&#xfe;" horiz-adv-x="1339" 
d="M790 1121c279 0 448 -212 448 -569c0 -356 -169 -569 -445 -569c-158 0 -279 69 -333 186h-18v-514h-291v1852h287v-585h18c60 124 183 199 334 199zM689 226c157 0 250 122 250 326c0 202 -94 325 -249 325s-251 -124 -251 -326s96 -325 250 -325z" />
    <glyph glyph-name="ydieresis" unicode="&#xff;" horiz-adv-x="1223" 
d="M283 -401c-11 0 -99 1 -111 3v234c10 -2 54 -2 66 -2c109 0 171 35 195 119l10 40l-387 1110h321l232 -836h18l232 836h308l-380 -1120c-94 -284 -229 -384 -504 -384zM382 1251c-90 0 -155 64 -155 152s65 151 155 151s155 -63 155 -151s-65 -152 -155 -152zM850 1251
c-89 0 -155 64 -155 152s66 151 155 151c90 0 156 -63 156 -151s-66 -152 -156 -152z" />
    <glyph glyph-name="Amacron" unicode="&#x100;" horiz-adv-x="1500" 
d="M1102 0l-109 344h-507l-111 -344h-303l501 1443h355l501 -1443h-327zM732 1143l-181 -566h378l-179 566h-18zM1123 1632h-746v181h746v-181z" />
    <glyph glyph-name="amacron" unicode="&#x101;" horiz-adv-x="1208" 
d="M544 202c135 0 237 86 237 198v81l-223 -14c-125 -9 -186 -54 -186 -133c0 -82 71 -132 172 -132zM448 -17c-212 0 -361 130 -361 332c0 200 153 316 427 332l267 16v90c0 92 -66 144 -186 144c-105 0 -175 -36 -199 -102h-268c19 204 206 332 483 332
c292 0 457 -138 457 -374v-753h-282v144h-18c-57 -101 -177 -161 -320 -161zM979 1316h-735v180h735v-180z" />
    <glyph glyph-name="Abreve" unicode="&#x102;" horiz-adv-x="1500" 
d="M1102 0l-109 344h-507l-111 -344h-303l501 1443h355l501 -1443h-327zM732 1143l-181 -566h378l-179 566h-18zM350 1915h208c2 -100 76 -164 192 -164s190 64 192 164h208c0 -198 -153 -336 -400 -336s-400 138 -400 336z" />
    <glyph glyph-name="abreve" unicode="&#x103;" horiz-adv-x="1208" 
d="M544 202c135 0 237 86 237 198v81l-223 -14c-125 -9 -186 -54 -186 -133c0 -82 71 -132 172 -132zM448 -17c-212 0 -361 130 -361 332c0 200 153 316 427 332l267 16v90c0 92 -66 144 -186 144c-105 0 -175 -36 -199 -102h-268c19 204 206 332 483 332
c292 0 457 -138 457 -374v-753h-282v144h-18c-57 -101 -177 -161 -320 -161zM211 1602h207c2 -107 73 -178 192 -178s190 71 192 178h208c0 -205 -152 -351 -400 -351s-399 146 -399 351z" />
    <glyph glyph-name="Aogonek" unicode="&#x104;" horiz-adv-x="1500" 
d="M732 1143l-181 -566h378l-179 566h-18zM1104 -7l-111 351h-507l-111 -344h-303l501 1443h355l501 -1443l-50 -6c-99 -22 -207 -95 -207 -184c0 -60 46 -96 118 -96c32 0 58 4 69 8v-167c-23 -9 -62 -21 -138 -21c-166 0 -275 95 -275 224c0 93 66 185 158 235z" />
    <glyph glyph-name="aogonek" unicode="&#x105;" horiz-adv-x="1208" 
d="M544 202c134 0 237 86 237 198v81l-223 -14c-124 -9 -186 -53 -186 -133s68 -132 172 -132zM619 -242c0 100 72 192 167 236v150h-18c-57 -101 -177 -161 -320 -161c-215 0 -361 133 -361 332s151 316 427 332l267 16v90c0 92 -67 144 -186 144
c-105 0 -175 -36 -199 -102h-268c19 204 206 332 483 332c290 0 457 -137 457 -374v-753l-36 -7c-106 -27 -187 -100 -187 -183c0 -56 42 -96 118 -96c29 0 57 3 69 8v-167c-27 -10 -67 -21 -138 -21c-163 0 -275 93 -275 224z" />
    <glyph glyph-name="Cacute" unicode="&#x106;" horiz-adv-x="1518" 
d="M647 1591l277 318h315l-314 -318h-278zM788 -37c-418 0 -677 289 -677 759c0 469 258 758 677 758c342 0 604 -227 626 -541h-294c-29 166 -160 275 -332 275c-227 0 -368 -188 -368 -492s141 -493 369 -493c173 0 303 102 332 261h294c-25 -312 -279 -527 -627 -527z
" />
    <glyph glyph-name="cacute" unicode="&#x107;" horiz-adv-x="1203" 
d="M1122 714h-272c-20 105 -95 174 -219 174c-157 0 -245 -117 -245 -334c0 -220 89 -339 245 -339c119 0 197 58 219 167h272c-24 -247 -204 -406 -491 -406c-344 0 -539 208 -539 578c0 366 194 573 539 573c292 0 467 -162 491 -413zM475 1281l247 353h309l-287 -353
h-269z" />
    <glyph glyph-name="Ccircumflex" unicode="&#x108;" horiz-adv-x="1518" 
d="M788 -37c-418 0 -677 289 -677 759c0 469 258 758 677 758c342 0 604 -227 626 -541h-294c-29 166 -160 275 -332 275c-227 0 -368 -188 -368 -492s141 -493 369 -493c173 0 303 102 332 261h294c-25 -312 -279 -527 -627 -527zM924 1926l284 -335h-265l-146 187h-18
l-146 -187h-265l284 335h272z" />
    <glyph glyph-name="ccircumflex" unicode="&#x109;" horiz-adv-x="1203" 
d="M775 1605l275 -354h-263l-148 209h-18l-149 -209h-263l275 354h291zM1122 714h-272c-20 105 -95 174 -219 174c-157 0 -245 -117 -245 -334c0 -220 89 -339 245 -339c119 0 197 58 219 167h272c-24 -247 -204 -406 -491 -406c-344 0 -539 208 -539 578
c0 366 194 573 539 573c292 0 467 -162 491 -413z" />
    <glyph glyph-name="Cdotaccent" unicode="&#x10a;" horiz-adv-x="1518" 
d="M788 1580c-93 0 -158 68 -158 158s65 158 158 158c92 0 157 -68 157 -158s-65 -158 -157 -158zM788 -37c-418 0 -677 289 -677 759c0 469 258 758 677 758c342 0 604 -227 626 -541h-294c-29 166 -160 275 -332 275c-227 0 -368 -188 -368 -492s141 -493 369 -493
c173 0 303 102 332 261h294c-25 -312 -279 -527 -627 -527z" />
    <glyph glyph-name="cdotaccent" unicode="&#x10b;" horiz-adv-x="1203" 
d="M1122 714h-272c-20 105 -95 174 -219 174c-157 0 -245 -117 -245 -334c0 -220 89 -339 245 -339c119 0 197 58 219 167h272c-24 -247 -204 -406 -491 -406c-344 0 -539 208 -539 578c0 366 194 573 539 573c292 0 467 -162 491 -413zM630 1278c-94 0 -161 69 -161 160
c0 92 67 161 161 161s161 -69 161 -161c0 -91 -67 -160 -161 -160z" />
    <glyph glyph-name="Ccaron" unicode="&#x10c;" horiz-adv-x="1518" 
d="M788 -37c-418 0 -677 289 -677 759c0 469 258 758 677 758c342 0 604 -227 626 -541h-294c-29 166 -160 275 -332 275c-227 0 -368 -188 -368 -492s141 -493 369 -493c173 0 303 102 332 261h294c-25 -312 -279 -527 -627 -527zM915 1591h-254l-281 318h253l145 -173h20
l145 173h253z" />
    <glyph glyph-name="ccaron" unicode="&#x10d;" horiz-adv-x="1203" 
d="M775 1251h-291l-275 354h263l149 -209h18l148 209h263zM1122 714h-272c-20 105 -95 174 -219 174c-157 0 -245 -117 -245 -334c0 -220 89 -339 245 -339c119 0 197 58 219 167h272c-24 -247 -204 -406 -491 -406c-344 0 -539 208 -539 578c0 366 194 573 539 573
c292 0 467 -162 491 -413z" />
    <glyph glyph-name="Dcaron" unicode="&#x10e;" horiz-adv-x="1530" 
d="M766 1590h-254l-281 318h253l145 -173h20l145 173h253zM175 1444h568c429 0 677 -260 677 -712c0 -469 -245 -732 -677 -732h-568v1444zM477 1186v-928h218c267 0 417 164 417 469c0 292 -155 459 -417 459h-218z" />
    <glyph glyph-name="dcaron" unicode="&#x10f;" horiz-adv-x="1535" 
d="M1314 1524h251l-50 -505h-201v505zM541 -17c-278 0 -449 218 -449 570c0 351 172 568 449 568c149 0 272 -72 329 -194h17v597h291v-1524h-282v173h-18c-59 -119 -184 -190 -337 -190zM640 877c-155 0 -249 -123 -249 -325c0 -204 93 -326 249 -326s250 123 250 325
c0 201 -95 326 -250 326z" />
    <glyph glyph-name="Dcroat" unicode="&#x110;" horiz-adv-x="1533" 
d="M480 258h218c267 0 417 164 417 469c0 292 -155 459 -417 459h-218v-341h225v-227h-225v-360zM178 1444h568c429 0 677 -260 677 -712c0 -469 -245 -732 -677 -732h-568v618h-128v227h128v599z" />
    <glyph glyph-name="dcroat" unicode="&#x111;" horiz-adv-x="1346" 
d="M652 226c156 0 250 123 250 325c0 201 -95 326 -250 326s-249 -123 -249 -325c0 -204 93 -326 249 -326zM1334 1408v-153h-144v-1255h-282v173h-18c-59 -119 -184 -190 -337 -190c-278 0 -449 218 -449 570c0 351 172 568 449 568c149 0 272 -72 329 -194h17v328h-233
v153h233v116h291v-116h144z" />
    <glyph glyph-name="Emacron" unicode="&#x112;" horiz-adv-x="1274" 
d="M1131 258v-258h-956v1443h956v-258h-654v-337h617v-239h-617v-351h654zM1026 1632h-746v181h746v-181z" />
    <glyph glyph-name="emacron" unicode="&#x113;" horiz-adv-x="1231" 
d="M623 904c-135 0 -230 -94 -240 -237h470c-6 146 -94 237 -230 237zM859 314h271c-44 -208 -234 -338 -504 -338c-336 0 -534 212 -534 570c0 359 202 581 530 581c325 0 517 -207 517 -557v-89h-757v-15c4 -164 100 -266 252 -266c115 0 194 41 225 114zM990 1316h-735
v180h735v-180z" />
    <glyph glyph-name="Ebreve" unicode="&#x114;" horiz-adv-x="1274" 
d="M1131 258v-258h-956v1443h956v-258h-654v-337h617v-239h-617v-351h654zM253 1915h208c2 -100 76 -164 192 -164s190 64 192 164h208c0 -198 -153 -336 -400 -336s-400 138 -400 336z" />
    <glyph glyph-name="ebreve" unicode="&#x115;" horiz-adv-x="1231" 
d="M623 904c-135 0 -230 -94 -240 -237h470c-6 146 -94 237 -230 237zM859 314h271c-44 -208 -234 -338 -504 -338c-336 0 -534 212 -534 570c0 359 202 581 530 581c325 0 517 -207 517 -557v-89h-757v-15c4 -164 100 -266 252 -266c115 0 194 41 225 114zM222 1602h207
c2 -107 73 -178 192 -178s190 71 192 178h208c0 -205 -152 -351 -400 -351s-399 146 -399 351z" />
    <glyph glyph-name="Edotaccent" unicode="&#x116;" horiz-adv-x="1274" 
d="M653 1579c-93 0 -158 68 -158 158s65 158 158 158c92 0 157 -68 157 -158s-65 -158 -157 -158zM1131 258v-258h-956v1443h956v-258h-654v-337h617v-239h-617v-351h654z" />
    <glyph glyph-name="edotaccent" unicode="&#x117;" horiz-adv-x="1231" 
d="M622 1278c-94 0 -161 69 -161 160c0 92 67 161 161 161s161 -69 161 -161c0 -91 -67 -160 -161 -160zM623 904c-135 0 -230 -94 -240 -237h470c-6 146 -94 237 -230 237zM859 314h271c-44 -208 -234 -338 -504 -338c-336 0 -534 212 -534 570c0 359 202 581 530 581
c325 0 517 -207 517 -557v-89h-757v-15c4 -164 100 -266 252 -266c115 0 194 41 225 114z" />
    <glyph glyph-name="Eogonek" unicode="&#x118;" horiz-adv-x="1274" 
d="M809 0h-634v1443h956v-258h-654v-337h617v-239h-617v-351h654v-253l-46 -11c-90 -24 -192 -95 -192 -184c0 -60 47 -96 118 -96c32 0 59 4 69 8v-167c-23 -9 -62 -21 -138 -21c-165 0 -274 95 -274 224c0 91 58 177 141 224v18z" />
    <glyph glyph-name="eogonek" unicode="&#x119;" horiz-adv-x="1231" 
d="M623 904c-135 0 -230 -94 -240 -237h470c-6 146 -94 237 -230 237zM570 -242c0 83 51 162 131 208v18c-13 -4 -50 -8 -75 -8c-336 0 -534 212 -534 570c0 359 202 581 530 581c325 0 517 -207 517 -557v-89h-757v-15c4 -164 100 -266 252 -266c115 0 194 41 225 114h271
c-13 -85 -85 -200 -176 -274c-108 -87 -159 -155 -159 -225c0 -65 47 -101 118 -101c32 0 59 4 69 8v-167c-23 -9 -62 -21 -138 -21c-165 0 -274 95 -274 224z" />
    <glyph glyph-name="Ecaron" unicode="&#x11a;" horiz-adv-x="1274" 
d="M780 1590h-254l-281 318h253l145 -173h20l145 173h253zM1131 258v-258h-956v1443h956v-258h-654v-337h617v-239h-617v-351h654z" />
    <glyph glyph-name="ecaron" unicode="&#x11b;" horiz-adv-x="1231" 
d="M767 1251h-291l-275 354h263l149 -209h18l148 209h263zM623 904c-135 0 -230 -94 -240 -237h470c-6 146 -94 237 -230 237zM859 314h271c-44 -208 -234 -338 -504 -338c-336 0 -534 212 -534 570c0 359 202 581 530 581c325 0 517 -207 517 -557v-89h-757v-15
c4 -164 100 -266 252 -266c115 0 194 41 225 114z" />
    <glyph glyph-name="Gcircumflex" unicode="&#x11c;" horiz-adv-x="1557" 
d="M932 1926l284 -335h-265l-146 187h-18l-146 -187h-265l284 335h272zM1443 589c0 -386 -246 -626 -640 -626c-429 0 -692 288 -692 760c0 465 265 757 685 757c341 0 592 -197 634 -497h-300c-45 146 -166 231 -334 231c-233 0 -376 -185 -376 -488
c0 -309 150 -497 388 -497c198 0 335 117 341 291l1 26h-313v227h606v-184z" />
    <glyph glyph-name="gcircumflex" unicode="&#x11d;" horiz-adv-x="1322" 
d="M789 1605l275 -354h-263l-148 209h-18l-149 -209h-263l275 354h291zM888 561c0 194 -95 316 -252 316s-248 -122 -248 -315c0 -195 90 -316 248 -316s252 121 252 315zM632 -418c-293 0 -487 129 -505 323h288c15 -68 97 -111 223 -111c156 0 247 72 247 196v204h-18
c-61 -116 -177 -178 -332 -178c-275 0 -446 213 -446 545c0 342 172 560 452 560c149 0 276 -74 335 -195h18v177h282v-1099c0 -259 -211 -422 -544 -422z" />
    <glyph glyph-name="Gbreve" unicode="&#x11e;" horiz-adv-x="1557" 
d="M1443 589c0 -386 -246 -626 -640 -626c-429 0 -692 288 -692 760c0 465 265 757 685 757c341 0 592 -197 634 -497h-300c-45 146 -166 231 -334 231c-233 0 -376 -185 -376 -488c0 -309 150 -497 388 -497c198 0 335 117 341 291l1 26h-313v227h606v-184zM396 1916h208
c2 -100 76 -164 192 -164s190 64 192 164h208c0 -198 -153 -336 -400 -336s-400 138 -400 336z" />
    <glyph glyph-name="gbreve" unicode="&#x11f;" horiz-adv-x="1322" 
d="M244 1602h207c2 -107 73 -178 192 -178s190 71 192 178h208c0 -205 -152 -351 -400 -351s-399 146 -399 351zM888 561c0 194 -95 316 -252 316s-248 -122 -248 -315c0 -195 90 -316 248 -316s252 121 252 315zM632 -418c-293 0 -487 129 -505 323h288
c15 -68 97 -111 223 -111c156 0 247 72 247 196v204h-18c-61 -116 -177 -178 -332 -178c-275 0 -446 213 -446 545c0 342 172 560 452 560c149 0 276 -74 335 -195h18v177h282v-1099c0 -259 -211 -422 -544 -422z" />
    <glyph glyph-name="Gdotaccent" unicode="&#x120;" horiz-adv-x="1557" 
d="M796 1580c-93 0 -158 68 -158 158s65 158 158 158c92 0 157 -68 157 -158s-65 -158 -157 -158zM1443 589c0 -386 -246 -626 -640 -626c-429 0 -692 288 -692 760c0 465 265 757 685 757c341 0 592 -197 634 -497h-300c-45 146 -166 231 -334 231
c-233 0 -376 -185 -376 -488c0 -309 150 -497 388 -497c198 0 335 117 341 291l1 26h-313v227h606v-184z" />
    <glyph glyph-name="gdotaccent" unicode="&#x121;" horiz-adv-x="1322" 
d="M644 1278c-94 0 -161 69 -161 160c0 92 67 161 161 161s161 -69 161 -161c0 -91 -67 -160 -161 -160zM888 561c0 194 -95 316 -252 316s-248 -122 -248 -315c0 -195 90 -316 248 -316s252 121 252 315zM632 -418c-293 0 -487 129 -505 323h288c15 -68 97 -111 223 -111
c156 0 247 72 247 196v204h-18c-61 -116 -177 -178 -332 -178c-275 0 -446 213 -446 545c0 342 172 560 452 560c149 0 276 -74 335 -195h18v177h282v-1099c0 -259 -211 -422 -544 -422z" />
    <glyph glyph-name="Gcommaaccent" unicode="&#x122;" horiz-adv-x="1557" 
d="M807 -509h-258l132 358h292zM1443 589c0 -386 -246 -626 -640 -626c-429 0 -692 288 -692 760c0 465 265 757 685 757c341 0 592 -197 634 -497h-300c-45 146 -166 231 -334 231c-233 0 -376 -185 -376 -488c0 -309 150 -497 388 -497c198 0 335 117 341 291l1 26h-313
v227h606v-184z" />
    <glyph glyph-name="gcommaaccent" unicode="&#x123;" horiz-adv-x="1322" 
d="M669 1649h258l-132 -358h-292zM888 561c0 194 -95 316 -252 316s-248 -122 -248 -315c0 -195 90 -316 248 -316s252 121 252 315zM632 -418c-293 0 -487 129 -505 323h288c15 -68 97 -111 223 -111c156 0 247 72 247 196v204h-18c-61 -116 -177 -178 -332 -178
c-275 0 -446 213 -446 545c0 342 172 560 452 560c149 0 276 -74 335 -195h18v177h282v-1099c0 -259 -211 -422 -544 -422z" />
    <glyph glyph-name="Hcircumflex" unicode="&#x124;" horiz-adv-x="1604" 
d="M1429 0h-302v603h-650v-603h-302v1443h302v-582h650v582h302v-1443zM938 1925l284 -335h-265l-146 187h-18l-146 -187h-265l284 335h272z" />
    <glyph glyph-name="hcircumflex" unicode="&#x125;" horiz-adv-x="1307" 
d="M156 0v1524h286v-602h18c51 126 171 202 333 202c237 0 378 -149 378 -414v-710h-291v641c0 153 -71 232 -203 232c-146 0 -230 -97 -230 -240v-633h-291zM435 2006l284 -335h-265l-146 187h-18l-146 -187h-265l284 335h272z" />
    <glyph glyph-name="Hbar" unicode="&#x126;" horiz-adv-x="1604" 
d="M1127 861v194h-650v-194h650zM1557 1261v-206h-128v-1055h-302v603h-650v-603h-302v1055h-128v206h128v182h302v-182h650v182h302v-182h128z" />
    <glyph glyph-name="hbar" unicode="&#x127;" horiz-adv-x="1307" 
d="M442 922h18c51 126 171 202 333 202c237 0 378 -149 378 -414v-710h-291v641c0 153 -71 232 -203 232c-146 0 -230 -97 -230 -240v-633h-291v1255h-144v153h144v116h286v-116h233v-153h-233v-333z" />
    <glyph glyph-name="Itilde" unicode="&#x128;" horiz-adv-x="652" 
d="M477 0h-302v1443h302v-1443zM485 1577c-162 0 -200 138 -295 138c-50 0 -83 -35 -86 -128h-184c0 198 103 309 247 309c168 0 210 -138 295 -138c46 0 82 30 87 124h183c0 -192 -103 -305 -247 -305z" />
    <glyph glyph-name="itilde" unicode="&#x129;" horiz-adv-x="587" 
d="M148 0v1103h291v-1103h-291zM167 1397c-57 0 -87 -48 -88 -141h-187c0 193 104 321 261 321c151 0 200 -144 278 -144c57 0 87 45 88 138h187c0 -192 -103 -318 -261 -318c-151 0 -200 144 -278 144z" />
    <glyph glyph-name="Imacron" unicode="&#x12a;" horiz-adv-x="652" 
d="M477 0h-302v1443h302v-1443zM699 1632h-746v181h746v-181z" />
    <glyph glyph-name="imacron" unicode="&#x12b;" horiz-adv-x="587" 
d="M148 0v1103h291v-1103h-291zM662 1316h-735v180h735v-180z" />
    <glyph glyph-name="Ibreve" unicode="&#x12c;" horiz-adv-x="652" 
d="M477 0h-302v1443h302v-1443zM-74 1915h208c2 -100 76 -164 192 -164s190 64 192 164h208c0 -198 -153 -336 -400 -336s-400 138 -400 336z" />
    <glyph glyph-name="ibreve" unicode="&#x12d;" horiz-adv-x="587" 
d="M148 0v1103h291v-1103h-291zM-106 1602h207c2 -107 73 -178 192 -178s190 71 192 178h208c0 -205 -152 -351 -400 -351s-399 146 -399 351z" />
    <glyph glyph-name="Iogonek" unicode="&#x12e;" horiz-adv-x="652" 
d="M175 1443h302v-1443l-22 -6c-92 -35 -171 -99 -171 -179c0 -60 45 -101 123 -101c25 0 52 3 69 8v-167c-32 -12 -71 -21 -143 -21c-162 0 -274 93 -274 224c0 87 46 163 116 209v1476z" />
    <glyph glyph-name="iogonek" unicode="&#x12f;" horiz-adv-x="587" 
d="M294 1257c-105 0 -172 61 -172 147c0 87 67 147 172 147c104 0 172 -60 172 -147c0 -86 -68 -147 -172 -147zM148 -20v1123h291v-1103l-32 -6c-93 -32 -161 -99 -161 -179c0 -64 50 -101 123 -101c27 0 49 3 69 7v-166c-30 -12 -80 -21 -135 -21c-174 0 -282 96 -282 229
c0 83 46 163 127 217z" />
    <glyph glyph-name="Idotaccent" unicode="&#x130;" horiz-adv-x="652" 
d="M477 0h-302v1443h302v-1443zM326 1579c-93 0 -158 68 -158 158s65 158 158 158c92 0 157 -68 157 -158s-65 -158 -157 -158z" />
    <glyph glyph-name="dotlessi" unicode="&#x131;" horiz-adv-x="587" 
d="M148 0v1103h291v-1103h-291z" />
    <glyph glyph-name="u0132" unicode="&#x132;" horiz-adv-x="1883" 
d="M477 0h-302v1443h302v-1443zM728 424h292c2 -116 78 -191 194 -191c124 0 192 75 192 217v993h302v-995c0 -311 -184 -485 -490 -485c-296 0 -490 178 -490 461z" />
    <glyph glyph-name="u0133" unicode="&#x133;" horiz-adv-x="1194" 
d="M148 0v1103h291v-1103h-291zM294 1257c-105 0 -172 61 -172 147c0 87 67 147 172 147c104 0 172 -60 172 -147c0 -86 -68 -147 -172 -147zM1036 1103v-1137c0 -226 -135 -342 -390 -342c-21 0 -66 2 -78 4v223c6 -1 28 -1 37 -1c102 0 140 36 140 124v1129h291zM891 1257
c-105 0 -172 61 -172 147c0 87 67 147 172 147c104 0 172 -60 172 -147c0 -86 -68 -147 -172 -147z" />
    <glyph glyph-name="Jcircumflex" unicode="&#x134;" horiz-adv-x="1231" 
d="M76 424h292c2 -116 78 -191 194 -191c124 0 192 75 192 217v993h302v-995c0 -311 -184 -485 -490 -485c-296 0 -490 178 -490 461zM1041 1925l284 -335h-265l-146 187h-18l-146 -187h-265l284 335h272z" />
    <glyph glyph-name="jcircumflex" unicode="&#x135;" horiz-adv-x="587" 
d="M436 1103v-1137c0 -226 -135 -342 -390 -342c-21 0 -66 2 -78 4v223c6 -1 28 -1 37 -1c102 0 140 36 140 124v1129h291zM440 1605l275 -354h-263l-148 209h-18l-149 -209h-263l275 354h291z" />
    <glyph glyph-name="Kcommaaccent" unicode="&#x136;" horiz-adv-x="1453" 
d="M477 0h-302v1443h302v-643h18l533 643h336l-526 -633l563 -810h-362l-419 604l-143 -169v-435zM696 -509h-258l132 358h292z" />
    <glyph glyph-name="kcommaaccent" unicode="&#x137;" horiz-adv-x="1232" 
d="M465 672l369 431h331l-420 -473l449 -630h-345l-322 448l-80 -82v-366h-291v1524h291v-852h18zM645 -509h-258l132 358h292z" />
    <glyph glyph-name="Lacute" unicode="&#x139;" horiz-adv-x="1218" 
d="M185 1590l277 318h315l-314 -318h-278zM1119 263v-263h-944v1443h302v-1180h642z" />
    <glyph glyph-name="lacute" unicode="&#x13a;" horiz-adv-x="603" 
d="M161 1671l277 318h315l-314 -318h-278zM156 0v1524h291v-1524h-291z" />
    <glyph glyph-name="Lcommaaccent" unicode="&#x13b;" horiz-adv-x="1218" 
d="M636 -509h-258l132 358h292zM1119 263v-263h-944v1443h302v-1180h642z" />
    <glyph glyph-name="lcommaaccent" unicode="&#x13c;" horiz-adv-x="603" 
d="M296 -509h-258l132 358h292zM156 0v1524h291v-1524h-291z" />
    <glyph glyph-name="Lcaron" unicode="&#x13d;" horiz-adv-x="1218" 
d="M675 1443h246l-50 -504h-196v504zM1119 263v-263h-944v1443h302v-1180h642z" />
    <glyph glyph-name="lcaron" unicode="&#x13e;" horiz-adv-x="804" 
d="M583 1524h251l-50 -505h-201v505zM156 0v1524h291v-1524h-291z" />
    <glyph glyph-name="Lslash" unicode="&#x141;" horiz-adv-x="1218" 
d="M477 263h642v-263h-944v661l-152 -78v205l152 78v577h302v-423l238 122v-205l-238 -122v-552z" />
    <glyph glyph-name="lslash" unicode="&#x142;" horiz-adv-x="603" 
d="M571 1094v-205l-124 -66v-823h-291v668l-124 -66v205l124 66v651h291v-496z" />
    <glyph glyph-name="Nacute" unicode="&#x143;" horiz-adv-x="1573" 
d="M642 1590l277 318h315l-314 -318h-278zM464 0h-289v1443h252l664 -899h18v899h289v-1443h-250l-666 903h-18v-903z" />
    <glyph glyph-name="nacute" unicode="&#x144;" horiz-adv-x="1285" 
d="M500 1281l247 353h309l-287 -353h-269zM146 0v1103h282v-177h18c51 124 163 201 326 201c245 0 377 -150 377 -414v-713h-291v644c0 152 -65 232 -203 232c-135 0 -218 -95 -218 -240v-636h-291z" />
    <glyph glyph-name="Ncommaaccent" unicode="&#x145;" horiz-adv-x="1573" 
d="M777 -509h-258l132 358h292zM464 0h-289v1443h252l664 -899h18v899h289v-1443h-250l-666 903h-18v-903z" />
    <glyph glyph-name="ncommaaccent" unicode="&#x146;" horiz-adv-x="1285" 
d="M649 -509h-258l132 358h292zM146 0v1103h282v-177h18c51 124 163 201 326 201c245 0 377 -150 377 -414v-713h-291v644c0 152 -65 232 -203 232c-135 0 -218 -95 -218 -240v-636h-291z" />
    <glyph glyph-name="Ncaron" unicode="&#x147;" horiz-adv-x="1573" 
d="M910 1590h-254l-281 318h253l145 -173h20l145 173h253zM464 0h-289v1443h252l664 -899h18v899h289v-1443h-250l-666 903h-18v-903z" />
    <glyph glyph-name="ncaron" unicode="&#x148;" horiz-adv-x="1285" 
d="M800 1251h-291l-275 354h263l149 -209h18l148 209h263zM146 0v1103h282v-177h18c51 124 163 201 326 201c245 0 377 -150 377 -414v-713h-291v644c0 152 -65 232 -203 232c-135 0 -218 -95 -218 -240v-636h-291z" />
    <glyph glyph-name="Omacron" unicode="&#x14c;" horiz-adv-x="1610" 
d="M806 1480c426 0 693 -291 693 -758c0 -468 -266 -759 -693 -759c-428 0 -695 291 -695 759s271 758 695 758zM806 1215c-234 0 -386 -191 -386 -493c0 -301 149 -494 386 -494c235 0 385 193 385 494c0 302 -150 493 -385 493zM1179 1632h-746v181h746v-181z" />
    <glyph glyph-name="omacron" unicode="&#x14d;" horiz-adv-x="1269" 
d="M1003 1316h-735v180h735v-180zM635 214c155 0 244 124 244 338c0 212 -90 337 -244 337c-155 0 -244 -125 -244 -337c0 -215 88 -338 244 -338zM635 -24c-339 0 -543 215 -543 576c0 357 207 575 543 575s543 -217 543 -575c0 -361 -204 -576 -543 -576z" />
    <glyph glyph-name="Obreve" unicode="&#x14e;" horiz-adv-x="1610" 
d="M806 1480c426 0 693 -291 693 -758c0 -468 -266 -759 -693 -759c-428 0 -695 291 -695 759s271 758 695 758zM806 1215c-234 0 -386 -191 -386 -493c0 -301 149 -494 386 -494c235 0 385 193 385 494c0 302 -150 493 -385 493zM406 1915h208c2 -100 76 -164 192 -164
s190 64 192 164h208c0 -198 -153 -336 -400 -336s-400 138 -400 336z" />
    <glyph glyph-name="obreve" unicode="&#x14f;" horiz-adv-x="1269" 
d="M235 1602h207c2 -107 73 -178 192 -178s190 71 192 178h208c0 -205 -152 -351 -400 -351s-399 146 -399 351zM635 214c155 0 244 124 244 338c0 212 -90 337 -244 337c-155 0 -244 -125 -244 -337c0 -215 88 -338 244 -338zM635 -24c-339 0 -543 215 -543 576
c0 357 207 575 543 575s543 -217 543 -575c0 -361 -204 -576 -543 -576z" />
    <glyph glyph-name="Ohungarumlaut" unicode="&#x150;" horiz-adv-x="1610" 
d="M875 1590l252 318h270l-278 -318h-244zM438 1590l251 318h271l-278 -318h-244zM806 1480c426 0 693 -291 693 -758c0 -468 -266 -759 -693 -759c-428 0 -695 291 -695 759s271 758 695 758zM806 1215c-234 0 -386 -191 -386 -493c0 -301 149 -494 386 -494
c235 0 385 193 385 494c0 302 -150 493 -385 493z" />
    <glyph glyph-name="ohungarumlaut" unicode="&#x151;" horiz-adv-x="1269" 
d="M712 1281l212 353h259l-242 -353h-229zM276 1281l212 353h259l-242 -353h-229zM635 214c155 0 244 124 244 338c0 212 -90 337 -244 337c-155 0 -244 -125 -244 -337c0 -215 88 -338 244 -338zM635 -24c-339 0 -543 215 -543 576c0 357 207 575 543 575
s543 -217 543 -575c0 -361 -204 -576 -543 -576z" />
    <glyph glyph-name="OE" unicode="&#x152;" horiz-adv-x="2271" 
d="M821 1215c-239 0 -391 -192 -391 -493c0 -303 151 -494 391 -494c234 0 381 192 381 494s-147 493 -381 493zM1254 0v232h-18c-73 -161 -259 -269 -465 -269c-407 0 -650 283 -650 759s243 758 650 758c203 0 396 -109 465 -262h18v225h916v-258h-663v-337h626v-239h-626
v-351h663v-258h-916z" />
    <glyph glyph-name="oe" unicode="&#x153;" horiz-adv-x="2017" 
d="M1427 -24c-172 0 -319 71 -393 186h-18c-73 -114 -215 -186 -390 -186c-327 0 -529 220 -529 574c0 358 201 577 530 577c172 0 310 -68 390 -190h18c77 119 218 190 391 190c304 0 501 -216 501 -557v-88h-757v-16c4 -164 101 -266 252 -266c114 0 194 40 225 114h269
c-44 -208 -235 -338 -489 -338zM1411 904c-135 0 -230 -93 -240 -237h470c-6 146 -94 237 -230 237zM640 214c155 0 244 123 244 337c0 213 -90 338 -244 338s-244 -125 -244 -338c0 -214 89 -337 244 -337z" />
    <glyph glyph-name="Racute" unicode="&#x154;" horiz-adv-x="1422" 
d="M511 1590l277 318h315l-314 -318h-278zM477 1199v-444h265c152 0 241 82 241 221c0 137 -94 223 -244 223h-262zM477 523v-523h-302v1443h606c317 0 512 -176 512 -463c0 -184 -96 -344 -262 -410l304 -570h-342l-269 523h-247z" />
    <glyph glyph-name="racute" unicode="&#x155;" horiz-adv-x="881" 
d="M293 1281l247 353h309l-287 -353h-269zM146 0v1103h282v-176h18c29 110 143 194 283 194c40 0 89 -5 114 -14v-265c-23 9 -91 18 -138 18c-159 0 -268 -94 -268 -249v-611h-291z" />
    <glyph glyph-name="Rcommaaccent" unicode="&#x156;" horiz-adv-x="1422" 
d="M477 1199v-444h265c152 0 241 82 241 221c0 137 -94 223 -244 223h-262zM477 523v-523h-302v1443h606c317 0 512 -176 512 -463c0 -184 -96 -344 -262 -410l304 -570h-342l-269 523h-247zM646 -509h-258l132 358h292z" />
    <glyph glyph-name="rcommaaccent" unicode="&#x157;" horiz-adv-x="881" 
d="M146 0v1103h282v-176h18c29 110 143 194 283 194c40 0 89 -5 114 -14v-265c-23 9 -91 18 -138 18c-159 0 -268 -94 -268 -249v-611h-291zM283 -509h-258l132 358h292z" />
    <glyph glyph-name="Rcaron" unicode="&#x158;" horiz-adv-x="1422" 
d="M477 1199v-444h265c152 0 241 82 241 221c0 137 -94 223 -244 223h-262zM477 523v-523h-302v1443h606c317 0 512 -176 512 -463c0 -184 -96 -344 -262 -410l304 -570h-342l-269 523h-247zM779 1590h-254l-281 318h253l145 -173h20l145 173h253z" />
    <glyph glyph-name="rcaron" unicode="&#x159;" horiz-adv-x="881" 
d="M593 1251h-291l-275 354h263l149 -209h18l148 209h263zM146 0v1103h282v-176h18c29 110 143 194 283 194c40 0 89 -5 114 -14v-265c-23 9 -91 18 -138 18c-159 0 -268 -94 -268 -249v-611h-291z" />
    <glyph glyph-name="Sacute" unicode="&#x15a;" horiz-adv-x="1383" 
d="M555 1590l277 318h315l-314 -318h-278zM110 401h292c14 -117 132 -192 302 -192c157 0 268 76 268 185c0 92 -72 145 -249 183l-188 40c-263 55 -392 192 -392 412c0 272 219 451 552 451c318 0 543 -178 552 -435h-284c-14 114 -120 190 -266 190
c-151 0 -251 -70 -251 -180c0 -89 69 -140 238 -176l174 -37c290 -61 415 -186 415 -410c0 -291 -223 -469 -585 -469c-344 0 -567 169 -578 438z" />
    <glyph glyph-name="sacute" unicode="&#x15b;" horiz-adv-x="1160" 
d="M121 779c0 209 184 348 459 348c280 0 445 -117 461 -328h-269c-15 71 -82 115 -190 115c-104 0 -181 -47 -181 -117c0 -54 47 -87 149 -110l207 -45c214 -47 310 -137 310 -302c0 -220 -197 -364 -486 -364c-291 0 -467 119 -487 331h284c22 -75 93 -118 209 -118
c113 0 191 47 191 118c0 54 -42 87 -139 108l-200 45c-214 47 -318 149 -318 319zM425 1281l247 353h309l-287 -353h-269z" />
    <glyph glyph-name="Scircumflex" unicode="&#x15c;" horiz-adv-x="1383" 
d="M110 401h292c14 -117 132 -192 302 -192c157 0 268 76 268 185c0 92 -72 145 -249 183l-188 40c-263 55 -392 192 -392 412c0 272 219 451 552 451c318 0 543 -178 552 -435h-284c-14 114 -120 190 -266 190c-151 0 -251 -70 -251 -180c0 -89 69 -140 238 -176l174 -37
c290 -61 415 -186 415 -410c0 -291 -223 -469 -585 -469c-344 0 -567 169 -578 438zM832 1925l284 -335h-265l-146 187h-18l-146 -187h-265l284 335h272z" />
    <glyph glyph-name="scircumflex" unicode="&#x15d;" horiz-adv-x="1160" 
d="M725 1605l275 -354h-263l-148 209h-18l-149 -209h-263l275 354h291zM121 779c0 209 184 348 459 348c280 0 445 -117 461 -328h-269c-15 71 -82 115 -190 115c-104 0 -181 -47 -181 -117c0 -54 47 -87 149 -110l207 -45c214 -47 310 -137 310 -302
c0 -220 -197 -364 -486 -364c-291 0 -467 119 -487 331h284c22 -75 93 -118 209 -118c113 0 191 47 191 118c0 54 -42 87 -139 108l-200 45c-214 47 -318 149 -318 319z" />
    <glyph glyph-name="Scedilla" unicode="&#x15e;" horiz-adv-x="1383" 
d="M684 879l174 -37c290 -61 415 -186 415 -410c0 -268 -189 -440 -500 -466l-33 -79c126 -6 196 -69 196 -177c0 -127 -96 -204 -267 -204c-58 0 -110 7 -147 17v135c21 -8 77 -14 116 -14c74 0 112 20 112 59s-38 56 -130 56h-60v115l39 93c-293 27 -479 189 -489 434h292
c14 -117 132 -192 302 -192c157 0 268 76 268 185c0 92 -72 145 -249 183l-188 40c-263 55 -392 192 -392 412c0 272 219 451 552 451c318 0 543 -178 552 -435h-284c-14 114 -120 190 -266 190c-151 0 -251 -70 -251 -180c0 -89 69 -140 238 -176z" />
    <glyph glyph-name="scedilla" unicode="&#x15f;" horiz-adv-x="1160" 
d="M550 687l207 -45c214 -47 310 -137 310 -302c0 -196 -157 -332 -396 -359l-38 -93c126 -6 196 -69 196 -177c0 -127 -96 -204 -267 -204c-58 0 -110 7 -147 17v135c21 -8 77 -14 116 -14c74 0 112 20 112 59s-38 56 -130 56h-60v115l44 105c-241 21 -385 136 -403 327
h284c22 -75 93 -118 209 -118c113 0 191 47 191 118c0 54 -42 87 -139 108l-200 45c-214 47 -318 149 -318 319c0 209 184 348 459 348c280 0 445 -117 461 -328h-269c-15 71 -82 115 -190 115c-104 0 -181 -47 -181 -117c0 -54 47 -87 149 -110z" />
    <glyph glyph-name="Scaron" unicode="&#x160;" horiz-adv-x="1383" 
d="M110 401h292c14 -117 132 -192 302 -192c157 0 268 76 268 185c0 92 -72 145 -249 183l-188 40c-263 55 -392 192 -392 412c0 272 219 451 552 451c318 0 543 -178 552 -435h-284c-14 114 -120 190 -266 190c-151 0 -251 -70 -251 -180c0 -89 69 -140 238 -176l174 -37
c290 -61 415 -186 415 -410c0 -291 -223 -469 -585 -469c-344 0 -567 169 -578 438zM823 1590h-254l-281 318h253l145 -173h20l145 173h253z" />
    <glyph glyph-name="scaron" unicode="&#x161;" horiz-adv-x="1160" 
d="M725 1251h-291l-275 354h263l149 -209h18l148 209h263zM121 779c0 209 184 348 459 348c280 0 445 -117 461 -328h-269c-15 71 -82 115 -190 115c-104 0 -181 -47 -181 -117c0 -54 47 -87 149 -110l207 -45c214 -47 310 -137 310 -302c0 -220 -197 -364 -486 -364
c-291 0 -467 119 -487 331h284c22 -75 93 -118 209 -118c113 0 191 47 191 118c0 54 -42 87 -139 108l-200 45c-214 47 -318 149 -318 319z" />
    <glyph glyph-name="Tcedilla" unicode="&#x162;" horiz-adv-x="1352" 
d="M827 0h-53l-46 -112c126 -6 196 -69 196 -177c0 -127 -96 -204 -267 -204c-58 0 -110 7 -147 17v135c21 -8 77 -14 116 -14c74 0 112 20 112 59s-38 56 -130 56h-60v115l52 125h-75v1185h-433v258h1168v-258h-433v-1185z" />
    <glyph glyph-name="tcedilla" unicode="&#x163;" horiz-adv-x="845" 
d="M463 -493c-58 0 -110 6 -147 17v134c21 -7 77 -14 116 -14c74 0 112 20 112 59c0 40 -38 56 -130 56h-60v116l60 144c-131 37 -185 125 -185 279v565h-172v229h172v273h291v-273h229v-229h-229v-496c0 -96 44 -140 143 -140c38 0 57 1 85 4v-222c-36 -7 -89 -13 -142 -13
c-10 0 -18 1 -27 1l-45 -109c126 -7 196 -69 196 -177c0 -128 -96 -204 -267 -204z" />
    <glyph glyph-name="Tcaron" unicode="&#x164;" horiz-adv-x="1352" 
d="M800 1590h-254l-281 318h253l145 -173h20l145 173h253zM827 0h-302v1185h-433v258h1168v-258h-433v-1185z" />
    <glyph glyph-name="tcaron" unicode="&#x165;" horiz-adv-x="845" 
d="M824 1231h-201v504h251zM229 1365h291v-273h229v-229h-229v-496c0 -96 44 -140 143 -140c38 0 58 1 86 4v-222c-36 -7 -90 -13 -146 -13c-268 0 -374 87 -374 302v565h-172v229h172v273z" />
    <glyph glyph-name="Tbar" unicode="&#x166;" horiz-adv-x="1352" 
d="M1260 1185h-433v-384h281v-218h-281v-583h-302v583h-286v218h286v384h-433v258h1168v-258z" />
    <glyph glyph-name="tbar" unicode="&#x167;" horiz-adv-x="843" 
d="M763 492h-243v-125c0 -96 44 -140 143 -140c38 0 58 1 86 4v-222c-36 -7 -90 -13 -146 -13c-268 0 -374 87 -374 302v194h-173v162h173v209h-172v229h172v273h291v-273h229v-229h-229v-209h243v-162z" />
    <glyph glyph-name="Utilde" unicode="&#x168;" horiz-adv-x="1565" 
d="M480 1443v-914c0 -182 109 -298 302 -298c194 0 303 116 303 298v914h302v-945c0 -320 -235 -535 -605 -535c-369 0 -604 215 -604 535v945h302zM941 1577c-162 0 -200 138 -295 138c-50 0 -83 -35 -86 -128h-184c0 198 103 309 247 309c168 0 210 -138 295 -138
c46 0 82 30 87 124h183c0 -192 -103 -305 -247 -305z" />
    <glyph glyph-name="utilde" unicode="&#x169;" horiz-adv-x="1290" 
d="M1144 1103v-1103h-282v177h-18c-52 -128 -155 -201 -322 -201c-238 0 -386 152 -386 408v719h291v-644c0 -152 69 -230 203 -230c145 0 223 91 223 238v636h291zM513 1397c-57 0 -87 -48 -88 -141h-187c0 193 104 321 261 321c151 0 200 -144 278 -144c57 0 87 45 88 138
h187c0 -192 -103 -318 -261 -318c-151 0 -200 144 -278 144z" />
    <glyph glyph-name="Umacron" unicode="&#x16a;" horiz-adv-x="1565" 
d="M480 1443v-914c0 -182 109 -298 302 -298c194 0 303 116 303 298v914h302v-945c0 -320 -235 -535 -605 -535c-369 0 -604 215 -604 535v945h302zM1155 1632h-746v181h746v-181z" />
    <glyph glyph-name="umacron" unicode="&#x16b;" horiz-adv-x="1290" 
d="M1144 1103v-1103h-282v177h-18c-52 -128 -155 -201 -322 -201c-238 0 -386 152 -386 408v719h291v-644c0 -152 69 -230 203 -230c145 0 223 91 223 238v636h291zM1008 1316h-735v180h735v-180z" />
    <glyph glyph-name="Ubreve" unicode="&#x16c;" horiz-adv-x="1565" 
d="M480 1443v-914c0 -182 109 -298 302 -298c194 0 303 116 303 298v914h302v-945c0 -320 -235 -535 -605 -535c-369 0 -604 215 -604 535v945h302zM382 1915h208c2 -100 76 -164 192 -164s190 64 192 164h208c0 -198 -153 -336 -400 -336s-400 138 -400 336z" />
    <glyph glyph-name="ubreve" unicode="&#x16d;" horiz-adv-x="1290" 
d="M1144 1103v-1103h-282v177h-18c-52 -128 -155 -201 -322 -201c-238 0 -386 152 -386 408v719h291v-644c0 -152 69 -230 203 -230c145 0 223 91 223 238v636h291zM240 1602h207c2 -107 73 -178 192 -178s190 71 192 178h208c0 -205 -152 -351 -400 -351s-399 146 -399 351
z" />
    <glyph glyph-name="Uring" unicode="&#x16e;" horiz-adv-x="1565" 
d="M783 1546c-118 0 -206 84 -206 200c0 115 88 199 206 199c116 0 204 -84 204 -199c0 -116 -88 -200 -204 -200zM782 1652c56 0 95 40 95 93c0 54 -40 94 -95 94s-95 -40 -95 -94c0 -53 40 -93 95 -93zM480 1443v-914c0 -182 109 -298 302 -298c194 0 303 116 303 298v914
h302v-945c0 -320 -235 -535 -605 -535c-369 0 -604 215 -604 535v945h302z" />
    <glyph glyph-name="uring" unicode="&#x16f;" horiz-adv-x="1290" 
d="M1144 1103v-1103h-282v177h-18c-52 -128 -155 -201 -322 -201c-238 0 -386 152 -386 408v719h291v-644c0 -152 69 -230 203 -230c145 0 223 91 223 238v636h291zM640 1251c-140 0 -246 102 -246 241c0 137 106 238 246 238s245 -101 245 -238c0 -139 -105 -241 -245 -241
zM640 1387c61 0 105 44 105 104c0 59 -45 103 -105 103c-61 0 -106 -44 -106 -103c0 -61 45 -104 106 -104z" />
    <glyph glyph-name="Uhungarumlaut" unicode="&#x170;" horiz-adv-x="1565" 
d="M480 1443v-914c0 -182 109 -298 302 -298c194 0 303 116 303 298v914h302v-945c0 -320 -235 -535 -605 -535c-369 0 -604 215 -604 535v945h302zM851 1590l252 318h270l-278 -318h-244zM414 1590l251 318h271l-278 -318h-244z" />
    <glyph glyph-name="uhungarumlaut" unicode="&#x171;" horiz-adv-x="1290" 
d="M717 1281l212 353h259l-242 -353h-229zM281 1281l212 353h259l-242 -353h-229zM1144 1103v-1103h-282v177h-18c-52 -128 -155 -201 -322 -201c-238 0 -386 152 -386 408v719h291v-644c0 -152 69 -230 203 -230c145 0 223 91 223 238v636h291z" />
    <glyph glyph-name="Uogonek" unicode="&#x172;" horiz-adv-x="1564" 
d="M1056 -466c-166 0 -275 93 -275 218c0 97 66 175 132 213v18c-25 -11 -82 -20 -131 -20c-362 0 -604 210 -604 535v945h302v-914c0 -187 115 -298 302 -298c188 0 303 111 303 298v914h302v-945c0 -186 -84 -333 -241 -466c-95 -81 -139 -152 -139 -217
c0 -62 46 -101 118 -101c32 0 58 4 69 8v-167c-23 -9 -62 -21 -138 -21z" />
    <glyph glyph-name="uogonek" unicode="&#x173;" horiz-adv-x="1290" 
d="M696 -242c0 100 72 193 166 235v184h-18c-52 -128 -155 -201 -322 -201c-238 0 -386 152 -386 408v719h291v-644c0 -152 69 -230 203 -230c145 0 223 91 223 238v636h291v-1103l-36 -7c-106 -27 -187 -100 -187 -183c0 -56 42 -96 118 -96c30 0 57 3 69 8v-167
c-27 -10 -66 -21 -138 -21c-162 0 -274 93 -274 224z" />
    <glyph glyph-name="Wcircumflex" unicode="&#x174;" horiz-adv-x="2067" 
d="M1170 1925l284 -335h-265l-146 187h-18l-146 -187h-265l284 335h272zM1025 955l-270 -955h-285l-382 1443h314l225 -1017h16l263 1017h255l268 -1017h16l223 1017h312l-383 -1443h-283l-273 955h-16z" />
    <glyph glyph-name="wcircumflex" unicode="&#x175;" horiz-adv-x="1735" 
d="M1015 1605l275 -354h-263l-148 209h-18l-149 -209h-263l275 354h291zM1674 1103l-293 -1103h-310l-197 761h-18l-195 -761h-306l-294 1103h295l164 -791h18l193 791h278l194 -791h18l164 791h289z" />
    <glyph glyph-name="Ycircumflex" unicode="&#x176;" horiz-adv-x="1452" 
d="M877 0h-302v531l-503 912h327l318 -604h18l317 604h327l-502 -912v-531zM862 1925l284 -335h-265l-146 187h-18l-146 -187h-265l284 335h272z" />
    <glyph glyph-name="ycircumflex" unicode="&#x177;" horiz-adv-x="1223" 
d="M283 -401c-11 0 -99 1 -111 3v234c10 -2 54 -2 66 -2c109 0 171 35 195 119l10 40l-387 1110h321l232 -836h18l232 836h308l-380 -1120c-94 -284 -229 -384 -504 -384zM761 1605l275 -354h-263l-148 209h-18l-149 -209h-263l275 354h291z" />
    <glyph glyph-name="Ydieresis" unicode="&#x178;" horiz-adv-x="1452" 
d="M877 0h-302v531l-503 912h327l318 -604h18l317 604h327l-502 -912v-531zM492 1579c-90 0 -155 64 -155 152s65 151 155 151s155 -63 155 -151s-65 -152 -155 -152zM960 1579c-89 0 -155 64 -155 152s66 151 155 151c90 0 156 -63 156 -151s-66 -152 -156 -152z" />
    <glyph glyph-name="Zacute" unicode="&#x179;" horiz-adv-x="1384" 
d="M551 1590l277 318h315l-314 -318h-278zM135 0v204l726 963v18h-709v258h1077v-203l-724 -964v-18h744v-258h-1114z" />
    <glyph glyph-name="zacute" unicode="&#x17a;" horiz-adv-x="1160" 
d="M422 1281l247 353h309l-287 -353h-269zM121 0v172l558 681v18h-550v232h898v-192l-526 -661v-18h539v-232h-919z" />
    <glyph glyph-name="Zdotaccent" unicode="&#x17b;" horiz-adv-x="1384" 
d="M692 1579c-93 0 -158 68 -158 158s65 158 158 158c92 0 157 -68 157 -158s-65 -158 -157 -158zM135 0v204l726 963v18h-709v258h1077v-203l-724 -964v-18h744v-258h-1114z" />
    <glyph glyph-name="zdotaccent" unicode="&#x17c;" horiz-adv-x="1160" 
d="M577 1278c-94 0 -161 69 -161 160c0 92 67 161 161 161s161 -69 161 -161c0 -91 -67 -160 -161 -160zM121 0v172l558 681v18h-550v232h898v-192l-526 -661v-18h539v-232h-919z" />
    <glyph glyph-name="Zcaron" unicode="&#x17d;" horiz-adv-x="1384" 
d="M135 0v204l726 963v18h-709v258h1077v-203l-724 -964v-18h744v-258h-1114zM819 1590h-254l-281 318h253l145 -173h20l145 173h253z" />
    <glyph glyph-name="zcaron" unicode="&#x17e;" horiz-adv-x="1160" 
d="M722 1251h-291l-275 354h263l149 -209h18l148 209h263zM121 0v172l558 681v18h-550v232h898v-192l-526 -661v-18h539v-232h-919z" />
    <glyph glyph-name="florin" unicode="&#x192;" horiz-adv-x="1415" 
d="M323 -24c-84 0 -154 8 -216 23v246c57 -17 119 -26 179 -26c118 0 196 58 215 180l41 256h-317v217h350l29 188c42 264 208 399 495 399c82 0 148 -5 202 -15v-245c-44 12 -111 18 -168 18c-138 0 -211 -62 -231 -190l-24 -155h349v-217h-383l-42 -271
c-44 -283 -200 -408 -479 -408z" />
    <glyph glyph-name="Ohorn" unicode="&#x1a0;" horiz-adv-x="1665" 
d="M1499 722c0 -468 -266 -759 -693 -759c-428 0 -695 291 -695 759s271 758 695 758c174 0 272 -51 432 -51c77 0 108 30 108 89v165h231v-235c0 -133 -79 -209 -207 -209h-61v-16c112 -85 190 -285 190 -501zM806 1215c-234 0 -386 -191 -386 -493
c0 -301 149 -494 386 -494c235 0 385 193 385 494c0 302 -150 493 -385 493z" />
    <glyph glyph-name="ohorn" unicode="&#x1a1;" horiz-adv-x="1368" 
d="M1178 552c0 -361 -203 -576 -543 -576s-543 216 -543 576c0 356 207 575 543 575c142 0 189 -37 293 -37c83 0 110 24 110 84v146h231v-223c0 -124 -67 -192 -180 -192h-46v-15c78 -52 135 -191 135 -338zM635 214c155 0 244 123 244 338c0 212 -90 337 -244 337
s-244 -125 -244 -337c0 -215 89 -338 244 -338z" />
    <glyph glyph-name="Uhorn" unicode="&#x1af;" horiz-adv-x="1750" 
d="M782 -37c-364 0 -604 211 -604 535v945h302v-914c0 -186 114 -298 302 -298s303 111 303 298v914h313c52 0 79 26 79 76v184h231v-244c0 -140 -89 -216 -227 -216h-94v-745c0 -324 -240 -535 -605 -535z" />
    <glyph glyph-name="uhorn" unicode="&#x1b0;" horiz-adv-x="1508" 
d="M522 -24c-242 0 -386 157 -386 408v719h291v-644c0 -150 67 -230 203 -230c143 0 223 89 223 238v636h291c52 0 79 26 79 76v159h231v-219c0 -140 -89 -216 -227 -216h-83v-903h-282v177h-18c-54 -133 -160 -201 -322 -201z" />
    <glyph glyph-name="u01C4" unicode="&#x1c4;" horiz-adv-x="2924" 
d="M175 1444h568c429 0 677 -260 677 -712c0 -469 -245 -732 -677 -732h-568v1444zM477 1186v-928h218c267 0 417 164 417 469c0 292 -155 459 -417 459h-218zM1675 0v204l726 963v18h-709v258h1077v-203l-724 -964v-18h744v-258h-1114zM2359 1590h-254l-281 318h253
l145 -173h20l145 173h253z" />
    <glyph glyph-name="u01C5" unicode="&#x1c5;" horiz-adv-x="2700" 
d="M175 1444h568c429 0 677 -260 677 -712c0 -469 -245 -732 -677 -732h-568v1444zM477 1186v-928h218c267 0 417 164 417 469c0 292 -155 459 -417 459h-218zM2262 1251h-291l-275 354h263l149 -209h18l148 209h263zM1661 0v172l558 681v18h-550v232h898v-192l-526 -661
v-18h539v-232h-919z" />
    <glyph glyph-name="u01C6" unicode="&#x1c6;" horiz-adv-x="2503" 
d="M541 -17c-278 0 -449 218 -449 570c0 351 172 568 449 568c149 0 272 -72 329 -194h17v597h291v-1524h-282v173h-18c-59 -119 -184 -190 -337 -190zM640 877c-155 0 -249 -123 -249 -325c0 -204 93 -326 249 -326s250 123 250 325c0 201 -95 326 -250 326zM2065 1251
h-291l-275 354h263l149 -209h18l148 209h263zM1464 0v172l558 681v18h-550v232h898v-192l-526 -661v-18h539v-232h-919z" />
    <glyph glyph-name="u01C7" unicode="&#x1c7;" horiz-adv-x="2444" 
d="M1289 424h292c2 -116 78 -191 194 -191c124 0 192 75 192 217v993h302v-995c0 -311 -184 -485 -490 -485c-296 0 -490 178 -490 461zM1119 263v-263h-944v1443h302v-1180h642z" />
    <glyph glyph-name="u01C8" unicode="&#x1c8;" horiz-adv-x="1810" 
d="M1652 1103v-1137c0 -226 -135 -342 -390 -342c-21 0 -66 2 -78 4v223c6 -1 28 -1 37 -1c102 0 140 36 140 124v1129h291zM1507 1257c-105 0 -172 61 -172 147c0 87 67 147 172 147c104 0 172 -60 172 -147c0 -86 -68 -147 -172 -147zM1119 263v-263h-944v1443h302v-1180
h642z" />
    <glyph glyph-name="u01C9" unicode="&#x1c9;" horiz-adv-x="1194" 
d="M1036 1103v-1137c0 -226 -135 -342 -390 -342c-21 0 -66 2 -78 4v223c6 -1 28 -1 37 -1c102 0 140 36 140 124v1129h291zM891 1257c-105 0 -172 61 -172 147c0 87 67 147 172 147c104 0 172 -60 172 -147c0 -86 -68 -147 -172 -147zM156 0v1524h291v-1524h-291z" />
    <glyph glyph-name="u01CA" unicode="&#x1ca;" horiz-adv-x="2804" 
d="M1649 424h292c2 -116 78 -191 194 -191c124 0 192 75 192 217v993h302v-995c0 -311 -184 -485 -490 -485c-296 0 -490 178 -490 461zM464 0h-289v1443h252l664 -899h18v899h289v-1443h-250l-666 903h-18v-903z" />
    <glyph glyph-name="u01CB" unicode="&#x1cb;" horiz-adv-x="2170" 
d="M2012 1103v-1137c0 -226 -135 -342 -390 -342c-21 0 -66 2 -78 4v223c6 -1 28 -1 37 -1c102 0 140 36 140 124v1129h291zM1867 1257c-105 0 -172 61 -172 147c0 87 67 147 172 147c104 0 172 -60 172 -147c0 -86 -68 -147 -172 -147zM464 0h-289v1443h252l664 -899h18
v899h289v-1443h-250l-666 903h-18v-903z" />
    <glyph glyph-name="u01CC" unicode="&#x1cc;" horiz-adv-x="1872" 
d="M1724 1103v-1137c0 -226 -135 -342 -390 -342c-21 0 -66 2 -78 4v223c6 -1 28 -1 37 -1c102 0 140 36 140 124v1129h291zM1579 1257c-105 0 -172 61 -172 147c0 87 67 147 172 147c104 0 172 -60 172 -147c0 -86 -68 -147 -172 -147zM146 0v1103h282v-177h18
c51 124 163 201 326 201c245 0 377 -150 377 -414v-713h-291v644c0 152 -65 232 -203 232c-135 0 -218 -95 -218 -240v-636h-291z" />
    <glyph glyph-name="Acaron" unicode="&#x1cd;" horiz-adv-x="1500" 
d="M1102 0l-109 344h-507l-111 -344h-303l501 1443h355l501 -1443h-327zM732 1143l-181 -566h378l-179 566h-18zM877 1590h-254l-281 318h253l145 -173h20l145 173h253z" />
    <glyph glyph-name="acaron" unicode="&#x1ce;" horiz-adv-x="1208" 
d="M544 202c135 0 237 86 237 198v81l-223 -14c-125 -9 -186 -54 -186 -133c0 -82 71 -132 172 -132zM448 -17c-212 0 -361 130 -361 332c0 200 153 316 427 332l267 16v90c0 92 -66 144 -186 144c-105 0 -175 -36 -199 -102h-268c19 204 206 332 483 332
c292 0 457 -138 457 -374v-753h-282v144h-18c-57 -101 -177 -161 -320 -161zM756 1251h-291l-275 354h263l149 -209h18l148 209h263z" />
    <glyph glyph-name="Icaron" unicode="&#x1cf;" horiz-adv-x="652" 
d="M477 0h-302v1443h302v-1443zM453 1590h-254l-281 318h253l145 -173h20l145 173h253z" />
    <glyph glyph-name="icaron" unicode="&#x1d0;" horiz-adv-x="587" 
d="M439 1251h-291l-275 354h263l149 -209h18l148 209h263zM148 0v1103h291v-1103h-291z" />
    <glyph glyph-name="Ocaron" unicode="&#x1d1;" horiz-adv-x="1610" 
d="M933 1590h-254l-281 318h253l145 -173h20l145 173h253zM806 1480c426 0 693 -291 693 -758c0 -468 -266 -759 -693 -759c-428 0 -695 291 -695 759s271 758 695 758zM806 1215c-234 0 -386 -191 -386 -493c0 -301 149 -494 386 -494c235 0 385 193 385 494
c0 302 -150 493 -385 493z" />
    <glyph glyph-name="ocaron" unicode="&#x1d2;" horiz-adv-x="1269" 
d="M780 1251h-291l-275 354h263l149 -209h18l148 209h263zM635 214c155 0 244 124 244 338c0 212 -90 337 -244 337c-155 0 -244 -125 -244 -337c0 -215 88 -338 244 -338zM635 -24c-339 0 -543 215 -543 576c0 357 207 575 543 575s543 -217 543 -575
c0 -361 -204 -576 -543 -576z" />
    <glyph glyph-name="Ucaron" unicode="&#x1d3;" horiz-adv-x="1565" 
d="M909 1590h-254l-281 318h253l145 -173h20l145 173h253zM480 1443v-914c0 -182 109 -298 302 -298c194 0 303 116 303 298v914h302v-945c0 -320 -235 -535 -605 -535c-369 0 -604 215 -604 535v945h302z" />
    <glyph glyph-name="ucaron" unicode="&#x1d4;" horiz-adv-x="1290" 
d="M785 1251h-291l-275 354h263l149 -209h18l148 209h263zM1144 1103v-1103h-282v177h-18c-52 -128 -155 -201 -322 -201c-238 0 -386 152 -386 408v719h291v-644c0 -152 69 -230 203 -230c145 0 223 91 223 238v636h291z" />
    <glyph glyph-name="Udieresismacron" unicode="&#x1d5;" horiz-adv-x="1565" 
d="M480 1443v-914c0 -182 109 -298 302 -298c194 0 303 116 303 298v914h302v-945c0 -320 -235 -535 -605 -535c-369 0 -604 215 -604 535v945h302zM409 1996v168h746v-168h-746zM548 1579c-89 0 -154 63 -154 150s65 150 154 150c88 0 153 -63 153 -150s-65 -150 -153 -150
zM1016 1579c-88 0 -153 63 -153 150s65 150 153 150c89 0 154 -63 154 -150s-65 -150 -154 -150z" />
    <glyph glyph-name="udieresismacron" unicode="&#x1d6;" horiz-adv-x="1290" 
d="M1144 1103v-1103h-282v177h-18c-52 -128 -155 -201 -322 -201c-238 0 -386 152 -386 408v719h291v-644c0 -152 69 -230 203 -230c145 0 223 91 223 238v636h291zM419 1251c-86 0 -147 64 -147 145c0 82 61 145 147 145c85 0 145 -63 145 -145c0 -81 -60 -145 -145 -145z
M861 1251c-85 0 -145 64 -145 145c0 82 60 145 145 145c86 0 147 -63 147 -145c0 -81 -61 -145 -147 -145zM1008 1678h-735v180h735v-180z" />
    <glyph glyph-name="Udieresisacute" unicode="&#x1d7;" horiz-adv-x="1565" 
d="M662 1937l166 242h292l-218 -242h-240zM548 1579c-90 0 -155 64 -155 152s65 151 155 151s155 -63 155 -151s-65 -152 -155 -152zM1016 1579c-89 0 -155 64 -155 152s66 151 155 151c90 0 156 -63 156 -151s-66 -152 -156 -152zM480 1443v-914c0 -182 109 -298 302 -298
c194 0 303 116 303 298v914h302v-945c0 -320 -235 -535 -605 -535c-369 0 -604 215 -604 535v945h302z" />
    <glyph glyph-name="udieresisacute" unicode="&#x1d8;" horiz-adv-x="1290" 
d="M512 1640l207 319h281l-247 -319h-241zM406 1258c-90 0 -155 64 -155 152s65 151 155 151s155 -63 155 -151s-65 -152 -155 -152zM874 1258c-89 0 -155 64 -155 152s66 151 155 151c90 0 156 -63 156 -151s-66 -152 -156 -152zM1144 1103v-1103h-282v177h-18
c-52 -128 -155 -201 -322 -201c-238 0 -386 152 -386 408v719h291v-644c0 -152 69 -230 203 -230c145 0 223 91 223 238v636h291z" />
    <glyph glyph-name="Udieresiscaron" unicode="&#x1d9;" horiz-adv-x="1565" 
d="M548 1564c-89 0 -152 62 -152 145c0 82 63 144 152 144c88 0 151 -62 151 -144c0 -83 -63 -145 -151 -145zM1016 1564c-88 0 -151 62 -151 145c0 82 63 144 151 144c89 0 152 -62 152 -144c0 -83 -63 -145 -152 -145zM917 1910h-270l-278 300h263l140 -166h20l140 166
h263zM480 1443v-914c0 -182 109 -298 302 -298c194 0 303 116 303 298v914h302v-945c0 -320 -235 -535 -605 -535c-369 0 -604 215 -604 535v945h302z" />
    <glyph glyph-name="udieresiscaron" unicode="&#x1da;" horiz-adv-x="1290" 
d="M419 1251c-86 0 -147 64 -147 145c0 82 61 145 147 145c85 0 145 -63 145 -145c0 -81 -60 -145 -145 -145zM861 1251c-85 0 -145 64 -145 145c0 82 60 145 145 145c86 0 147 -63 147 -145c0 -81 -61 -145 -147 -145zM777 1622h-274l-272 347h252l148 -208h18l148 208h252
zM1144 1103v-1103h-282v177h-18c-52 -128 -155 -201 -322 -201c-238 0 -386 152 -386 408v719h291v-644c0 -152 69 -230 203 -230c145 0 223 91 223 238v636h291z" />
    <glyph glyph-name="Udieresisgrave" unicode="&#x1db;" horiz-adv-x="1565" 
d="M911 1937h-240l-218 242h292zM548 1579c-90 0 -155 64 -155 152s65 151 155 151s155 -63 155 -151s-65 -152 -155 -152zM1016 1579c-89 0 -155 64 -155 152s66 151 155 151c90 0 156 -63 156 -151s-66 -152 -156 -152zM480 1443v-914c0 -182 109 -298 302 -298
c194 0 303 116 303 298v914h302v-945c0 -320 -235 -535 -605 -535c-369 0 -604 215 -604 535v945h302z" />
    <glyph glyph-name="udieresisgrave" unicode="&#x1dc;" horiz-adv-x="1290" 
d="M768 1640h-241l-247 319h281zM406 1258c-90 0 -155 64 -155 152s65 151 155 151s155 -63 155 -151s-65 -152 -155 -152zM874 1258c-89 0 -155 64 -155 152s66 151 155 151c90 0 156 -63 156 -151s-66 -152 -156 -152zM1144 1103v-1103h-282v177h-18
c-52 -128 -155 -201 -322 -201c-238 0 -386 152 -386 408v719h291v-644c0 -152 69 -230 203 -230c145 0 223 91 223 238v636h291z" />
    <glyph glyph-name="Adieresismacron" unicode="&#x1de;" horiz-adv-x="1500" 
d="M1102 0l-109 344h-507l-111 -344h-303l501 1443h355l501 -1443h-327zM732 1143l-181 -566h378l-179 566h-18zM377 1996v168h746v-168h-746zM516 1579c-89 0 -154 63 -154 150s65 150 154 150c88 0 153 -63 153 -150s-65 -150 -153 -150zM984 1579c-88 0 -153 63 -153 150
s65 150 153 150c89 0 154 -63 154 -150s-65 -150 -154 -150z" />
    <glyph glyph-name="adieresismacron" unicode="&#x1df;" horiz-adv-x="1208" 
d="M544 202c135 0 237 86 237 198v81l-223 -14c-125 -9 -186 -54 -186 -133c0 -82 71 -132 172 -132zM448 -17c-212 0 -361 130 -361 332c0 200 153 316 427 332l267 16v90c0 92 -66 144 -186 144c-105 0 -175 -36 -199 -102h-268c19 204 206 332 483 332
c292 0 457 -138 457 -374v-753h-282v144h-18c-57 -101 -177 -161 -320 -161zM390 1251c-86 0 -147 64 -147 145c0 82 61 145 147 145c85 0 145 -63 145 -145c0 -81 -60 -145 -145 -145zM832 1251c-85 0 -145 64 -145 145c0 82 60 145 145 145c86 0 147 -63 147 -145
c0 -81 -61 -145 -147 -145zM979 1678h-735v180h735v-180z" />
    <glyph glyph-name="Adotmacron" unicode="&#x1e0;" horiz-adv-x="1500" 
d="M1102 0l-109 344h-507l-111 -344h-303l501 1443h355l501 -1443h-327zM732 1143l-181 -566h378l-179 566h-18zM750 1575c-91 0 -156 64 -156 150c0 85 65 148 156 148s156 -63 156 -148c0 -86 -65 -150 -156 -150zM1123 1996h-746v168h746v-168z" />
    <glyph glyph-name="adotmacron" unicode="&#x1e1;" horiz-adv-x="1208" 
d="M544 202c135 0 237 86 237 198v81l-223 -14c-125 -9 -186 -54 -186 -133c0 -82 71 -132 172 -132zM448 -17c-212 0 -361 130 -361 332c0 200 153 316 427 332l267 16v90c0 92 -66 144 -186 144c-105 0 -175 -36 -199 -102h-268c19 204 206 332 483 332
c292 0 457 -138 457 -374v-753h-282v144h-18c-57 -101 -177 -161 -320 -161zM611 1251c-89 0 -151 65 -151 149c0 86 62 151 151 151s151 -65 151 -151c0 -84 -62 -149 -151 -149zM979 1678h-735v180h735v-180z" />
    <glyph glyph-name="AEmacron" unicode="&#x1e2;" horiz-adv-x="2059" 
d="M990 1202h-129l-249 -604h378v604zM990 0v364h-465l-154 -364h-299l595 1443h1250v-258h-651v-341h614v-239h-614v-347h651v-258h-927zM1896 1632h-746v181h746v-181z" />
    <glyph glyph-name="aemacron" unicode="&#x1e3;" horiz-adv-x="1902" 
d="M1315 -24c-174 0 -323 78 -391 198h-18c-83 -121 -227 -198 -407 -198c-251 0 -412 139 -412 339s153 316 427 332l267 16v73c0 109 -73 161 -186 161c-111 0 -175 -36 -199 -102h-268c17 195 202 332 452 332c179 0 293 -63 357 -158h18c75 93 204 158 356 158
c304 0 492 -212 492 -549v-94h-747v-26c5 -156 106 -258 256 -258c105 0 174 38 212 114h269c-44 -208 -226 -338 -478 -338zM1293 904c-136 0 -229 -94 -237 -235h462c-6 140 -97 235 -225 235zM549 199c141 0 232 93 232 198v84l-223 -14c-125 -9 -186 -55 -186 -135
c0 -83 71 -133 177 -133zM1351 1316h-735v180h735v-180z" />
    <glyph glyph-name="Gcaron" unicode="&#x1e6;" horiz-adv-x="1557" 
d="M923 1591h-254l-281 318h253l145 -173h20l145 173h253zM1443 589c0 -386 -246 -626 -640 -626c-429 0 -692 288 -692 760c0 465 265 757 685 757c341 0 592 -197 634 -497h-300c-45 146 -166 231 -334 231c-233 0 -376 -185 -376 -488c0 -309 150 -497 388 -497
c198 0 335 117 341 291l1 26h-313v227h606v-184z" />
    <glyph glyph-name="gcaron" unicode="&#x1e7;" horiz-adv-x="1322" 
d="M789 1251h-291l-275 354h263l149 -209h18l148 209h263zM888 561c0 194 -95 316 -252 316s-248 -122 -248 -315c0 -195 90 -316 248 -316s252 121 252 315zM632 -418c-293 0 -487 129 -505 323h288c15 -68 97 -111 223 -111c156 0 247 72 247 196v204h-18
c-61 -116 -177 -178 -332 -178c-275 0 -446 213 -446 545c0 342 172 560 452 560c149 0 276 -74 335 -195h18v177h282v-1099c0 -259 -211 -422 -544 -422z" />
    <glyph glyph-name="Kcaron" unicode="&#x1e8;" horiz-adv-x="1453" 
d="M477 0h-302v1443h302v-643h18l533 643h336l-526 -633l563 -810h-362l-419 604l-143 -169v-435zM829 1590h-254l-281 318h253l145 -173h20l145 173h253z" />
    <glyph glyph-name="kcaron" unicode="&#x1e9;" horiz-adv-x="1232" 
d="M465 672l369 431h331l-420 -473l449 -630h-345l-322 448l-80 -82v-366h-291v1524h291v-852h18zM429 1671h-254l-281 318h253l145 -173h20l145 173h253z" />
    <glyph glyph-name="Oogonek" unicode="&#x1ea;" horiz-adv-x="1610" 
d="M1063 -466c-162 0 -274 90 -274 218c0 90 57 170 131 213v18c-18 -11 -73 -20 -114 -20c-428 0 -695 291 -695 759c0 465 269 758 695 758s693 -291 693 -758c0 -296 -107 -516 -340 -696c-94 -72 -145 -146 -145 -211c0 -58 42 -101 118 -101c30 0 57 3 69 8v-167
c-27 -10 -66 -21 -138 -21zM806 1215c-235 0 -386 -193 -386 -493c0 -302 150 -494 386 -494c235 0 385 193 385 494c0 300 -150 493 -385 493z" />
    <glyph glyph-name="oogonek" unicode="&#x1eb;" horiz-adv-x="1269" 
d="M635 214c155 0 244 123 244 338c0 212 -90 337 -244 337s-244 -125 -244 -337c0 -215 89 -338 244 -338zM570 -242c0 83 51 162 131 208v18c-11 -4 -40 -8 -66 -8c-340 0 -543 216 -543 576c0 356 207 575 543 575c337 0 543 -218 543 -575c0 -209 -82 -392 -242 -525
c-103 -87 -141 -153 -141 -212c0 -65 47 -101 118 -101c32 0 59 4 69 8v-167c-23 -9 -62 -21 -138 -21c-165 0 -274 95 -274 224z" />
    <glyph glyph-name="Oogonekmacron" unicode="&#x1ec;" horiz-adv-x="1610" 
d="M1063 -466c-162 0 -274 90 -274 218c0 90 57 170 131 213v18c-18 -11 -73 -20 -114 -20c-428 0 -695 291 -695 759c0 465 269 758 695 758s693 -291 693 -758c0 -296 -107 -516 -340 -696c-94 -72 -145 -146 -145 -211c0 -58 42 -101 118 -101c30 0 57 3 69 8v-167
c-27 -10 -66 -21 -138 -21zM806 1215c-235 0 -386 -193 -386 -493c0 -302 150 -494 386 -494c235 0 385 193 385 494c0 300 -150 493 -385 493zM1179 1632h-746v181h746v-181z" />
    <glyph glyph-name="oogonekmacron" unicode="&#x1ed;" horiz-adv-x="1269" 
d="M635 214c155 0 244 123 244 338c0 212 -90 337 -244 337s-244 -125 -244 -337c0 -215 89 -338 244 -338zM570 -242c0 83 51 162 131 208v18c-11 -4 -40 -8 -66 -8c-340 0 -543 216 -543 576c0 356 207 575 543 575c337 0 543 -218 543 -575c0 -209 -82 -392 -242 -525
c-103 -87 -141 -153 -141 -212c0 -65 47 -101 118 -101c32 0 59 4 69 8v-167c-23 -9 -62 -21 -138 -21c-165 0 -274 95 -274 224zM1003 1316h-735v180h735v-180z" />
    <glyph glyph-name="u01F1" unicode="&#x1f1;" horiz-adv-x="2924" 
d="M1675 0v204l726 963v18h-709v258h1077v-203l-724 -964v-18h744v-258h-1114zM175 1444h568c429 0 677 -260 677 -712c0 -469 -245 -732 -677 -732h-568v1444zM477 1186v-928h218c267 0 417 164 417 469c0 292 -155 459 -417 459h-218z" />
    <glyph glyph-name="u01F2" unicode="&#x1f2;" horiz-adv-x="2700" 
d="M1661 0v172l558 681v18h-550v232h898v-192l-526 -661v-18h539v-232h-919zM175 1444h568c429 0 677 -260 677 -712c0 -469 -245 -732 -677 -732h-568v1444zM477 1186v-928h218c267 0 417 164 417 469c0 292 -155 459 -417 459h-218z" />
    <glyph glyph-name="u01F3" unicode="&#x1f3;" horiz-adv-x="2503" 
d="M1464 0v172l558 681v18h-550v232h898v-192l-526 -661v-18h539v-232h-919zM541 -17c-278 0 -449 218 -449 570c0 351 172 568 449 568c149 0 272 -72 329 -194h17v597h291v-1524h-282v173h-18c-59 -119 -184 -190 -337 -190zM640 877c-155 0 -249 -123 -249 -325
c0 -204 93 -326 249 -326s250 123 250 325c0 201 -95 326 -250 326z" />
    <glyph glyph-name="Gacute" unicode="&#x1f4;" horiz-adv-x="1557" 
d="M655 1591l277 318h315l-314 -318h-278zM1443 589c0 -386 -246 -626 -640 -626c-429 0 -692 288 -692 760c0 465 265 757 685 757c341 0 592 -197 634 -497h-300c-45 146 -166 231 -334 231c-233 0 -376 -185 -376 -488c0 -309 150 -497 388 -497c198 0 335 117 341 291
l1 26h-313v227h606v-184z" />
    <glyph glyph-name="gacute" unicode="&#x1f5;" horiz-adv-x="1322" 
d="M489 1281l247 353h309l-287 -353h-269zM888 561c0 194 -95 316 -252 316s-248 -122 -248 -315c0 -195 90 -316 248 -316s252 121 252 315zM632 -418c-293 0 -487 129 -505 323h288c15 -68 97 -111 223 -111c156 0 247 72 247 196v204h-18c-61 -116 -177 -178 -332 -178
c-275 0 -446 213 -446 545c0 342 172 560 452 560c149 0 276 -74 335 -195h18v177h282v-1099c0 -259 -211 -422 -544 -422z" />
    <glyph glyph-name="Ngrave" unicode="&#x1f8;" horiz-adv-x="1573" 
d="M657 1908l276 -318h-277l-314 318h315zM464 0h-289v1443h252l664 -899h18v899h289v-1443h-250l-666 903h-18v-903z" />
    <glyph glyph-name="ngrave" unicode="&#x1f9;" horiz-adv-x="1285" 
d="M814 1281h-269l-287 353h309zM146 0v1103h282v-177h18c51 124 163 201 326 201c245 0 377 -150 377 -414v-713h-291v644c0 152 -65 232 -203 232c-135 0 -218 -95 -218 -240v-636h-291z" />
    <glyph glyph-name="Aringacute" unicode="&#x1fa;" horiz-adv-x="1500" 
d="M1102 0l-109 344h-507l-111 -344h-303l501 1443h355l501 -1443h-327zM732 1143l-181 -566h378l-179 566h-18zM700 1779c-21 -26 -15 -63 14 -85c28 -23 65 -18 86 7c21 26 15 63 -14 85c-28 23 -66 19 -86 -7zM751 1531c-123 0 -217 89 -217 211c0 120 93 208 217 208
c122 0 215 -88 215 -208c0 -122 -93 -211 -215 -211zM741 2214h264l-135 -191h-237z" />
    <glyph glyph-name="aringacute" unicode="&#x1fb;" horiz-adv-x="1208" 
d="M544 202c135 0 237 86 237 198v81l-223 -14c-125 -9 -186 -54 -186 -133c0 -82 71 -132 172 -132zM448 -17c-212 0 -361 130 -361 332c0 200 153 316 427 332l267 16v90c0 92 -66 144 -186 144c-105 0 -175 -36 -199 -102h-268c19 204 206 332 483 332
c292 0 457 -138 457 -374v-753h-282v144h-18c-57 -101 -177 -161 -320 -161zM611 1215c-130 0 -227 96 -227 223s97 222 227 222s227 -95 227 -222s-97 -223 -227 -223zM519 1437c0 -52 40 -91 92 -91s92 39 92 91c0 53 -40 91 -92 91s-92 -38 -92 -91zM505 1739l160 236
h251l-198 -236h-213z" />
    <glyph glyph-name="AEacute" unicode="&#x1fc;" horiz-adv-x="2059" 
d="M1382 1590l277 318h315l-314 -318h-278zM990 1202h-129l-249 -604h378v604zM990 0v364h-465l-154 -364h-299l595 1443h1250v-258h-651v-341h614v-239h-614v-347h651v-258h-927z" />
    <glyph glyph-name="aeacute" unicode="&#x1fd;" horiz-adv-x="1902" 
d="M828 1281l247 353h309l-287 -353h-269zM1315 -24c-174 0 -323 78 -391 198h-18c-83 -121 -227 -198 -407 -198c-251 0 -412 139 -412 339s153 316 427 332l267 16v73c0 109 -73 161 -186 161c-111 0 -175 -36 -199 -102h-268c17 195 202 332 452 332
c179 0 293 -63 357 -158h18c75 93 204 158 356 158c304 0 492 -212 492 -549v-94h-747v-26c5 -156 106 -258 256 -258c105 0 174 38 212 114h269c-44 -208 -226 -338 -478 -338zM1293 904c-136 0 -229 -94 -237 -235h462c-6 140 -97 235 -225 235zM549 199
c141 0 232 93 232 198v84l-223 -14c-125 -9 -186 -55 -186 -135c0 -83 71 -133 177 -133z" />
    <glyph glyph-name="Oslashacute" unicode="&#x1fe;" horiz-adv-x="1592" 
d="M1270 1908l-314 -318h-278l277 318h315zM1097 1067l-510 -768c60 -46 134 -71 219 -71c235 0 385 193 385 494c0 143 -33 261 -94 345zM503 392l506 763c-57 39 -125 60 -203 60c-234 0 -386 -191 -386 -493c0 -134 29 -246 83 -330zM1350 1448l-84 -127
c149 -130 233 -337 233 -599c0 -468 -266 -759 -693 -759c-146 0 -273 34 -377 97l-85 -128l-102 66l90 135c-142 132 -221 334 -221 589c0 468 271 758 695 758c138 0 259 -30 360 -88l76 115z" />
    <glyph glyph-name="oslashacute" unicode="&#x1ff;" horiz-adv-x="1269" 
d="M1024 1634l-287 -353h-269l247 353h309zM841 755l-320 -513c33 -19 71 -28 114 -28c155 0 244 124 244 338c0 81 -13 149 -38 203zM436 333l324 520c-35 24 -77 36 -125 36c-155 0 -244 -125 -244 -337c0 -90 15 -164 45 -219zM1065 1114l-67 -107
c115 -99 180 -255 180 -455c0 -361 -204 -576 -543 -576c-94 0 -178 17 -249 48l-61 -97l-103 63l60 96c-122 98 -190 258 -190 466c0 357 207 575 543 575c99 0 187 -19 262 -55l62 100z" />
    <glyph glyph-name="Adblgrave" unicode="&#x200;" horiz-adv-x="1500" 
d="M1102 0l-109 344h-507l-111 -344h-303l501 1443h355l501 -1443h-327zM732 1143l-181 -566h378l-179 566h-18zM661 1590h-244l-278 318h270zM1098 1590h-244l-278 318h271z" />
    <glyph glyph-name="adblgrave" unicode="&#x201;" horiz-adv-x="1208" 
d="M544 202c135 0 237 86 237 198v81l-223 -14c-125 -9 -186 -54 -186 -133c0 -82 71 -132 172 -132zM448 -17c-212 0 -361 130 -361 332c0 200 153 316 427 332l267 16v90c0 92 -66 144 -186 144c-105 0 -175 -36 -199 -102h-268c19 204 206 332 483 332
c292 0 457 -138 457 -374v-753h-282v144h-18c-57 -101 -177 -161 -320 -161zM526 1281h-230l-241 353h258zM962 1281h-230l-241 353h258z" />
    <glyph glyph-name="Ainvertedbreve" unicode="&#x202;" horiz-adv-x="1500" 
d="M1102 0l-109 344h-507l-111 -344h-303l501 1443h355l501 -1443h-327zM732 1143l-181 -566h378l-179 566h-18zM350 1579c0 199 153 336 400 336s400 -137 400 -336h-208c-2 101 -76 165 -192 165s-190 -64 -192 -165h-208z" />
    <glyph glyph-name="ainvertedbreve" unicode="&#x203;" horiz-adv-x="1208" 
d="M544 202c135 0 237 86 237 198v81l-223 -14c-125 -9 -186 -54 -186 -133c0 -82 71 -132 172 -132zM448 -17c-212 0 -361 130 -361 332c0 200 153 316 427 332l267 16v90c0 92 -66 144 -186 144c-105 0 -175 -36 -199 -102h-268c19 204 206 332 483 332
c292 0 457 -138 457 -374v-753h-282v144h-18c-57 -101 -177 -161 -320 -161zM211 1251c0 205 152 351 400 351s400 -146 400 -351h-208c-2 107 -73 178 -192 178s-190 -71 -192 -178h-208z" />
    <glyph glyph-name="Edblgrave" unicode="&#x204;" horiz-adv-x="1274" 
d="M564 1590h-244l-278 318h270zM1001 1590h-244l-278 318h271zM1131 258v-258h-956v1443h956v-258h-654v-337h617v-239h-617v-351h654z" />
    <glyph glyph-name="edblgrave" unicode="&#x205;" horiz-adv-x="1231" 
d="M623 904c-135 0 -230 -94 -240 -237h470c-6 146 -94 237 -230 237zM859 314h271c-44 -208 -234 -338 -504 -338c-336 0 -534 212 -534 570c0 359 202 581 530 581c325 0 517 -207 517 -557v-89h-757v-15c4 -164 100 -266 252 -266c115 0 194 41 225 114zM537 1281h-230
l-241 353h258zM973 1281h-230l-241 353h258z" />
    <glyph glyph-name="Einvertedbreve" unicode="&#x206;" horiz-adv-x="1274" 
d="M1131 258v-258h-956v1443h956v-258h-654v-337h617v-239h-617v-351h654zM253 1579c0 199 153 336 400 336s400 -137 400 -336h-208c-2 101 -76 165 -192 165s-190 -64 -192 -165h-208z" />
    <glyph glyph-name="einvertedbreve" unicode="&#x207;" horiz-adv-x="1231" 
d="M623 904c-135 0 -230 -94 -240 -237h470c-6 146 -94 237 -230 237zM859 314h271c-44 -208 -234 -338 -504 -338c-336 0 -534 212 -534 570c0 359 202 581 530 581c325 0 517 -207 517 -557v-89h-757v-15c4 -164 100 -266 252 -266c115 0 194 41 225 114zM222 1251
c0 205 152 351 400 351s400 -146 400 -351h-208c-2 107 -73 178 -192 178s-190 -71 -192 -178h-208z" />
    <glyph glyph-name="Idblgrave" unicode="&#x208;" horiz-adv-x="652" 
d="M477 0h-302v1443h302v-1443zM237 1590h-244l-278 318h270zM674 1590h-244l-278 318h271z" />
    <glyph glyph-name="idblgrave" unicode="&#x209;" horiz-adv-x="587" 
d="M148 0v1103h291v-1103h-291zM209 1281h-230l-241 353h258zM645 1281h-230l-241 353h258z" />
    <glyph glyph-name="Iinvertedbreve" unicode="&#x20a;" horiz-adv-x="652" 
d="M477 0h-302v1443h302v-1443zM-74 1579c0 199 153 336 400 336s400 -137 400 -336h-208c-2 101 -76 165 -192 165s-190 -64 -192 -165h-208z" />
    <glyph glyph-name="iinvertedbreve" unicode="&#x20b;" horiz-adv-x="587" 
d="M148 0v1103h291v-1103h-291zM-106 1251c0 205 152 351 400 351s400 -146 400 -351h-208c-2 107 -73 178 -192 178s-190 -71 -192 -178h-208z" />
    <glyph glyph-name="Odblgrave" unicode="&#x20c;" horiz-adv-x="1610" 
d="M717 1590h-244l-278 318h270zM1154 1590h-244l-278 318h271zM806 1480c426 0 693 -291 693 -758c0 -468 -266 -759 -693 -759c-428 0 -695 291 -695 759s271 758 695 758zM806 1215c-234 0 -386 -191 -386 -493c0 -301 149 -494 386 -494c235 0 385 193 385 494
c0 302 -150 493 -385 493z" />
    <glyph glyph-name="odblgrave" unicode="&#x20d;" horiz-adv-x="1269" 
d="M635 214c155 0 244 124 244 338c0 212 -90 337 -244 337c-155 0 -244 -125 -244 -337c0 -215 88 -338 244 -338zM635 -24c-339 0 -543 215 -543 576c0 357 207 575 543 575s543 -217 543 -575c0 -361 -204 -576 -543 -576zM550 1281h-230l-241 353h258zM986 1281h-230
l-241 353h258z" />
    <glyph glyph-name="Oinvertedbreve" unicode="&#x20e;" horiz-adv-x="1610" 
d="M406 1579c0 199 153 336 400 336s400 -137 400 -336h-208c-2 101 -76 165 -192 165s-190 -64 -192 -165h-208zM806 1480c426 0 693 -291 693 -758c0 -468 -266 -759 -693 -759c-428 0 -695 291 -695 759s271 758 695 758zM806 1215c-234 0 -386 -191 -386 -493
c0 -301 149 -494 386 -494c235 0 385 193 385 494c0 302 -150 493 -385 493z" />
    <glyph glyph-name="oinvertedbreve" unicode="&#x20f;" horiz-adv-x="1269" 
d="M635 214c155 0 244 124 244 338c0 212 -90 337 -244 337c-155 0 -244 -125 -244 -337c0 -215 88 -338 244 -338zM635 -24c-339 0 -543 215 -543 576c0 357 207 575 543 575s543 -217 543 -575c0 -361 -204 -576 -543 -576zM235 1251c0 205 152 351 400 351
s400 -146 400 -351h-208c-2 107 -73 178 -192 178s-190 -71 -192 -178h-208z" />
    <glyph glyph-name="Rdblgrave" unicode="&#x210;" horiz-adv-x="1422" 
d="M563 1590h-244l-278 318h270zM1000 1590h-244l-278 318h271zM477 1199v-444h265c152 0 241 82 241 221c0 137 -94 223 -244 223h-262zM477 523v-523h-302v1443h606c317 0 512 -176 512 -463c0 -184 -96 -344 -262 -410l304 -570h-342l-269 523h-247z" />
    <glyph glyph-name="rdblgrave" unicode="&#x211;" horiz-adv-x="881" 
d="M146 0v1103h282v-176h18c29 110 143 194 283 194c40 0 89 -5 114 -14v-265c-23 9 -91 18 -138 18c-159 0 -268 -94 -268 -249v-611h-291zM363 1281h-230l-241 353h258zM799 1281h-230l-241 353h258z" />
    <glyph glyph-name="Rinvertedbreve" unicode="&#x212;" horiz-adv-x="1422" 
d="M477 1199v-444h265c152 0 241 82 241 221c0 137 -94 223 -244 223h-262zM477 523v-523h-302v1443h606c317 0 512 -176 512 -463c0 -184 -96 -344 -262 -410l304 -570h-342l-269 523h-247zM252 1579c0 199 153 336 400 336s400 -137 400 -336h-208
c-2 101 -76 165 -192 165s-190 -64 -192 -165h-208z" />
    <glyph glyph-name="rinvertedbreve" unicode="&#x213;" horiz-adv-x="881" 
d="M146 0v1103h282v-176h18c29 110 143 194 283 194c40 0 89 -5 114 -14v-265c-23 9 -91 18 -138 18c-159 0 -268 -94 -268 -249v-611h-291zM48 1251c0 205 152 351 400 351s400 -146 400 -351h-208c-2 107 -73 178 -192 178s-190 -71 -192 -178h-208z" />
    <glyph glyph-name="Udblgrave" unicode="&#x214;" horiz-adv-x="1565" 
d="M693 1590h-244l-278 318h270zM1130 1590h-244l-278 318h271zM480 1443v-914c0 -182 109 -298 302 -298c194 0 303 116 303 298v914h302v-945c0 -320 -235 -535 -605 -535c-369 0 -604 215 -604 535v945h302z" />
    <glyph glyph-name="udblgrave" unicode="&#x215;" horiz-adv-x="1290" 
d="M1144 1103v-1103h-282v177h-18c-52 -128 -155 -201 -322 -201c-238 0 -386 152 -386 408v719h291v-644c0 -152 69 -230 203 -230c145 0 223 91 223 238v636h291zM555 1281h-230l-241 353h258zM991 1281h-230l-241 353h258z" />
    <glyph glyph-name="Uinvertedbreve" unicode="&#x216;" horiz-adv-x="1565" 
d="M480 1443v-914c0 -182 109 -298 302 -298c194 0 303 116 303 298v914h302v-945c0 -320 -235 -535 -605 -535c-369 0 -604 215 -604 535v945h302zM382 1579c0 199 153 336 400 336s400 -137 400 -336h-208c-2 101 -76 165 -192 165s-190 -64 -192 -165h-208z" />
    <glyph glyph-name="uinvertedbreve" unicode="&#x217;" horiz-adv-x="1290" 
d="M1144 1103v-1103h-282v177h-18c-52 -128 -155 -201 -322 -201c-238 0 -386 152 -386 408v719h291v-644c0 -152 69 -230 203 -230c145 0 223 91 223 238v636h291zM240 1251c0 205 152 351 400 351s400 -146 400 -351h-208c-2 107 -73 178 -192 178s-190 -71 -192 -178
h-208z" />
    <glyph glyph-name="Scommaaccent" unicode="&#x218;" horiz-adv-x="1383" 
d="M110 401h292c14 -117 132 -192 302 -192c157 0 268 76 268 185c0 92 -72 145 -249 183l-188 40c-263 55 -392 192 -392 412c0 272 219 451 552 451c318 0 543 -178 552 -435h-284c-14 114 -120 190 -266 190c-151 0 -251 -70 -251 -180c0 -89 69 -140 238 -176l174 -37
c290 -61 415 -186 415 -410c0 -291 -223 -469 -585 -469c-344 0 -567 169 -578 438zM682 -509h-258l132 358h292z" />
    <glyph glyph-name="scommaaccent" unicode="&#x219;" horiz-adv-x="1160" 
d="M121 779c0 209 184 348 459 348c280 0 445 -117 461 -328h-269c-15 71 -82 115 -190 115c-104 0 -181 -47 -181 -117c0 -54 47 -87 149 -110l207 -45c214 -47 310 -137 310 -302c0 -220 -197 -364 -486 -364c-291 0 -467 119 -487 331h284c22 -75 93 -118 209 -118
c113 0 191 47 191 118c0 54 -42 87 -139 108l-200 45c-214 47 -318 149 -318 319zM575 -509h-258l132 358h292z" />
    <glyph glyph-name="Tcommaaccent" unicode="&#x21a;" horiz-adv-x="1352" 
d="M667 -509h-258l132 358h292zM827 0h-302v1185h-433v258h1168v-258h-433v-1185z" />
    <glyph glyph-name="tcommaaccent" unicode="&#x21b;" horiz-adv-x="845" 
d="M478 -509h-258l132 358h292zM229 1365h291v-273h229v-229h-229v-496c0 -96 44 -140 143 -140c38 0 58 1 86 4v-222c-36 -7 -90 -13 -146 -13c-268 0 -374 87 -374 302v565h-172v229h172v273z" />
    <glyph glyph-name="Hcaron" unicode="&#x21e;" horiz-adv-x="1604" 
d="M1429 0h-302v603h-650v-603h-302v1443h302v-582h650v582h302v-1443zM929 1590h-254l-281 318h253l145 -173h20l145 173h253z" />
    <glyph glyph-name="hcaron" unicode="&#x21f;" horiz-adv-x="1307" 
d="M156 0v1524h286v-602h18c51 126 171 202 333 202c237 0 378 -149 378 -414v-710h-291v641c0 153 -71 232 -203 232c-146 0 -230 -97 -230 -240v-633h-291zM426 1671h-254l-281 318h253l145 -173h20l145 173h253z" />
    <glyph glyph-name="Adotaccent" unicode="&#x226;" horiz-adv-x="1500" 
d="M1102 0l-109 344h-507l-111 -344h-303l501 1443h355l501 -1443h-327zM732 1143l-181 -566h378l-179 566h-18zM750 1579c-93 0 -158 68 -158 158s65 158 158 158c92 0 157 -68 157 -158s-65 -158 -157 -158z" />
    <glyph glyph-name="adotaccent" unicode="&#x227;" horiz-adv-x="1208" 
d="M544 202c135 0 237 86 237 198v81l-223 -14c-125 -9 -186 -54 -186 -133c0 -82 71 -132 172 -132zM448 -17c-212 0 -361 130 -361 332c0 200 153 316 427 332l267 16v90c0 92 -66 144 -186 144c-105 0 -175 -36 -199 -102h-268c19 204 206 332 483 332
c292 0 457 -138 457 -374v-753h-282v144h-18c-57 -101 -177 -161 -320 -161zM611 1278c-94 0 -161 69 -161 160c0 92 67 161 161 161s161 -69 161 -161c0 -91 -67 -160 -161 -160z" />
    <glyph glyph-name="Ecedilla" unicode="&#x228;" horiz-adv-x="1274" 
d="M1131 1185h-654v-337h617v-239h-617v-351h654v-258h-380l-46 -112c126 -6 196 -69 196 -177c0 -127 -96 -204 -267 -204c-58 0 -110 7 -147 17v135c21 -8 77 -14 116 -14c74 0 112 20 112 59s-38 56 -130 56h-60v115l52 125h-402v1443h956v-258z" />
    <glyph glyph-name="ecedilla" unicode="&#x229;" horiz-adv-x="1231" 
d="M383 667h470c-6 146 -94 237 -230 237c-135 0 -230 -94 -240 -237zM1139 481h-757v-15c4 -164 100 -266 252 -266c115 0 194 41 225 114h271c-39 -184 -192 -307 -414 -333l-38 -93c126 -6 196 -69 196 -177c0 -127 -96 -204 -267 -204c-58 0 -110 7 -147 17v135
c21 -8 77 -14 116 -14c74 0 112 20 112 59s-38 56 -130 56h-60v115l44 106c-285 33 -450 238 -450 565c0 359 202 581 530 581c325 0 517 -207 517 -557v-89z" />
    <glyph glyph-name="Odieresismacron" unicode="&#x22a;" horiz-adv-x="1610" 
d="M806 1480c426 0 693 -291 693 -758c0 -468 -266 -759 -693 -759c-428 0 -695 291 -695 759s271 758 695 758zM806 1215c-234 0 -386 -191 -386 -493c0 -301 149 -494 386 -494c235 0 385 193 385 494c0 302 -150 493 -385 493zM433 1996v168h746v-168h-746zM572 1579
c-89 0 -154 63 -154 150s65 150 154 150c88 0 153 -63 153 -150s-65 -150 -153 -150zM1040 1579c-88 0 -153 63 -153 150s65 150 153 150c89 0 154 -63 154 -150s-65 -150 -154 -150z" />
    <glyph glyph-name="odieresismacron" unicode="&#x22b;" horiz-adv-x="1269" 
d="M414 1251c-86 0 -147 64 -147 145c0 82 61 145 147 145c85 0 145 -63 145 -145c0 -81 -60 -145 -145 -145zM856 1251c-85 0 -145 64 -145 145c0 82 60 145 145 145c86 0 147 -63 147 -145c0 -81 -61 -145 -147 -145zM1003 1678h-735v180h735v-180zM635 214
c155 0 244 124 244 338c0 212 -90 337 -244 337c-155 0 -244 -125 -244 -337c0 -215 88 -338 244 -338zM635 -24c-339 0 -543 215 -543 576c0 357 207 575 543 575s543 -217 543 -575c0 -361 -204 -576 -543 -576z" />
    <glyph glyph-name="Otildemacron" unicode="&#x22c;" horiz-adv-x="1610" 
d="M1179 1986h-746v178h746v-178zM960 1579c-161 0 -188 121 -285 121c-50 0 -83 -35 -86 -110h-184c0 180 105 284 247 284c161 0 188 -120 285 -120c46 0 82 30 87 107h183c0 -176 -105 -282 -247 -282zM806 1480c426 0 693 -291 693 -758c0 -468 -266 -759 -693 -759
c-428 0 -695 291 -695 759s271 758 695 758zM806 1215c-234 0 -386 -191 -386 -493c0 -301 149 -494 386 -494c235 0 385 193 385 494c0 302 -150 493 -385 493z" />
    <glyph glyph-name="otildemacron" unicode="&#x22d;" horiz-adv-x="1269" 
d="M496 1397c-57 0 -87 -48 -88 -141h-187c0 193 104 321 261 321c151 0 200 -144 278 -144c57 0 87 45 88 138h187c0 -192 -103 -318 -261 -318c-151 0 -200 144 -278 144zM1003 1680h-735v180h735v-180zM635 214c155 0 244 124 244 338c0 212 -90 337 -244 337
c-155 0 -244 -125 -244 -337c0 -215 88 -338 244 -338zM635 -24c-339 0 -543 215 -543 576c0 357 207 575 543 575s543 -217 543 -575c0 -361 -204 -576 -543 -576z" />
    <glyph glyph-name="Odotaccent" unicode="&#x22e;" horiz-adv-x="1610" 
d="M806 1579c-93 0 -158 68 -158 158s65 158 158 158c92 0 157 -68 157 -158s-65 -158 -157 -158zM806 1480c426 0 693 -291 693 -758c0 -468 -266 -759 -693 -759c-428 0 -695 291 -695 759s271 758 695 758zM806 1215c-234 0 -386 -191 -386 -493
c0 -301 149 -494 386 -494c235 0 385 193 385 494c0 302 -150 493 -385 493z" />
    <glyph glyph-name="odotaccent" unicode="&#x22f;" horiz-adv-x="1269" 
d="M635 1278c-94 0 -161 69 -161 160c0 92 67 161 161 161s161 -69 161 -161c0 -91 -67 -160 -161 -160zM635 214c155 0 244 124 244 338c0 212 -90 337 -244 337c-155 0 -244 -125 -244 -337c0 -215 88 -338 244 -338zM635 -24c-339 0 -543 215 -543 576
c0 357 207 575 543 575s543 -217 543 -575c0 -361 -204 -576 -543 -576z" />
    <glyph glyph-name="Odotaccentmacron" unicode="&#x230;" horiz-adv-x="1610" 
d="M806 1575c-91 0 -156 64 -156 150c0 85 65 148 156 148s156 -63 156 -148c0 -86 -65 -150 -156 -150zM1179 1996h-746v168h746v-168zM806 1480c426 0 693 -291 693 -758c0 -468 -266 -759 -693 -759c-428 0 -695 291 -695 759s271 758 695 758zM806 1215
c-234 0 -386 -191 -386 -493c0 -301 149 -494 386 -494c235 0 385 193 385 494c0 302 -150 493 -385 493z" />
    <glyph glyph-name="odotaccentmacron" unicode="&#x231;" horiz-adv-x="1269" 
d="M635 214c155 0 244 124 244 338c0 212 -90 337 -244 337c-155 0 -244 -125 -244 -337c0 -215 88 -338 244 -338zM635 -24c-339 0 -543 215 -543 576c0 357 207 575 543 575s543 -217 543 -575c0 -361 -204 -576 -543 -576zM635 1251c-89 0 -151 65 -151 149
c0 86 62 151 151 151s151 -65 151 -151c0 -84 -62 -149 -151 -149zM1003 1678h-735v180h735v-180z" />
    <glyph glyph-name="Ymacron" unicode="&#x232;" horiz-adv-x="1452" 
d="M877 0h-302v531l-503 912h327l318 -604h18l317 604h327l-502 -912v-531zM1099 1632h-746v181h746v-181z" />
    <glyph glyph-name="ymacron" unicode="&#x233;" horiz-adv-x="1223" 
d="M283 -401c-11 0 -99 1 -111 3v234c10 -2 54 -2 66 -2c109 0 171 35 195 119l10 40l-387 1110h321l232 -836h18l232 836h308l-380 -1120c-94 -284 -229 -384 -504 -384zM984 1316h-735v180h735v-180z" />
    <glyph glyph-name="dotlessj" unicode="&#x237;" horiz-adv-x="587" 
d="M439 1103v-1137c0 -226 -135 -342 -390 -342c-21 0 -66 2 -78 4v223c6 -1 28 -1 37 -1c102 0 140 36 140 124v1129h291z" />
    <glyph glyph-name="quoteright" unicode="&#x2bc;" horiz-adv-x="651" 
d="M377 831h-245l107 612h280z" />
    <glyph glyph-name="quoteright" unicode="&#x2019;" horiz-adv-x="651" 
d="M377 831h-245l107 612h280z" />
    <glyph glyph-name="circumflex" unicode="&#x2c6;" horiz-adv-x="1099" 
d="M695 1605l275 -354h-263l-148 209h-18l-149 -209h-263l275 354h291z" />
    <glyph glyph-name="caron" unicode="&#x2c7;" horiz-adv-x="1099" 
d="M695 1251h-291l-275 354h263l149 -209h18l148 209h263z" />
    <glyph glyph-name="breve" unicode="&#x2d8;" horiz-adv-x="1048" 
d="M125 1602h207c2 -107 73 -178 192 -178s190 71 192 178h208c0 -205 -152 -351 -400 -351s-399 146 -399 351z" />
    <glyph glyph-name="dotaccent" unicode="&#x2d9;" horiz-adv-x="1048" 
d="M524 1278c-94 0 -161 69 -161 160c0 92 67 161 161 161s161 -69 161 -161c0 -91 -67 -160 -161 -160z" />
    <glyph glyph-name="ring" unicode="&#x2da;" horiz-adv-x="1099" 
d="M550 1251c-140 0 -246 102 -246 241c0 137 106 238 246 238s245 -101 245 -238c0 -139 -105 -241 -245 -241zM550 1387c61 0 105 44 105 104c0 59 -45 103 -105 103c-61 0 -106 -44 -106 -103c0 -61 45 -104 106 -104z" />
    <glyph glyph-name="ogonek" unicode="&#x2db;" horiz-adv-x="1048" 
d="M585 -466c-154 0 -253 80 -253 207c0 100 54 178 179 264l12 9h190l-54 -40c-80 -57 -122 -115 -122 -172c0 -56 45 -91 118 -91c30 0 53 3 74 9v-162c-38 -15 -93 -24 -144 -24z" />
    <glyph glyph-name="tilde" unicode="&#x2dc;" horiz-adv-x="1098" 
d="M417 1411c-57 0 -87 -48 -88 -141h-187c0 193 104 321 261 321c151 0 200 -144 278 -144c57 0 87 45 88 138h187c0 -192 -103 -318 -261 -318c-151 0 -200 144 -278 144z" />
    <glyph glyph-name="hungarumlaut" unicode="&#x2dd;" horiz-adv-x="1048" 
d="M503 1281l212 353h259l-242 -353h-229zM67 1281l212 353h259l-242 -353h-229z" />
    <glyph glyph-name="gravecmb" unicode="&#x300;" 
d="M159 1281h-269l-287 353h309z" />
    <glyph glyph-name="acutecmb" unicode="&#x301;" 
d="M-155 1281l247 353h309l-287 -353h-269z" />
    <glyph glyph-name="circumflexcmb" unicode="&#x302;" 
d="M145 1605l275 -354h-263l-148 209h-18l-149 -209h-263l275 354h291z" />
    <glyph glyph-name="tildecmb" unicode="&#x303;" 
d="M-127 1397c-57 0 -87 -48 -88 -141h-187c0 193 104 321 261 321c151 0 200 -144 278 -144c57 0 87 45 88 138h187c0 -192 -103 -318 -261 -318c-151 0 -200 144 -278 144z" />
    <glyph glyph-name="macroncmb" unicode="&#x304;" 
d="M368 1316h-735v180h735v-180z" />
    <glyph glyph-name="brevecmb" unicode="&#x306;" 
d="M-400 1602h207c2 -107 73 -178 192 -178s190 71 192 178h208c0 -205 -152 -351 -400 -351s-399 146 -399 351z" />
    <glyph glyph-name="dotaccentcmb" unicode="&#x307;" 
d="M0 1278c-94 0 -161 69 -161 160c0 92 67 161 161 161s161 -69 161 -161c0 -91 -67 -160 -161 -160z" />
    <glyph glyph-name="dieresiscmb" unicode="&#x308;" 
d="M-234 1251c-90 0 -155 64 -155 152s65 151 155 151s155 -63 155 -151s-65 -152 -155 -152zM234 1251c-89 0 -155 64 -155 152s66 151 155 151c90 0 156 -63 156 -151s-66 -152 -156 -152z" />
    <glyph glyph-name="hookabovecmb" unicode="&#x309;" 
d="M-179 1497v155c35 13 92 25 157 25c149 0 252 -83 252 -212c0 -111 -77 -201 -201 -249l-94 115c64 23 108 63 108 107c0 46 -42 78 -109 78c-44 0 -87 -8 -113 -19z" />
    <glyph glyph-name="ringcmb" unicode="&#x30a;" 
d="M0 1251c-140 0 -246 102 -246 241c0 137 106 238 246 238s245 -101 245 -238c0 -139 -105 -241 -245 -241zM0 1387c61 0 105 44 105 104c0 59 -45 103 -105 103c-61 0 -106 -44 -106 -103c0 -61 45 -104 106 -104z" />
    <glyph glyph-name="hungarumlautcmb" unicode="&#x30b;" 
d="M77 1281l212 353h259l-242 -353h-229zM-359 1281l212 353h259l-242 -353h-229z" />
    <glyph glyph-name="caroncmb" unicode="&#x30c;" 
d="M145 1251h-291l-275 354h263l149 -209h18l148 209h263z" />
    <glyph glyph-name="dblgravecmb" unicode="&#x30f;" 
d="M-85 1281h-230l-241 353h258zM351 1281h-230l-241 353h258z" />
    <glyph glyph-name="invertedbrevecmb" unicode="&#x311;" 
d="M-400 1251c0 205 152 351 400 351s400 -146 400 -351h-208c-2 107 -73 178 -192 178s-190 -71 -192 -178h-208z" />
    <glyph glyph-name="horncmb" unicode="&#x31b;" 
d="M0 910v208c22 -14 46 -20 72 -19c58 4 83 40 83 124v158h231v-215c0 -174 -99 -283 -252 -283c-51 0 -106 11 -134 27z" />
    <glyph glyph-name="dotbelowcmb" unicode="&#x323;" 
d="M0 -419c-95 0 -157 59 -157 140c0 80 62 139 157 139s157 -59 157 -139c0 -81 -62 -140 -157 -140z" />
    <glyph glyph-name="dieresisbelowcmb" unicode="&#x324;" 
d="M-234 -432c-94 0 -156 58 -156 139s62 139 156 139c95 0 157 -58 157 -139s-62 -139 -157 -139zM234 -432c-95 0 -157 58 -157 139s62 139 157 139c94 0 156 -58 156 -139s-62 -139 -156 -139z" />
    <glyph glyph-name="ringbelowcmb" unicode="&#x325;" 
d="M0 -570c-140 0 -246 102 -246 241c0 137 106 238 246 238s245 -101 245 -238c0 -139 -105 -241 -245 -241zM0 -434c61 0 105 44 105 104c0 59 -45 103 -105 103c-61 0 -106 -44 -106 -103c0 -61 45 -104 106 -104z" />
    <glyph glyph-name="commabelowcmb" unicode="&#x326;" 
d="M-6 -509h-258l132 358h292z" />
    <glyph glyph-name="cedillacmb" unicode="&#x327;" 
d="M-128 -240v115l55 132h174l-49 -119c126 -6 196 -69 196 -177c0 -127 -96 -204 -267 -204c-58 0 -110 7 -147 17v135c21 -8 77 -14 116 -14c74 0 112 20 112 59s-38 56 -130 56h-60z" />
    <glyph glyph-name="ogonekcmb" unicode="&#x328;" 
d="M6 -469c-154 0 -253 80 -253 207c0 100 54 178 179 264l12 9h190l-54 -40c-80 -57 -122 -115 -122 -172c0 -56 45 -91 118 -91c30 0 53 3 74 9v-162c-38 -15 -93 -24 -144 -24z" />
    <glyph glyph-name="circumflexbelowcmb" unicode="&#x32d;" 
d="M148 -152l286 -280h-284l-141 153h-18l-141 -153h-284l286 280h296z" />
    <glyph glyph-name="brevebelowcmb" unicode="&#x32e;" 
d="M-400 -113h210c0 -91 71 -155 190 -155s190 64 190 155h210c0 -180 -147 -319 -400 -319s-400 139 -400 319z" />
    <glyph glyph-name="tildebelowcmb" unicode="&#x330;" 
d="M159 -428c-161 0 -198 133 -297 133c-47 0 -83 -29 -85 -117h-183c0 192 103 292 247 292c167 0 208 -132 297 -132c44 0 83 24 86 113h182c0 -187 -103 -289 -247 -289z" />
    <glyph glyph-name="macronbelowcmb" unicode="&#x331;" 
d="M373 -401h-746v181h746v-181z" />
    <glyph glyph-name="greekquestionmark" unicode="&#x37e;" horiz-adv-x="712" 
d="M372 -388h-234l79 635h288zM356 711c-107 0 -177 73 -177 174s70 173 177 173c108 0 177 -72 177 -173s-69 -174 -177 -174z" />
    <glyph glyph-name="tonosgreek" unicode="&#x384;" horiz-adv-x="924" 
d="M260 1267l83 378h299l-145 -378h-237z" />
    <glyph glyph-name="dieresistonosgreek" unicode="&#x385;" horiz-adv-x="1446" 
d="M344 1267c-84 0 -145 59 -145 141s61 142 145 142s145 -60 145 -142s-61 -141 -145 -141zM1102 1267c-84 0 -145 59 -145 141s61 142 145 142s145 -60 145 -142s-61 -141 -145 -141zM588 1267l25 378h275l-86 -378h-214z" />
    <glyph glyph-name="Alphatonosgreek" unicode="&#x386;" horiz-adv-x="1567" 
d="M1169 0l-109 344h-507l-111 -344h-303l501 1443h355l501 -1443h-327zM799 1143l-181 -566h378l-179 566h-18zM69 1065l83 378h299l-145 -378h-237z" />
    <glyph glyph-name="anoteleia" unicode="&#x387;" horiz-adv-x="723" 
d="M362 746c-113 0 -183 72 -183 178s70 179 183 179s182 -73 182 -179s-69 -178 -182 -178z" />
    <glyph glyph-name="Epsilontonosgreek" unicode="&#x388;" horiz-adv-x="1713" 
d="M77 1065l83 378h299l-145 -378h-237zM1571 258v-258h-956v1443h956v-258h-654v-337h617v-239h-617v-351h654z" />
    <glyph glyph-name="Etatonosgreek" unicode="&#x389;" horiz-adv-x="2044" 
d="M77 1065l83 378h299l-145 -378h-237zM1869 0h-302v603h-650v-603h-302v1443h302v-582h650v582h302v-1443z" />
    <glyph glyph-name="Iotatonosgreek" unicode="&#x38a;" horiz-adv-x="1092" 
d="M917 0h-302v1443h302v-1443zM77 1065l83 378h299l-145 -378h-237z" />
    <glyph glyph-name="Omicrontonosgreek" unicode="&#x38c;" horiz-adv-x="1925" 
d="M1121 1480c426 0 693 -291 693 -758c0 -468 -266 -759 -693 -759c-428 0 -695 291 -695 759s271 758 695 758zM1121 1215c-234 0 -386 -191 -386 -493c0 -301 149 -494 386 -494c235 0 385 193 385 494c0 302 -150 493 -385 493zM77 1065l83 378h299l-145 -378h-237z" />
    <glyph glyph-name="Upsilontonosgreek" unicode="&#x38e;" horiz-adv-x="1916" 
d="M77 1065l83 378h299l-145 -378h-237zM1342 0h-302v531l-503 912h327l318 -604h18l317 604h327l-502 -912v-531z" />
    <glyph glyph-name="Omegatonosgreek" unicode="&#x38f;" horiz-adv-x="1953" 
d="M442 0v247h282v18c-176 104 -282 310 -282 546c0 396 284 669 698 669s699 -273 699 -669c0 -236 -106 -442 -282 -546v-18h282v-247h-577v314c186 107 273 258 273 473c0 263 -152 428 -395 428c-242 0 -395 -165 -395 -428c0 -215 88 -366 274 -473v-314h-577zM77 1065
l83 378h299l-145 -378h-237z" />
    <glyph glyph-name="iotadieresistonosgreek" unicode="&#x390;" horiz-adv-x="704" 
d="M512 -4c-266 0 -366 89 -366 303v804h291v-736c0 -94 40 -140 140 -140c23 0 42 1 70 4v-222c-36 -7 -83 -13 -135 -13zM-69 1267c-84 0 -145 59 -145 141s61 142 145 142s145 -60 145 -142s-61 -141 -145 -141zM689 1267c-84 0 -145 59 -145 141s61 142 145 142
s145 -60 145 -142s-61 -141 -145 -141zM175 1267l25 378h275l-86 -378h-214z" />
    <glyph glyph-name="Alphagreek" unicode="&#x391;" horiz-adv-x="1500" 
d="M1102 0l-109 344h-507l-111 -344h-303l501 1443h355l501 -1443h-327zM732 1143l-181 -566h378l-179 566h-18z" />
    <glyph glyph-name="Betagreek" unicode="&#x392;" horiz-adv-x="1420" 
d="M823 0h-648v1443h631c280 0 447 -137 447 -360c0 -153 -113 -286 -261 -308v-18c191 -14 330 -158 330 -344c0 -253 -191 -413 -499 -413zM477 1212v-367h227c163 0 252 67 252 183c0 115 -83 184 -227 184h-252zM477 231h269c174 0 268 73 268 208
c0 132 -97 202 -275 202h-262v-410z" />
    <glyph glyph-name="Gammagreek" unicode="&#x393;" horiz-adv-x="1204" 
d="M175 0v1443h925v-258h-623v-1185h-302z" />
    <glyph glyph-name="Deltagreek" unicode="&#x394;" horiz-adv-x="1506" 
d="M114 0v177l462 1266h355l462 -1266v-177h-1279zM430 258h625v18l-302 877h-18l-305 -877v-18z" />
    <glyph glyph-name="Deltagreek" unicode="&#x2206;" horiz-adv-x="1506" 
d="M114 0v177l462 1266h355l462 -1266v-177h-1279zM430 258h625v18l-302 877h-18l-305 -877v-18z" />
    <glyph glyph-name="Epsilongreek" unicode="&#x395;" horiz-adv-x="1274" 
d="M1131 258v-258h-956v1443h956v-258h-654v-337h617v-239h-617v-351h654z" />
    <glyph glyph-name="Zetagreek" unicode="&#x396;" horiz-adv-x="1384" 
d="M135 0v204l726 963v18h-709v258h1077v-203l-724 -964v-18h744v-258h-1114z" />
    <glyph glyph-name="Etagreek" unicode="&#x397;" horiz-adv-x="1604" 
d="M1429 0h-302v603h-650v-603h-302v1443h302v-582h650v582h302v-1443z" />
    <glyph glyph-name="Thetagreek" unicode="&#x398;" horiz-adv-x="1670" 
d="M579 591v252h511v-252h-511zM836 223c255 0 413 183 413 499c0 317 -159 498 -413 498s-414 -181 -414 -498c0 -316 157 -499 414 -499zM836 -37c-451 0 -725 279 -725 759c0 484 274 758 725 758c452 0 723 -274 723 -758c0 -479 -273 -759 -723 -759z" />
    <glyph glyph-name="Iotagreek" unicode="&#x399;" horiz-adv-x="652" 
d="M477 0h-302v1443h302v-1443z" />
    <glyph glyph-name="Kappagreek" unicode="&#x39a;" horiz-adv-x="1453" 
d="M477 0h-302v1443h302v-643h18l533 643h336l-526 -633l563 -810h-362l-419 604l-143 -169v-435z" />
    <glyph glyph-name="Lambdagreek" unicode="&#x39b;" horiz-adv-x="1474" 
d="M79 0l481 1443h355l481 -1443h-332l-325 1128h-18l-334 -1128h-308z" />
    <glyph glyph-name="Mugreek" unicode="&#x39c;" horiz-adv-x="1879" 
d="M455 0h-280v1443h356l399 -970h18l400 970h355v-1443h-280v965h-16l-367 -882h-201l-368 882h-16v-965z" />
    <glyph glyph-name="Nugreek" unicode="&#x39d;" horiz-adv-x="1573" 
d="M464 0h-289v1443h252l664 -899h18v899h289v-1443h-250l-666 903h-18v-903z" />
    <glyph glyph-name="Xigreek" unicode="&#x39e;" horiz-adv-x="1373" 
d="M143 0v265h1087v-265h-1087zM230 604v246h913v-246h-913zM143 1178v265h1087v-265h-1087z" />
    <glyph glyph-name="Omicrongreek" unicode="&#x39f;" horiz-adv-x="1610" 
d="M806 1480c426 0 693 -291 693 -758c0 -468 -266 -759 -693 -759c-428 0 -695 291 -695 759s271 758 695 758zM806 1215c-234 0 -386 -191 -386 -493c0 -301 149 -494 386 -494c235 0 385 193 385 494c0 302 -150 493 -385 493z" />
    <glyph glyph-name="Pigreek" unicode="&#x3a0;" horiz-adv-x="1584" 
d="M175 0v1443h1234v-1443h-302v1185h-630v-1185h-302z" />
    <glyph glyph-name="Rhogreek" unicode="&#x3a1;" horiz-adv-x="1380" 
d="M175 1443h602c297 0 500 -199 500 -499c0 -297 -211 -496 -515 -496h-285v-448h-302v1443zM477 1195v-502h219c173 0 274 88 274 250c0 164 -99 252 -273 252h-220z" />
    <glyph glyph-name="Sigmagreek" unicode="&#x3a3;" horiz-adv-x="1364" 
d="M135 0v191l377 532l-356 495v225h1052v-258h-669v-18l292 -415v-36l-315 -440v-18h713v-258h-1094z" />
    <glyph glyph-name="Taugreek" unicode="&#x3a4;" horiz-adv-x="1352" 
d="M827 0h-302v1185h-433v258h1168v-258h-433v-1185z" />
    <glyph glyph-name="Upsilongreek" unicode="&#x3a5;" horiz-adv-x="1452" 
d="M877 0h-302v531l-503 912h327l318 -604h18l317 604h327l-502 -912v-531z" />
    <glyph glyph-name="Phigreek" unicode="&#x3a6;" horiz-adv-x="1865" 
d="M794 -110v151c-410 20 -693 284 -693 673s283 652 693 672v153h277v-153c411 -20 693 -283 693 -672s-282 -653 -693 -673v-151h-277zM794 288v851c-242 -19 -396 -168 -396 -425c0 -258 154 -406 396 -426zM1071 288c242 20 397 169 397 426c0 256 -155 406 -397 425
v-851z" />
    <glyph glyph-name="Chigreek" unicode="&#x3a7;" horiz-adv-x="1494" 
d="M88 0l461 727l-458 716h355l301 -505h18l304 505h338l-475 -721l468 -722h-344l-310 489h-18l-314 -489h-326z" />
    <glyph glyph-name="Psigreek" unicode="&#x3a8;" horiz-adv-x="1779" 
d="M746 0v306c-368 7 -598 236 -598 598v539h287v-543c0 -211 107 -326 311 -341v884h287v-884c205 15 312 130 312 341v543h287v-539c0 -362 -230 -591 -599 -598v-306h-287z" />
    <glyph glyph-name="Omegagreek" unicode="&#x3a9;" horiz-adv-x="1626" 
d="M115 0v247h282v18c-176 104 -282 310 -282 546c0 396 284 669 698 669s699 -273 699 -669c0 -236 -106 -442 -282 -546v-18h282v-247h-577v314c186 107 273 258 273 473c0 263 -152 428 -395 428c-242 0 -395 -165 -395 -428c0 -215 88 -366 274 -473v-314h-577z" />
    <glyph glyph-name="Omegagreek" unicode="&#x2126;" horiz-adv-x="1626" 
d="M115 0v247h282v18c-176 104 -282 310 -282 546c0 396 284 669 698 669s699 -273 699 -669c0 -236 -106 -442 -282 -546v-18h282v-247h-577v314c186 107 273 258 273 473c0 263 -152 428 -395 428c-242 0 -395 -165 -395 -428c0 -215 88 -366 274 -473v-314h-577z" />
    <glyph glyph-name="Iotadieresisgreek" unicode="&#x3aa;" horiz-adv-x="652" 
d="M477 0h-302v1443h302v-1443zM92 1579c-90 0 -155 64 -155 152s65 151 155 151s155 -63 155 -151s-65 -152 -155 -152zM560 1579c-89 0 -155 64 -155 152s66 151 155 151c90 0 156 -63 156 -151s-66 -152 -156 -152z" />
    <glyph glyph-name="Upsilondieresisgreek" unicode="&#x3ab;" horiz-adv-x="1452" 
d="M877 0h-302v531l-503 912h327l318 -604h18l317 604h327l-502 -912v-531zM492 1579c-90 0 -155 64 -155 152s65 151 155 151s155 -63 155 -151s-65 -152 -155 -152zM960 1579c-89 0 -155 64 -155 152s66 151 155 151c90 0 156 -63 156 -151s-66 -152 -156 -152z" />
    <glyph glyph-name="alphatonosgreek" unicode="&#x3ac;" horiz-adv-x="1366" 
d="M541 -17c-282 0 -454 213 -454 570c0 351 173 568 447 568c153 0 264 -76 318 -219h18v201h283v-760c0 -94 31 -123 91 -123c17 0 38 3 52 8v-221c-29 -10 -89 -17 -142 -17c-142 0 -232 55 -263 174l-9 26h-18c-48 -128 -171 -207 -323 -207zM614 226
c153 0 251 127 251 325c0 196 -95 326 -240 326s-239 -124 -239 -325s90 -326 228 -326zM491 1267l83 378h299l-145 -378h-237z" />
    <glyph glyph-name="epsilontonosgreek" unicode="&#x3ad;" horiz-adv-x="1181" 
d="M476 1267l83 378h299l-145 -378h-237zM587 -25c-306 0 -490 127 -490 322c0 121 67 211 191 253v18c-116 47 -169 120 -169 233c0 200 187 325 476 325c294 0 484 -124 515 -363h-285c-25 90 -106 132 -226 132c-115 0 -194 -45 -194 -121c0 -70 61 -111 187 -111h136
v-216h-135c-130 0 -198 -45 -198 -118c0 -77 73 -123 197 -123c126 0 219 53 248 157h298c-32 -232 -263 -388 -551 -388z" />
    <glyph glyph-name="etatonosgreek" unicode="&#x3ae;" horiz-adv-x="1359" 
d="M236 0v760c0 88 -31 123 -93 123c-18 0 -38 -3 -55 -8v221c34 10 89 17 142 17c148 0 241 -56 277 -188l4 -17h18c51 136 169 219 322 219c240 0 372 -151 372 -417v-1076h-291v1007c0 156 -64 235 -198 235c-126 0 -207 -88 -207 -243v-633h-291zM500 1267l83 378h299
l-145 -378h-237z" />
    <glyph glyph-name="iotatonosgreek" unicode="&#x3af;" horiz-adv-x="704" 
d="M512 -4c-266 0 -366 89 -366 303v804h291v-736c0 -94 40 -140 140 -140c23 0 42 1 70 4v-222c-36 -7 -83 -13 -135 -13zM165 1267l83 378h299l-145 -378h-237z" />
    <glyph glyph-name="upsilondieresistonosgreek" unicode="&#x3b0;" horiz-adv-x="1210" 
d="M213 1267c-84 0 -145 59 -145 141s61 142 145 142s145 -60 145 -142s-61 -141 -145 -141zM971 1267c-84 0 -145 59 -145 141s61 142 145 142s145 -60 145 -142s-61 -141 -145 -141zM457 1267l25 378h275l-86 -378h-214zM605 -24c-309 0 -479 162 -479 478v649h276v-612
c0 -178 66 -262 206 -262c138 0 213 104 213 340c0 214 -29 359 -101 534h281c63 -138 102 -324 102 -506c0 -427 -191 -621 -498 -621z" />
    <glyph glyph-name="alphagreek" unicode="&#x3b1;" horiz-adv-x="1366" 
d="M541 -17c-282 0 -454 213 -454 570c0 351 173 568 447 568c153 0 264 -76 318 -219h18v201h283v-760c0 -94 31 -123 91 -123c17 0 38 3 52 8v-221c-29 -10 -89 -17 -142 -17c-142 0 -232 55 -263 174l-9 26h-18c-48 -128 -171 -207 -323 -207zM614 226
c153 0 251 127 251 325c0 196 -95 326 -240 326s-239 -124 -239 -325s90 -326 228 -326z" />
    <glyph glyph-name="betagreek" unicode="&#x3b2;" horiz-adv-x="1314" 
d="M146 -366v1365c0 359 175 549 496 549c284 0 470 -150 470 -396c0 -137 -77 -257 -200 -310v-18c205 -50 310 -185 310 -401c0 -267 -174 -440 -443 -440c-152 0 -274 72 -324 186h-18v-535h-291zM700 226c133 0 224 92 224 227c0 159 -103 244 -292 244h-72v222h68
c140 0 218 72 218 193c0 123 -77 198 -200 198c-139 0 -210 -92 -210 -269v-505c0 -205 101 -310 264 -310z" />
    <glyph glyph-name="gammagreek" unicode="&#x3b3;" horiz-adv-x="1193" 
d="M416 -361v299l-370 1165h304l230 -836h18c147 224 205 405 205 633c0 88 -9 143 -23 203h285c14 -57 24 -139 24 -202c0 -271 -108 -568 -387 -939v-323h-286z" />
    <glyph glyph-name="deltagreek" unicode="&#x3b4;" horiz-adv-x="1236" 
d="M613 -24c-330 0 -534 200 -534 520c0 249 159 432 378 482v19c-132 68 -190 150 -190 265c0 179 162 286 404 286c147 0 280 -31 375 -82v-220c-113 52 -227 81 -338 81c-87 0 -137 -33 -137 -88c0 -53 36 -84 153 -141c301 -168 425 -331 425 -596
c0 -309 -207 -526 -536 -526zM613 194c142 0 237 117 237 310c0 190 -99 314 -240 314c-136 0 -239 -117 -239 -314c0 -193 96 -310 242 -310z" />
    <glyph glyph-name="epsilongreek" unicode="&#x3b5;" horiz-adv-x="1181" 
d="M587 -24c-306 0 -490 127 -490 322c0 121 67 211 191 253v18c-116 47 -169 120 -169 233c0 200 187 325 476 325c294 0 484 -124 515 -363h-285c-25 90 -106 132 -226 132c-115 0 -194 -45 -194 -121c0 -70 61 -111 187 -111h136v-216h-135c-130 0 -198 -45 -198 -118
c0 -77 73 -123 197 -123c126 0 219 53 248 157h298c-32 -232 -263 -388 -551 -388z" />
    <glyph glyph-name="zetagreek" unicode="&#x3b6;" horiz-adv-x="1013" 
d="M865 -368l-217 86c48 71 77 126 77 186c0 79 -38 110 -197 165c-328 113 -444 258 -444 499c0 237 148 459 451 693v18h-365v245h799v-200c-437 -312 -591 -506 -591 -723c0 -135 57 -206 283 -286c265 -97 338 -173 338 -348c0 -94 -36 -198 -134 -335z" />
    <glyph glyph-name="etagreek" unicode="&#x3b7;" horiz-adv-x="1359" 
d="M236 0v760c0 88 -31 123 -93 123c-18 0 -38 -3 -55 -8v221c34 10 89 17 142 17c148 0 241 -56 277 -188l4 -17h18c51 136 169 219 322 219c240 0 372 -151 372 -417v-1076h-291v1007c0 156 -64 235 -198 235c-126 0 -207 -88 -207 -243v-633h-291z" />
    <glyph glyph-name="thetagreek" unicode="&#x3b8;" horiz-adv-x="1258" 
d="M629 -24c-358 0 -542 270 -542 790c0 512 189 782 542 782c352 0 542 -267 542 -783c0 -518 -186 -789 -542 -789zM379 883h500c-8 308 -91 441 -250 441c-161 0 -242 -136 -250 -441zM629 200c164 0 245 133 250 450h-500c5 -316 86 -450 250 -450z" />
    <glyph glyph-name="iotagreek" unicode="&#x3b9;" horiz-adv-x="704" 
d="M512 -4c-266 0 -366 89 -366 303v804h291v-736c0 -94 40 -140 140 -140c23 0 42 1 70 4v-222c-36 -7 -83 -13 -135 -13z" />
    <glyph glyph-name="kappagreek" unicode="&#x3ba;" horiz-adv-x="1269" 
d="M146 0v1103h277v-469h18l256 293c121 141 198 186 320 186c42 0 91 -7 124 -17v-221c-16 5 -40 8 -64 8c-66 0 -103 -22 -176 -102l-133 -152l412 -629h-309l-291 445l-157 -165v-280h-277z" />
    <glyph glyph-name="lambdagreek" unicode="&#x3bb;" horiz-adv-x="1224" 
d="M25 0l440 1039l-32 85c-62 159 -101 193 -223 193c-16 0 -32 -2 -62 -7v220c41 11 70 18 113 18c212 0 315 -84 434 -413l290 -799c33 -91 63 -116 138 -116c16 0 35 5 49 8v-221c-31 -10 -79 -17 -132 -17c-164 0 -238 54 -292 216l-157 461h-18l-257 -667h-291z" />
    <glyph glyph-name="nugreek" unicode="&#x3bd;" horiz-adv-x="1193" 
d="M729 0h-331l-352 1103h304l230 -836h18c148 226 205 407 205 634c0 85 -10 143 -23 202h285c14 -58 24 -137 24 -200c0 -266 -102 -550 -360 -903z" />
    <glyph glyph-name="xigreek" unicode="&#x3be;" horiz-adv-x="1050" 
d="M863 -367l-217 86c54 83 77 129 77 186c0 77 -30 107 -214 171c-322 112 -427 218 -427 391c0 151 91 252 262 297v17c-137 56 -200 130 -200 252c0 121 78 199 206 228v18h-202v245h814v-210l-124 -16c-311 -39 -412 -101 -412 -216c0 -99 74 -145 278 -145h181v-234
h-204c-209 0 -305 -65 -305 -173c0 -83 38 -129 291 -218c261 -94 330 -174 330 -341c0 -112 -41 -208 -134 -338z" />
    <glyph glyph-name="omicrongreek" unicode="&#x3bf;" horiz-adv-x="1244" 
d="M622 -24c-330 0 -535 215 -535 576c0 358 210 575 535 575c327 0 536 -216 536 -575c0 -361 -205 -576 -536 -576zM622 214c147 0 237 124 237 338c0 212 -92 337 -237 337s-236 -125 -236 -337c0 -214 89 -338 236 -338z" />
    <glyph glyph-name="pigreek" unicode="&#x3c0;" horiz-adv-x="1509" 
d="M311 0v859h-228v244h1320v-244h-224v-517c0 -95 29 -122 106 -122c22 0 41 3 58 8v-221c-31 -9 -80 -17 -133 -17c-202 0 -304 95 -304 302v567h-322v-859h-273z" />
    <glyph glyph-name="rhogreek" unicode="&#x3c1;" horiz-adv-x="1294" 
d="M131 -366v903c0 373 208 590 532 590c356 0 544 -232 544 -569c0 -363 -178 -575 -455 -575c-145 0 -258 69 -312 186h-18v-535h-291zM659 226c155 0 249 120 249 337c0 216 -95 326 -247 326c-153 0 -247 -122 -247 -342c0 -200 101 -321 245 -321z" />
    <glyph glyph-name="sigmafinalgreek" unicode="&#x3c2;" horiz-adv-x="1173" 
d="M1002 -33c0 -106 -45 -211 -134 -334l-217 86c54 80 77 131 77 185c0 77 -35 108 -198 165c-328 118 -443 244 -443 527c0 325 205 531 515 531c285 0 464 -151 490 -413h-272c-23 114 -91 174 -212 174c-133 0 -227 -102 -227 -274c0 -159 54 -216 285 -299
c262 -97 336 -172 336 -348z" />
    <glyph glyph-name="sigmagreek" unicode="&#x3c3;" horiz-adv-x="1385" 
d="M616 -24c-324 0 -529 212 -529 554c0 345 228 573 576 573h636v-244h-267v-19c70 -67 113 -185 113 -316c0 -333 -209 -548 -529 -548zM622 210c148 0 240 122 240 327c0 195 -103 318 -235 318c-145 0 -241 -126 -241 -318c0 -213 96 -327 236 -327z" />
    <glyph glyph-name="taugreek" unicode="&#x3c4;" horiz-adv-x="1127" 
d="M756 -4c-266 0 -374 87 -374 303v560h-329v244h978v-244h-358v-492c0 -96 46 -140 143 -140c40 0 65 1 87 4v-222c-31 -6 -85 -13 -147 -13z" />
    <glyph glyph-name="upsilongreek" unicode="&#x3c5;" horiz-adv-x="1210" 
d="M605 -24c-309 0 -479 162 -479 478v649h276v-612c0 -178 66 -262 206 -262c138 0 213 104 213 340c0 214 -29 359 -101 534h281c63 -138 102 -324 102 -506c0 -427 -191 -621 -498 -621z" />
    <glyph glyph-name="phigreek" unicode="&#x3c6;" horiz-adv-x="1597" 
d="M666 -366v342c-353 17 -584 231 -584 576c0 365 256 562 584 577v236h266v-236c327 -15 584 -212 584 -577c0 -345 -232 -559 -584 -576v-342h-266zM927 206c203 23 309 143 309 346c0 215 -120 325 -309 346v-692zM671 206v692c-190 -21 -309 -131 -309 -346
c0 -203 106 -323 309 -346z" />
    <glyph glyph-name="chigreek" unicode="&#x3c7;" horiz-adv-x="1219" 
d="M65 -366l402 731l-213 401c-48 93 -85 117 -151 117c-16 0 -31 -3 -47 -8v221c30 9 71 17 119 17c149 0 227 -53 302 -196l148 -280h18l244 466h283l-405 -739l210 -395c41 -79 74 -114 148 -114c17 0 32 2 49 8v-221c-31 -10 -80 -18 -132 -18c-133 0 -213 44 -278 175
l-154 300h-18l-243 -465h-282z" />
    <glyph glyph-name="psigreek" unicode="&#x3c8;" horiz-adv-x="1560" 
d="M638 -366v342c-335 5 -512 180 -512 474v653h276v-588c0 -211 72 -283 236 -286v1136h276v-1134c164 3 257 123 257 339c0 193 -33 371 -101 533h281c63 -124 102 -322 102 -515c0 -391 -197 -607 -539 -612v-342h-276z" />
    <glyph glyph-name="omegagreek" unicode="&#x3c9;" horiz-adv-x="1667" 
d="M514 -24c-257 0 -407 190 -407 537c0 229 64 444 174 590h293c-126 -188 -183 -372 -183 -588c0 -195 51 -286 160 -286c85 0 150 78 150 204v355h266v-355c0 -125 64 -204 151 -204c106 0 159 92 159 286c0 216 -58 400 -183 588h292c111 -146 175 -361 175 -590
c0 -342 -145 -537 -406 -537c-144 0 -247 69 -312 224h-18c-65 -155 -170 -224 -311 -224z" />
    <glyph glyph-name="iotadieresisgreek" unicode="&#x3ca;" horiz-adv-x="704" 
d="M512 -4c-266 0 -366 89 -366 303v804h291v-736c0 -94 40 -140 140 -140c23 0 42 1 70 4v-222c-36 -7 -83 -13 -135 -13zM47 1251c-90 0 -155 64 -155 152s65 151 155 151s155 -63 155 -151s-65 -152 -155 -152zM515 1251c-89 0 -155 64 -155 152s66 151 155 151
c90 0 156 -63 156 -151s-66 -152 -156 -152z" />
    <glyph glyph-name="upsilondieresisgreek" unicode="&#x3cb;" horiz-adv-x="1210" 
d="M346 1251c-90 0 -155 64 -155 152s65 151 155 151s155 -63 155 -151s-65 -152 -155 -152zM814 1251c-89 0 -155 64 -155 152s66 151 155 151c90 0 156 -63 156 -151s-66 -152 -156 -152zM605 -24c-309 0 -479 162 -479 478v649h276v-612c0 -178 66 -262 206 -262
c138 0 213 104 213 340c0 214 -29 359 -101 534h281c63 -138 102 -324 102 -506c0 -427 -191 -621 -498 -621z" />
    <glyph glyph-name="omicrontonosgreek" unicode="&#x3cc;" horiz-adv-x="1244" 
d="M622 -24c-330 0 -535 215 -535 576c0 358 210 575 535 575c327 0 536 -216 536 -575c0 -361 -205 -576 -536 -576zM622 214c147 0 237 124 237 338c0 212 -92 337 -237 337s-236 -125 -236 -337c0 -214 89 -338 236 -338zM484 1267l83 378h299l-145 -378h-237z" />
    <glyph glyph-name="upsilontonosgreek" unicode="&#x3cd;" horiz-adv-x="1210" 
d="M443 1267l83 378h299l-145 -378h-237zM605 -24c-309 0 -479 162 -479 478v649h276v-612c0 -178 66 -262 206 -262c138 0 213 104 213 340c0 214 -29 359 -101 534h281c63 -138 102 -324 102 -506c0 -427 -191 -621 -498 -621z" />
    <glyph glyph-name="omegatonosgreek" unicode="&#x3ce;" horiz-adv-x="1667" 
d="M514 -24c-257 0 -407 190 -407 537c0 229 64 444 174 590h293c-126 -188 -183 -372 -183 -588c0 -195 51 -286 160 -286c85 0 150 78 150 204v355h266v-355c0 -125 64 -204 151 -204c106 0 159 92 159 286c0 216 -58 400 -183 588h292c111 -146 175 -361 175 -590
c0 -342 -145 -537 -406 -537c-144 0 -247 69 -312 224h-18c-65 -155 -170 -224 -311 -224zM707 1267l83 378h299l-145 -378h-237z" />
    <glyph glyph-name="Iocyrillic" unicode="&#x401;" horiz-adv-x="1294" 
d="M429 1579c-90 0 -155 64 -155 152s65 151 155 151s155 -63 155 -151s-65 -152 -155 -152zM897 1579c-89 0 -155 64 -155 152s66 151 155 151c90 0 156 -63 156 -151s-66 -152 -156 -152zM1141 258v-258h-956v1443h956v-258h-654v-337h617v-239h-617v-351h654z" />
    <glyph glyph-name="Djecyrillic" unicode="&#x402;" horiz-adv-x="1802" 
d="M1183 -72c-96 0 -146 17 -146 17v244s39 -12 119 -12c138 0 234 79 234 231c0 130 -85 232 -257 232c-178 0 -266 -99 -296 -158v-482h-302v1185h-433v258h1168v-258h-433v-398h17c75 69 186 119 339 119c336 0 500 -218 500 -478c0 -296 -189 -500 -510 -500z" />
    <glyph glyph-name="Gjecyrillic" unicode="&#x403;" horiz-adv-x="1225" 
d="M477 1573l277 318h315l-314 -318h-278zM488 0h-303v1443h930v-259h-627v-1184z" />
    <glyph glyph-name="Ecyrillic" unicode="&#x404;" horiz-adv-x="1548" 
d="M1440 479c-25 -303 -280 -516 -633 -516c-423 0 -686 288 -686 759s263 758 685 758c348 0 611 -225 633 -530h-294c-29 158 -162 264 -339 264c-203 0 -347 -139 -370 -363h567v-241h-570c18 -231 164 -381 374 -381c179 0 310 101 339 250h294z" />
    <glyph glyph-name="Dzecyrillic" unicode="&#x405;" horiz-adv-x="1403" 
d="M120 401h292c14 -117 132 -192 302 -192c157 0 268 76 268 185c0 92 -72 145 -249 183l-188 40c-263 55 -392 192 -392 412c0 272 219 451 552 451c318 0 543 -178 552 -435h-284c-14 114 -120 190 -266 190c-151 0 -251 -70 -251 -180c0 -89 69 -140 238 -176l174 -37
c290 -61 415 -186 415 -410c0 -291 -223 -469 -585 -469c-344 0 -567 169 -578 438z" />
    <glyph glyph-name="Icyrillic" unicode="&#x406;" horiz-adv-x="672" 
d="M487 0h-302v1443h302v-1443z" />
    <glyph glyph-name="Yicyrillic" unicode="&#x407;" horiz-adv-x="672" 
d="M487 0h-302v1443h302v-1443zM102 1579c-90 0 -155 64 -155 152s65 151 155 151s155 -63 155 -151s-65 -152 -155 -152zM570 1579c-89 0 -155 64 -155 152s66 151 155 151c90 0 156 -63 156 -151s-66 -152 -156 -152z" />
    <glyph glyph-name="Jecyrillic" unicode="&#x408;" horiz-adv-x="1251" 
d="M86 424h292c2 -116 78 -191 194 -191c124 0 192 75 192 217v993h302v-995c0 -311 -184 -485 -490 -485c-296 0 -490 178 -490 461z" />
    <glyph glyph-name="Ljecyrillic" unicode="&#x409;" horiz-adv-x="2256" 
d="M596 573c-19 -356 -128 -586 -427 -586c-49 0 -90 7 -109 13v275c14 -3 41 -8 67 -8c147 0 181 140 191 327l43 849h993v-479h279c304 0 515 -193 515 -482c0 -290 -203 -482 -499 -482h-597v1185h-421zM1354 249h215c171 0 271 82 271 234c0 153 -101 235 -273 235h-213
v-469z" />
    <glyph glyph-name="Njecyrillic" unicode="&#x40a;" horiz-adv-x="2317" 
d="M1409 249h230c164 0 260 68 260 193c0 120 -97 184 -261 184h-229v-377zM487 620v-620h-302v1443h302v-571h620v571h302v-571h280c304 0 515 -172 515 -430c0 -266 -204 -442 -500 -442h-597v620h-620z" />
    <glyph glyph-name="Tshecyrillic" unicode="&#x40b;" horiz-adv-x="1829" 
d="M1123 640c-176 0 -255 -102 -286 -158v-482h-302v1185h-433v258h1168v-258h-433v-397h17c74 68 181 118 330 118c331 0 494 -224 494 -521v-385h-302v366c0 163 -82 274 -253 274z" />
    <glyph glyph-name="Kjecyrillic" unicode="&#x40c;" horiz-adv-x="1473" 
d="M577 1573l277 318h315l-314 -318h-278zM497 830h46l505 613h336l-586 -706l626 -737h-365l-514 591h-48v-591h-302v1443h302v-613z" />
    <glyph glyph-name="Ushortcyrillic" unicode="&#x40e;" horiz-adv-x="1420" 
d="M326 1915h218c3 -97 68 -157 159 -157c93 0 158 60 161 157h218c0 -197 -151 -322 -379 -322c-227 0 -377 125 -377 322zM389 -13c-65 0 -118 12 -124 14v255c6 -2 30 -9 88 -9c88 0 153 24 203 101l-479 1095h321l310 -789h18l299 789h318l-442 -1030
c-116 -270 -239 -426 -512 -426z" />
    <glyph glyph-name="Dzhecyrillic" unicode="&#x40f;" horiz-adv-x="1609" 
d="M663 0h-478v1443h302v-1185h635v1185h302v-1443h-478v-285h-283v285z" />
    <glyph glyph-name="Acyrillic" unicode="&#x410;" horiz-adv-x="1520" 
d="M1112 0l-109 344h-507l-111 -344h-303l501 1443h355l501 -1443h-327zM742 1143l-181 -566h378l-179 566h-18z" />
    <glyph glyph-name="Becyrillic" unicode="&#x411;" horiz-adv-x="1392" 
d="M1277 457c0 -275 -204 -457 -500 -457h-592v1443h959v-258h-657v-281h280c301 0 510 -179 510 -447zM487 249h215c168 0 266 73 266 208c0 137 -98 210 -267 210h-214v-418z" />
    <glyph glyph-name="Vecyrillic" unicode="&#x412;" horiz-adv-x="1440" 
d="M833 0h-648v1443h631c280 0 447 -137 447 -360c0 -153 -113 -286 -261 -308v-18c191 -14 330 -158 330 -344c0 -253 -191 -413 -499 -413zM487 1212v-367h227c163 0 252 67 252 183c0 115 -83 184 -227 184h-252zM487 231h269c174 0 268 73 268 208
c0 132 -97 202 -275 202h-262v-410z" />
    <glyph glyph-name="Gecyrillic" unicode="&#x413;" horiz-adv-x="1225" 
d="M488 0h-303v1443h930v-259h-627v-1184z" />
    <glyph glyph-name="Decyrillic" unicode="&#x414;" horiz-adv-x="1606" 
d="M561 612c-10 -156 -31 -264 -91 -336v-18h584v928h-455zM314 0v-285h-274v543h101c101 71 130 183 142 379l50 806h1023v-1185h180v-543h-273v285h-949z" />
    <glyph glyph-name="Iecyrillic" unicode="&#x415;" horiz-adv-x="1294" 
d="M1141 258v-258h-956v1443h956v-258h-654v-337h617v-239h-617v-351h654z" />
    <glyph glyph-name="Zhecyrillic" unicode="&#x416;" horiz-adv-x="2160" 
d="M930 828v615h297v-615h48l455 615h328l-534 -709l575 -734h-358l-464 593h-50v-593h-297v593h-50l-464 -593h-354l571 728l-538 715h331l455 -615h49z" />
    <glyph glyph-name="Zecyrillic" unicode="&#x417;" horiz-adv-x="1358" 
d="M479 611v242h191c142 0 238 79 238 196c0 115 -88 189 -239 189c-149 0 -248 -79 -255 -203h-279c10 272 217 445 542 445c306 0 520 -157 520 -392c0 -161 -109 -295 -267 -328v-18c191 -19 323 -149 323 -343c0 -257 -247 -436 -578 -436c-330 0 -555 178 -568 450h289
c9 -121 118 -198 283 -198c159 0 264 85 264 207c0 117 -99 189 -270 189h-194z" />
    <glyph glyph-name="Iicyrillic" unicode="&#x418;" horiz-adv-x="1629" 
d="M1143 0v956h-18l-649 -956h-291v1443h301v-957h18l649 957h291v-1443h-301z" />
    <glyph glyph-name="Iishortcyrillic" unicode="&#x419;" horiz-adv-x="1629" 
d="M427 1915h218c3 -97 68 -157 159 -157c93 0 158 60 161 157h218c0 -197 -151 -322 -379 -322c-227 0 -377 125 -377 322zM1143 0v956h-18l-649 -956h-291v1443h301v-957h18l649 957h291v-1443h-301z" />
    <glyph glyph-name="Kacyrillic" unicode="&#x41a;" horiz-adv-x="1475" 
d="M487 830h46l505 613h336l-586 -706l626 -737h-365l-514 591h-48v-591h-302v1443h302v-613z" />
    <glyph glyph-name="Elcyrillic" unicode="&#x41b;" horiz-adv-x="1529" 
d="M1344 0h-302v1185h-421l-35 -612c-19 -356 -128 -586 -427 -586c-49 0 -90 7 -109 13v275c14 -3 41 -8 67 -8c147 0 181 140 191 327l43 849h993v-1443z" />
    <glyph glyph-name="Emcyrillic" unicode="&#x41c;" horiz-adv-x="1898" 
d="M465 0h-280v1443h356l399 -970h18l400 970h355v-1443h-280v965h-16l-367 -882h-201l-368 882h-16v-965z" />
    <glyph glyph-name="Encyrillic" unicode="&#x41d;" horiz-adv-x="1624" 
d="M1439 0h-302v603h-650v-603h-302v1443h302v-582h650v582h302v-1443z" />
    <glyph glyph-name="Ocyrillic" unicode="&#x41e;" horiz-adv-x="1630" 
d="M816 1480c426 0 693 -291 693 -758c0 -468 -266 -759 -693 -759c-428 0 -695 291 -695 759s271 758 695 758zM816 1215c-234 0 -386 -191 -386 -493c0 -301 149 -494 386 -494c235 0 385 193 385 494c0 302 -150 493 -385 493z" />
    <glyph glyph-name="Pecyrillic" unicode="&#x41f;" horiz-adv-x="1609" 
d="M1424 0h-301v1184h-635v-1184h-303v1443h1239v-1443z" />
    <glyph glyph-name="Ercyrillic" unicode="&#x420;" horiz-adv-x="1400" 
d="M185 1443h602c297 0 500 -199 500 -499c0 -297 -211 -496 -515 -496h-285v-448h-302v1443zM487 1195v-502h219c173 0 274 88 274 250c0 164 -99 252 -273 252h-220z" />
    <glyph glyph-name="Escyrillic" unicode="&#x421;" horiz-adv-x="1548" 
d="M798 -37c-418 0 -677 289 -677 759c0 469 258 758 677 758c342 0 604 -227 626 -541h-294c-29 166 -160 275 -332 275c-227 0 -368 -188 -368 -492s141 -493 369 -493c173 0 303 102 332 261h294c-25 -312 -279 -527 -627 -527z" />
    <glyph glyph-name="Tecyrillic" unicode="&#x422;" horiz-adv-x="1372" 
d="M837 0h-302v1185h-433v258h1168v-258h-433v-1185z" />
    <glyph glyph-name="Ucyrillic" unicode="&#x423;" horiz-adv-x="1420" 
d="M389 -13c-65 0 -118 12 -124 14v255c6 -2 30 -9 88 -9c88 0 153 24 203 101l-479 1095h321l310 -789h18l299 789h318l-442 -1030c-116 -270 -239 -426 -512 -426z" />
    <glyph glyph-name="Efcyrillic" unicode="&#x424;" horiz-adv-x="1843" 
d="M776 374v700c-217 -11 -362 -139 -362 -350c0 -210 143 -340 362 -350zM1429 723c0 211 -143 341 -361 351v-700c216 10 361 139 361 349zM772 123c-396 13 -663 230 -663 601s270 587 663 600v150h299v-150c396 -12 663 -230 663 -601s-270 -586 -663 -600v-154h-299
v154z" />
    <glyph glyph-name="Xacyrillic" unicode="&#x425;" horiz-adv-x="1514" 
d="M98 0l461 727l-458 716h355l301 -505h18l304 505h338l-475 -721l468 -722h-344l-310 489h-18l-314 -489h-326z" />
    <glyph glyph-name="Tsecyrillic" unicode="&#x426;" horiz-adv-x="1674" 
d="M1604 -285h-273v285h-1146v1443h302v-1185h635v1185h302v-1185h180v-543z" />
    <glyph glyph-name="Checyrillic" unicode="&#x427;" horiz-adv-x="1524" 
d="M1339 0h-302v612h-18c-83 -72 -202 -118 -348 -118c-329 0 -531 221 -531 535v414h302v-383c0 -179 99 -297 289 -297c152 0 260 67 306 160v520h302v-1443z" />
    <glyph glyph-name="Shacyrillic" unicode="&#x428;" horiz-adv-x="2096" 
d="M185 0v1443h302v-1185h410v1185h302v-1185h410v1185h302v-1443h-1726z" />
    <glyph glyph-name="Shchacyrillic" unicode="&#x429;" horiz-adv-x="2161" 
d="M2091 -285h-273v285h-1633v1443h302v-1185h410v1185h302v-1185h410v1185h302v-1185h180v-543z" />
    <glyph glyph-name="Hardsigncyrillic" unicode="&#x42a;" horiz-adv-x="1644" 
d="M1036 0h-597v1186h-335v257h637v-479h280c304 0 515 -193 515 -482c0 -290 -204 -482 -500 -482zM741 249h215c172 0 271 82 271 234c0 153 -100 235 -272 235h-214v-469z" />
    <glyph glyph-name="Yericyrillic" unicode="&#x42b;" horiz-adv-x="1927" 
d="M1742 0h-302v1443h302v-1443zM185 0v1443h302v-479h280c304 0 515 -193 515 -482c0 -290 -204 -482 -500 -482h-597zM487 249h215c172 0 271 82 271 234c0 153 -100 235 -272 235h-214v-469z" />
    <glyph glyph-name="Softsigncyrillic" unicode="&#x42c;" horiz-adv-x="1395" 
d="M185 0v1443h302v-479h280c304 0 515 -193 515 -482c0 -290 -204 -482 -500 -482h-597zM487 249h215c172 0 271 82 271 234c0 153 -100 235 -272 235h-214v-469z" />
    <glyph glyph-name="Ereversedcyrillic" unicode="&#x42d;" horiz-adv-x="1548" 
d="M748 -37c-357 0 -615 213 -640 516h294c29 -149 165 -250 347 -250c205 0 348 146 367 381h-571v241h570c-23 228 -166 363 -365 363c-180 0 -318 -106 -347 -264h-294c22 305 288 530 640 530c419 0 678 -286 678 -757c0 -472 -259 -760 -679 -760z" />
    <glyph glyph-name="IUcyrillic" unicode="&#x42e;" horiz-adv-x="2180" 
d="M1376 -37c-386 0 -638 243 -678 640h-211v-603h-302v1443h302v-582h213c47 385 300 619 676 619c420 0 683 -291 683 -758c0 -468 -262 -759 -683 -759zM1375 1215c-228 0 -377 -191 -377 -493c0 -301 146 -494 377 -494c229 0 376 193 376 494c0 302 -147 493 -376 493z
" />
    <glyph glyph-name="IAcyrillic" unicode="&#x42f;" horiz-adv-x="1451" 
d="M967 748v450h-245c-160 0 -257 -85 -257 -225c0 -141 95 -225 258 -225h244zM765 518l-343 -518h-334l379 561c-185 59 -311 211 -311 413c0 280 202 469 524 469h586v-1443h-299v518h-202z" />
    <glyph glyph-name="acyrillic" unicode="&#x430;" horiz-adv-x="1228" 
d="M554 202c135 0 237 86 237 198v81l-223 -14c-125 -9 -186 -54 -186 -133c0 -82 71 -132 172 -132zM458 -17c-212 0 -361 130 -361 332c0 200 153 316 427 332l267 16v90c0 92 -66 144 -186 144c-105 0 -175 -36 -199 -102h-268c19 204 206 332 483 332
c292 0 457 -138 457 -374v-753h-282v144h-18c-57 -101 -177 -161 -320 -161z" />
    <glyph glyph-name="becyrillic" unicode="&#x431;" horiz-adv-x="1299" 
d="M650 214c157 0 249 114 249 317c0 194 -92 307 -249 307s-249 -113 -249 -307c0 -203 91 -317 249 -317zM327 853h18c66 129 187 211 369 211c287 0 484 -200 484 -525c0 -349 -209 -563 -543 -563c-349 0 -553 219 -553 658c0 566 186 824 593 839l141 5
c170 6 288 43 289 44v-235s-77 -41 -271 -47l-134 -4c-274 -10 -363 -141 -393 -383z" />
    <glyph glyph-name="vecyrillic" unicode="&#x432;" horiz-adv-x="1227" 
d="M625 911h-183v-254h167c114 0 172 47 172 128c0 77 -52 126 -156 126zM625 482h-183v-290h198c118 0 183 51 183 146c0 96 -71 144 -198 144zM156 0v1103h546c229 0 364 -106 364 -278c0 -115 -84 -215 -198 -233v-18c148 -13 247 -120 247 -255
c0 -192 -153 -319 -403 -319h-556z" />
    <glyph glyph-name="gecyrillic" unicode="&#x433;" horiz-adv-x="1009" 
d="M919 874h-472v-874h-291v1103h763v-229z" />
    <glyph glyph-name="decyrillic" unicode="&#x434;" horiz-adv-x="1360" 
d="M858 229v646h-331l-25 -345c-8 -113 -32 -213 -78 -283v-18h434zM303 -285h-266v514h85c81 45 112 172 122 321l36 553h868v-874h164v-514h-266v285h-743v-285z" />
    <glyph glyph-name="iecyrillic" unicode="&#x435;" horiz-adv-x="1251" 
d="M633 904c-135 0 -230 -94 -240 -237h470c-6 146 -94 237 -230 237zM869 314h271c-44 -208 -234 -338 -504 -338c-336 0 -534 212 -534 570c0 359 202 581 530 581c325 0 517 -207 517 -557v-89h-757v-15c4 -164 100 -266 252 -266c115 0 194 41 225 114z" />
    <glyph glyph-name="zhecyrillic" unicode="&#x436;" horiz-adv-x="1796" 
d="M56 0l408 598l-387 505h325l299 -434h54v434h284v-434h55l299 434h323l-385 -503l409 -600h-339l-304 462h-58v-462h-284v462h-58l-304 -462h-337z" />
    <glyph glyph-name="zecyrillic" unicode="&#x437;" horiz-adv-x="1184" 
d="M595 -24c-243 0 -467 103 -490 375h280c26 -96 101 -140 210 -140c116 0 189 47 189 132c0 81 -59 124 -188 124h-153v196h145c116 0 162 46 162 116c0 67 -49 120 -162 120c-106 0 -175 -46 -189 -130h-275c21 216 182 358 462 358c287 0 448 -115 448 -314
c0 -112 -69 -192 -165 -219v-18c138 -36 206 -127 206 -245c0 -215 -179 -355 -480 -355z" />
    <glyph glyph-name="iicyrillic" unicode="&#x438;" horiz-adv-x="1327" 
d="M442 0h-286v1103h286v-678h18l425 678h286v-1103h-286v686h-18z" />
    <glyph glyph-name="iishortcyrillic" unicode="&#x439;" horiz-adv-x="1327" 
d="M267 1616h218c2 -106 64 -184 162 -184s160 78 163 184h218c0 -206 -152 -350 -381 -350c-230 0 -380 144 -380 350zM442 0h-286v1103h286v-678h18l425 678h286v-1103h-286v686h-18z" />
    <glyph glyph-name="kacyrillic" unicode="&#x43a;" horiz-adv-x="1237" 
d="M447 673h48l333 430h331l-423 -503l445 -600h-347l-335 457h-52v-457h-291v1103h291v-430z" />
    <glyph glyph-name="elcyrillic" unicode="&#x43b;" horiz-adv-x="1271" 
d="M513 530c-19 -328 -107 -543 -377 -543c-45 0 -78 8 -93 13v256c12 -3 34 -7 63 -7c106 0 138 128 148 301l32 553h830v-1103h-291v874h-289z" />
    <glyph glyph-name="emcyrillic" unicode="&#x43c;" horiz-adv-x="1658" 
d="M430 0h-274v1103h377l289 -706h18l290 706h372v-1103h-274v731h-19l-279 -669h-203l-279 669h-18v-731z" />
    <glyph glyph-name="encyrillic" unicode="&#x43d;" horiz-adv-x="1314" 
d="M156 0v1103h291v-423h421v423h291v-1103h-291v451h-421v-451h-291z" />
    <glyph glyph-name="ocyrillic" unicode="&#x43e;" horiz-adv-x="1289" 
d="M645 214c155 0 244 124 244 338c0 212 -90 337 -244 337c-155 0 -244 -125 -244 -337c0 -215 88 -338 244 -338zM645 -24c-339 0 -543 215 -543 576c0 357 207 575 543 575s543 -217 543 -575c0 -361 -204 -576 -543 -576z" />
    <glyph glyph-name="pecyrillic" unicode="&#x43f;" horiz-adv-x="1304" 
d="M858 0v874h-411v-874h-291v1103h993v-1103h-291z" />
    <glyph glyph-name="ercyrillic" unicode="&#x440;" horiz-adv-x="1346" 
d="M793 1121c279 0 450 -212 450 -569c0 -356 -169 -569 -445 -569c-158 0 -279 69 -333 186h-18v-535h-291v1469h282v-181h18c60 124 185 199 337 199zM694 226c157 0 250 122 250 326c0 202 -94 325 -249 325s-251 -124 -251 -326s96 -325 250 -325z" />
    <glyph glyph-name="escyrillic" unicode="&#x441;" horiz-adv-x="1223" 
d="M1132 714h-272c-20 105 -95 174 -219 174c-157 0 -245 -117 -245 -334c0 -220 89 -339 245 -339c119 0 197 58 219 167h272c-24 -247 -204 -406 -491 -406c-344 0 -539 208 -539 578c0 366 194 573 539 573c292 0 467 -162 491 -413z" />
    <glyph glyph-name="tecyrillic" unicode="&#x442;" horiz-adv-x="1091" 
d="M1021 1103v-229h-330v-874h-291v874h-330v229h951z" />
    <glyph glyph-name="ucyrillic" unicode="&#x443;" horiz-adv-x="1243" 
d="M293 -401c-11 0 -99 1 -111 3v234c10 -2 54 -2 66 -2c109 0 171 35 195 119l10 40l-387 1110h321l232 -836h18l232 836h308l-380 -1120c-94 -284 -229 -384 -504 -384z" />
    <glyph glyph-name="efcyrillic" unicode="&#x444;" horiz-adv-x="1677" 
d="M698 212v679c-182 -5 -300 -131 -300 -339c0 -211 116 -334 300 -340zM1279 552c0 211 -117 333 -300 339v-679c182 5 300 131 300 340zM695 -16c-362 8 -593 219 -593 568c0 344 234 559 593 567v338h287v-338c362 -8 593 -219 593 -568c0 -344 -234 -559 -593 -567
v-350h-287v350z" />
    <glyph glyph-name="hacyrillic" unicode="&#x445;" horiz-adv-x="1210" 
d="M608 360h-18l-205 -360h-309l346 545l-348 558h334l195 -362h18l195 362h318l-346 -545l349 -558h-324z" />
    <glyph glyph-name="tsecyrillic" unicode="&#x446;" horiz-adv-x="1357" 
d="M1310 -285h-266v285h-888v1103h291v-874h406v874h291v-874h166v-514z" />
    <glyph glyph-name="checyrillic" unicode="&#x447;" horiz-adv-x="1271" 
d="M1116 0h-291v467h-18c-56 -65 -153 -119 -295 -119c-230 0 -379 157 -379 407v348h291v-303c0 -126 69 -201 179 -201c128 0 194 66 222 109v395h291v-1103z" />
    <glyph glyph-name="shacyrillic" unicode="&#x448;" horiz-adv-x="1816" 
d="M156 0v1103h291v-874h316v874h291v-874h316v874h291v-1103h-1505z" />
    <glyph glyph-name="shchacyrillic" unicode="&#x449;" horiz-adv-x="1868" 
d="M1820 -285h-266v285h-1398v1103h291v-874h316v874h291v-874h316v874h291v-874h159v-514z" />
    <glyph glyph-name="hardsigncyrillic" unicode="&#x44a;" horiz-adv-x="1370" 
d="M855 0h-505v874h-285v229h576v-318h214c260 0 426 -153 426 -393s-166 -392 -426 -392zM809 559h-168v-330h168c111 0 183 67 183 165c0 99 -72 165 -183 165z" />
    <glyph glyph-name="yericyrillic" unicode="&#x44b;" horiz-adv-x="1641" 
d="M1194 0v1103h291v-1103h-291zM615 559h-168v-330h168c111 0 182 67 182 165c0 99 -72 165 -182 165zM156 0v1103h291v-318h214c260 0 426 -153 426 -393s-166 -392 -426 -392h-505z" />
    <glyph glyph-name="softsigncyrillic" unicode="&#x44c;" horiz-adv-x="1180" 
d="M615 559h-168v-330h168c111 0 182 67 182 165c0 99 -72 165 -182 165zM156 0v1103h291v-318h214c260 0 426 -153 426 -393s-166 -392 -426 -392h-505z" />
    <glyph glyph-name="ereversedcyrillic" unicode="&#x44d;" horiz-adv-x="1235" 
d="M592 -24c-291 0 -471 161 -497 401h273c22 -104 106 -161 225 -161c136 0 234 94 245 250h-406v196h403c-15 143 -114 226 -242 226c-122 0 -202 -67 -224 -163h-273c27 234 209 402 498 402c330 0 540 -220 540 -573c0 -358 -210 -578 -542 -578z" />
    <glyph glyph-name="iucyrillic" unicode="&#x44e;" horiz-adv-x="1779" 
d="M1140 -24c-301 0 -498 173 -532 475h-161v-451h-291v1103h291v-423h165c44 282 239 447 528 447c331 0 538 -215 538 -575c0 -364 -205 -576 -538 -576zM1139 214c151 0 240 122 240 338c0 213 -89 337 -240 337s-241 -124 -241 -337c0 -216 89 -338 241 -338z" />
    <glyph glyph-name="iacyrillic" unicode="&#x44f;" horiz-adv-x="1210" 
d="M590 567h179v308h-179c-108 0 -178 -62 -178 -157c0 -88 70 -151 178 -151zM769 0v355h-119l-245 -355h-330l289 403c-147 44 -238 166 -238 318c0 234 175 382 434 382h494v-1103h-285z" />
    <glyph glyph-name="iocyrillic" unicode="&#x451;" horiz-adv-x="1251" 
d="M633 904c-135 0 -230 -94 -240 -237h470c-6 146 -94 237 -230 237zM869 314h271c-44 -208 -234 -338 -504 -338c-336 0 -534 212 -534 570c0 359 202 581 530 581c325 0 517 -207 517 -557v-89h-757v-15c4 -164 100 -266 252 -266c115 0 194 41 225 114zM398 1251
c-90 0 -155 64 -155 152s65 151 155 151s155 -63 155 -151s-65 -152 -155 -152zM866 1251c-89 0 -155 64 -155 152s66 151 155 151c90 0 156 -63 156 -151s-66 -152 -156 -152z" />
    <glyph glyph-name="djecyrillic" unicode="&#x452;" horiz-adv-x="1328" 
d="M453 922h18c51 126 171 202 333 202c237 0 378 -149 378 -414v-746c0 -224 -135 -340 -390 -340c-21 0 -66 2 -78 4v223c6 -1 28 -1 37 -1c102 0 140 36 140 124v667c0 153 -71 232 -203 232c-146 0 -230 -97 -230 -240v-633h-291v1255h-144v153h144v116h286v-116h233
v-153h-233v-333z" />
    <glyph glyph-name="gjecyrillic" unicode="&#x453;" horiz-adv-x="1006" 
d="M357 1281l247 353h309l-287 -353h-269zM924 874h-472v-874h-291v1103h763v-229z" />
    <glyph glyph-name="ecyrillic" unicode="&#x454;" horiz-adv-x="1227" 
d="M1136 377c-25 -240 -204 -401 -492 -401c-334 0 -542 220 -542 578c0 353 208 573 540 573c287 0 467 -168 493 -402h-272c-22 96 -99 163 -219 163c-129 0 -226 -83 -243 -225h398v-196h-401c10 -158 109 -251 246 -251c116 0 198 57 220 161h272z" />
    <glyph glyph-name="dzecyrillic" unicode="&#x455;" horiz-adv-x="1181" 
d="M132 779c0 209 184 348 459 348c280 0 445 -117 461 -328h-269c-15 71 -82 115 -190 115c-104 0 -181 -47 -181 -117c0 -54 47 -87 149 -110l207 -45c214 -47 310 -137 310 -302c0 -220 -197 -364 -486 -364c-291 0 -467 119 -487 331h284c22 -75 93 -118 209 -118
c113 0 191 47 191 118c0 54 -42 87 -139 108l-200 45c-214 47 -318 149 -318 319z" />
    <glyph glyph-name="icyrillic" unicode="&#x456;" horiz-adv-x="606" 
d="M158 0v1103h291v-1103h-291zM304 1257c-105 0 -172 61 -172 147c0 87 67 147 172 147c104 0 172 -60 172 -147c0 -86 -68 -147 -172 -147z" />
    <glyph glyph-name="yicyrillic" unicode="&#x457;" horiz-adv-x="614" 
d="M96 1258c-90 0 -156 64 -156 152s66 152 156 152s155 -64 155 -152s-65 -152 -155 -152zM514 1258c-89 0 -155 64 -155 152s66 152 155 152c90 0 156 -64 156 -152s-66 -152 -156 -152zM148 0v1103h291v-1103h-291z" />
    <glyph glyph-name="jecyrillic" unicode="&#x458;" horiz-adv-x="607" 
d="M450 1103v-1137c0 -226 -135 -342 -390 -342c-21 0 -66 2 -78 4v223c6 -1 28 -1 37 -1c102 0 140 36 140 124v1129h291zM305 1257c-105 0 -172 61 -172 147c0 87 67 147 172 147c104 0 172 -60 172 -147c0 -86 -68 -147 -172 -147z" />
    <glyph glyph-name="ljecyrillic" unicode="&#x459;" horiz-adv-x="1854" 
d="M518 530c-19 -328 -107 -543 -377 -543c-45 0 -78 8 -93 13v256c12 -3 34 -7 63 -7c106 0 138 128 148 301l32 553h830v-318h214c260 0 426 -153 426 -393s-166 -392 -426 -392h-505v874h-289zM1289 559h-168v-330h168c111 0 182 67 182 165c0 99 -72 165 -182 165z" />
    <glyph glyph-name="njecyrillic" unicode="&#x45a;" horiz-adv-x="1882" 
d="M1335 492h-186v-268h186c102 0 168 56 168 134s-66 134 -168 134zM858 0v487h-411v-487h-291v1103h291v-392h411v392h291v-387h219c257 0 421 -139 421 -358s-164 -358 -421 -358h-510z" />
    <glyph glyph-name="tshecyrillic" unicode="&#x45b;" horiz-adv-x="1327" 
d="M452 922h18c51 126 171 202 333 202c237 0 378 -149 378 -414v-710h-291v641c0 153 -71 232 -203 232c-146 0 -230 -97 -230 -240v-633h-291v1255h-144v153h144v116h286v-116h233v-153h-233v-333z" />
    <glyph glyph-name="kjecyrillic" unicode="&#x45c;" horiz-adv-x="1234" 
d="M467 1281l247 353h309l-287 -353h-269zM447 673h48l333 430h331l-423 -503l445 -600h-347l-335 457h-52v-457h-291v1103h291v-430z" />
    <glyph glyph-name="ushortcyrillic" unicode="&#x45e;" horiz-adv-x="1243" 
d="M247 1616h218c2 -106 64 -184 162 -184s160 78 163 184h218c0 -206 -152 -350 -381 -350c-230 0 -380 144 -380 350zM293 -401c-11 0 -99 1 -111 3v234c10 -2 54 -2 66 -2c109 0 171 35 195 119l10 40l-387 1110h321l232 -836h18l232 836h308l-380 -1120
c-94 -284 -229 -384 -504 -384z" />
    <glyph glyph-name="dzhecyrillic" unicode="&#x45f;" horiz-adv-x="1309" 
d="M1154 0h-366v-285h-266v285h-366v1103h291v-874h416v874h291v-1103z" />
    <glyph glyph-name="Geupturncyrillic" unicode="&#x490;" horiz-adv-x="1225" 
d="M488 1184v-1184h-303v1443h647v285h283v-544h-627z" />
    <glyph glyph-name="geupturncyrillic" unicode="&#x491;" horiz-adv-x="1009" 
d="M919 874h-472v-874h-291v1103h497v285h266v-514z" />
    <glyph glyph-name="baht" unicode="&#xe3f;" horiz-adv-x="1415" 
d="M727 640v-408c155 7 231 79 231 207c0 123 -76 192 -231 201zM445 231h142v410h-142v-410zM445 1212v-367h142v367h-142zM727 1210v-360c118 17 182 80 182 178c0 102 -66 168 -182 182zM936 775v-18c191 -14 330 -158 330 -344c0 -253 -191 -413 -499 -413h-40v-135
h-140v135h-438v1443h438v145h140v-145h23c280 0 447 -137 447 -360c0 -153 -113 -286 -261 -308z" />
    <glyph glyph-name="Aringbelow" unicode="&#x1e00;" horiz-adv-x="1500" 
d="M1102 0l-109 344h-507l-111 -344h-303l501 1443h355l501 -1443h-327zM732 1143l-181 -566h378l-179 566h-18zM739 -570c-140 0 -246 102 -246 241c0 137 106 238 246 238s245 -101 245 -238c0 -139 -105 -241 -245 -241zM739 -434c61 0 105 44 105 104
c0 59 -45 103 -105 103c-61 0 -106 -44 -106 -103c0 -61 45 -104 106 -104z" />
    <glyph glyph-name="aringbelow" unicode="&#x1e01;" horiz-adv-x="1208" 
d="M544 202c135 0 237 86 237 198v81l-223 -14c-125 -9 -186 -54 -186 -133c0 -82 71 -132 172 -132zM448 -17c-212 0 -361 130 -361 332c0 200 153 316 427 332l267 16v90c0 92 -66 144 -186 144c-105 0 -175 -36 -199 -102h-268c19 204 206 332 483 332
c292 0 457 -138 457 -374v-753h-282v144h-18c-57 -101 -177 -161 -320 -161zM598 -570c-140 0 -246 102 -246 241c0 137 106 238 246 238s245 -101 245 -238c0 -139 -105 -241 -245 -241zM598 -434c61 0 105 44 105 104c0 59 -45 103 -105 103c-61 0 -106 -44 -106 -103
c0 -61 45 -104 106 -104z" />
    <glyph glyph-name="Bdotaccent" unicode="&#x1e02;" horiz-adv-x="1420" 
d="M643 1579c-93 0 -158 68 -158 158s65 158 158 158c92 0 157 -68 157 -158s-65 -158 -157 -158zM823 0h-648v1443h631c280 0 447 -137 447 -360c0 -153 -113 -286 -261 -308v-18c191 -14 330 -158 330 -344c0 -253 -191 -413 -499 -413zM477 1212v-367h227
c163 0 252 67 252 183c0 115 -83 184 -227 184h-252zM477 231h269c174 0 268 73 268 208c0 132 -97 202 -275 202h-262v-410z" />
    <glyph glyph-name="bdotaccent" unicode="&#x1e03;" horiz-adv-x="1334" 
d="M302 1660c-93 0 -158 68 -158 158s65 158 158 158c92 0 157 -68 157 -158s-65 -158 -157 -158zM796 -17c-156 0 -281 70 -340 190h-18v-173h-282v1524h291v-597h18c56 121 180 194 331 194c279 0 447 -213 447 -569c0 -354 -170 -569 -447 -569zM695 877
c-153 0 -250 -125 -251 -326c1 -200 97 -325 251 -325c155 0 249 124 249 326c0 201 -95 325 -249 325z" />
    <glyph glyph-name="Bdotbelow" unicode="&#x1e04;" horiz-adv-x="1420" 
d="M643 -419c-95 0 -157 59 -157 140c0 80 62 139 157 139s157 -59 157 -139c0 -81 -62 -140 -157 -140zM823 0h-648v1443h631c280 0 447 -137 447 -360c0 -153 -113 -286 -261 -308v-18c191 -14 330 -158 330 -344c0 -253 -191 -413 -499 -413zM477 1212v-367h227
c163 0 252 67 252 183c0 115 -83 184 -227 184h-252zM477 231h269c174 0 268 73 268 208c0 132 -97 202 -275 202h-262v-410z" />
    <glyph glyph-name="bdotbelow" unicode="&#x1e05;" horiz-adv-x="1334" 
d="M655 -419c-95 0 -157 59 -157 140c0 80 62 139 157 139s157 -59 157 -139c0 -81 -62 -140 -157 -140zM796 -17c-156 0 -281 70 -340 190h-18v-173h-282v1524h291v-597h18c56 121 180 194 331 194c279 0 447 -213 447 -569c0 -354 -170 -569 -447 -569zM695 877
c-153 0 -250 -125 -251 -326c1 -200 97 -325 251 -325c155 0 249 124 249 326c0 201 -95 325 -249 325z" />
    <glyph glyph-name="Blinebelow" unicode="&#x1e06;" horiz-adv-x="1420" 
d="M823 0h-648v1443h631c280 0 447 -137 447 -360c0 -153 -113 -286 -261 -308v-18c191 -14 330 -158 330 -344c0 -253 -191 -413 -499 -413zM477 1212v-367h227c163 0 252 67 252 183c0 115 -83 184 -227 184h-252zM477 231h269c174 0 268 73 268 208
c0 132 -97 202 -275 202h-262v-410zM1016 -401h-746v181h746v-181z" />
    <glyph glyph-name="blinebelow" unicode="&#x1e07;" horiz-adv-x="1334" 
d="M1028 -401h-746v181h746v-181zM796 -17c-156 0 -281 70 -340 190h-18v-173h-282v1524h291v-597h18c56 121 180 194 331 194c279 0 447 -213 447 -569c0 -354 -170 -569 -447 -569zM695 877c-153 0 -250 -125 -251 -326c1 -200 97 -325 251 -325c155 0 249 124 249 326
c0 201 -95 325 -249 325z" />
    <glyph glyph-name="Ccedillaacute" unicode="&#x1e08;" horiz-adv-x="1518" 
d="M1239 1909l-314 -318h-278l277 318h315zM1121 490h294c-23 -286 -238 -491 -542 -523l-33 -79c126 -6 196 -69 196 -177c0 -127 -96 -204 -267 -204c-58 0 -110 7 -147 17v135c21 -8 77 -14 116 -14c74 0 112 20 112 59s-38 56 -130 56h-60v115l39 93
c-366 38 -588 318 -588 754c0 469 258 758 677 758c342 0 604 -227 626 -541h-294c-29 166 -160 275 -332 275c-227 0 -368 -188 -368 -492s141 -493 369 -493c173 0 303 102 332 261z" />
    <glyph glyph-name="ccedillaacute" unicode="&#x1e09;" horiz-adv-x="1203" 
d="M1031 1634l-287 -353h-269l247 353h309zM1122 714h-272c-20 105 -95 174 -219 174c-157 0 -245 -117 -245 -334c0 -220 89 -339 245 -339c119 0 197 58 219 167h272c-21 -220 -166 -370 -400 -400l-39 -94c126 -6 196 -69 196 -177c0 -127 -96 -204 -267 -204
c-58 0 -110 7 -147 17v135c21 -8 77 -14 116 -14c74 0 112 20 112 59s-38 56 -130 56h-60v115l44 105c-292 32 -455 235 -455 574c0 366 194 573 539 573c292 0 467 -162 491 -413z" />
    <glyph glyph-name="Ddotaccent" unicode="&#x1e0a;" horiz-adv-x="1530" 
d="M639 1579c-93 0 -158 68 -158 158s65 158 158 158c92 0 157 -68 157 -158s-65 -158 -157 -158zM175 1444h568c429 0 677 -260 677 -712c0 -469 -245 -732 -677 -732h-568v1444zM477 1186v-928h218c267 0 417 164 417 469c0 292 -155 459 -417 459h-218z" />
    <glyph glyph-name="ddotaccent" unicode="&#x1e0b;" horiz-adv-x="1334" 
d="M1033 1660c-93 0 -158 68 -158 158s65 158 158 158c92 0 157 -68 157 -158s-65 -158 -157 -158zM541 -17c-278 0 -449 218 -449 570c0 351 172 568 449 568c149 0 272 -72 329 -194h17v597h291v-1524h-282v173h-18c-59 -119 -184 -190 -337 -190zM640 877
c-155 0 -249 -123 -249 -325c0 -204 93 -326 249 -326s250 123 250 325c0 201 -95 326 -250 326z" />
    <glyph glyph-name="Ddotbelow" unicode="&#x1e0c;" horiz-adv-x="1530" 
d="M639 -419c-95 0 -157 59 -157 140c0 80 62 139 157 139s157 -59 157 -139c0 -81 -62 -140 -157 -140zM175 1444h568c429 0 677 -260 677 -712c0 -469 -245 -732 -677 -732h-568v1444zM477 1186v-928h218c267 0 417 164 417 469c0 292 -155 459 -417 459h-218z" />
    <glyph glyph-name="ddotbelow" unicode="&#x1e0d;" horiz-adv-x="1334" 
d="M697 -419c-95 0 -157 59 -157 140c0 80 62 139 157 139s157 -59 157 -139c0 -81 -62 -140 -157 -140zM541 -17c-278 0 -449 218 -449 570c0 351 172 568 449 568c149 0 272 -72 329 -194h17v597h291v-1524h-282v173h-18c-59 -119 -184 -190 -337 -190zM640 877
c-155 0 -249 -123 -249 -325c0 -204 93 -326 249 -326s250 123 250 325c0 201 -95 326 -250 326z" />
    <glyph glyph-name="Dlinebelow" unicode="&#x1e0e;" horiz-adv-x="1530" 
d="M1012 -401h-746v181h746v-181zM175 1444h568c429 0 677 -260 677 -712c0 -469 -245 -732 -677 -732h-568v1444zM477 1186v-928h218c267 0 417 164 417 469c0 292 -155 459 -417 459h-218z" />
    <glyph glyph-name="dlinebelow" unicode="&#x1e0f;" horiz-adv-x="1334" 
d="M1070 -401h-746v181h746v-181zM541 -17c-278 0 -449 218 -449 570c0 351 172 568 449 568c149 0 272 -72 329 -194h17v597h291v-1524h-282v173h-18c-59 -119 -184 -190 -337 -190zM640 877c-155 0 -249 -123 -249 -325c0 -204 93 -326 249 -326s250 123 250 325
c0 201 -95 326 -250 326z" />
    <glyph glyph-name="Dcommaaccent" unicode="&#x1e10;" horiz-adv-x="1530" 
d="M633 -509h-258l132 358h292zM175 1444h568c429 0 677 -260 677 -712c0 -469 -245 -732 -677 -732h-568v1444zM477 1186v-928h218c267 0 417 164 417 469c0 292 -155 459 -417 459h-218z" />
    <glyph glyph-name="dcommaaccent" unicode="&#x1e11;" horiz-adv-x="1334" 
d="M691 -509h-258l132 358h292zM541 -17c-278 0 -449 218 -449 570c0 351 172 568 449 568c149 0 272 -72 329 -194h17v597h291v-1524h-282v173h-18c-59 -119 -184 -190 -337 -190zM640 877c-155 0 -249 -123 -249 -325c0 -204 93 -326 249 -326s250 123 250 325
c0 201 -95 326 -250 326z" />
    <glyph glyph-name="Dcircumflexbelow" unicode="&#x1e12;" horiz-adv-x="1530" 
d="M175 1444h568c429 0 677 -260 677 -712c0 -469 -245 -732 -677 -732h-568v1444zM477 1186v-928h218c267 0 417 164 417 469c0 292 -155 459 -417 459h-218zM787 -152l286 -280h-284l-141 153h-18l-141 -153h-284l286 280h296z" />
    <glyph glyph-name="dcircumflexbelow" unicode="&#x1e13;" horiz-adv-x="1334" 
d="M541 -17c-278 0 -449 218 -449 570c0 351 172 568 449 568c149 0 272 -72 329 -194h17v597h291v-1524h-282v173h-18c-59 -119 -184 -190 -337 -190zM640 877c-155 0 -249 -123 -249 -325c0 -204 93 -326 249 -326s250 123 250 325c0 201 -95 326 -250 326zM845 -152
l286 -280h-284l-141 153h-18l-141 -153h-284l286 280h296z" />
    <glyph glyph-name="Emacrongrave" unicode="&#x1e14;" horiz-adv-x="1274" 
d="M1026 1611h-746v178h746v-178zM775 1915h-255l-189 264h285zM1131 258v-258h-956v1443h956v-258h-654v-337h617v-239h-617v-351h654z" />
    <glyph glyph-name="emacrongrave" unicode="&#x1e15;" horiz-adv-x="1231" 
d="M623 904c-135 0 -230 -94 -240 -237h470c-6 146 -94 237 -230 237zM859 314h271c-44 -208 -234 -338 -504 -338c-336 0 -534 212 -534 570c0 359 202 581 530 581c325 0 517 -207 517 -557v-89h-757v-15c4 -164 100 -266 252 -266c115 0 194 41 225 114zM761 1637h-252
l-251 308h291zM990 1306h-735v180h735v-180z" />
    <glyph glyph-name="Emacronacute" unicode="&#x1e16;" horiz-adv-x="1274" 
d="M1026 1611h-746v178h746v-178zM531 1915l159 264h285l-189 -264h-255zM1131 258v-258h-956v1443h956v-258h-654v-337h617v-239h-617v-351h654z" />
    <glyph glyph-name="emacronacute" unicode="&#x1e17;" horiz-adv-x="1231" 
d="M623 904c-135 0 -230 -94 -240 -237h470c-6 146 -94 237 -230 237zM859 314h271c-44 -208 -234 -338 -504 -338c-336 0 -534 212 -534 570c0 359 202 581 530 581c325 0 517 -207 517 -557v-89h-757v-15c4 -164 100 -266 252 -266c115 0 194 41 225 114zM483 1637
l212 308h291l-251 -308h-252zM990 1306h-735v180h735v-180z" />
    <glyph glyph-name="Ecircumflexbelow" unicode="&#x1e18;" horiz-adv-x="1274" 
d="M1131 258v-258h-956v1443h956v-258h-654v-337h617v-239h-617v-351h654zM801 -152l286 -280h-284l-141 153h-18l-141 -153h-284l286 280h296z" />
    <glyph glyph-name="ecircumflexbelow" unicode="&#x1e19;" horiz-adv-x="1231" 
d="M623 904c-135 0 -230 -94 -240 -237h470c-6 146 -94 237 -230 237zM859 314h271c-44 -208 -234 -338 -504 -338c-336 0 -534 212 -534 570c0 359 202 581 530 581c325 0 517 -207 517 -557v-89h-757v-15c4 -164 100 -266 252 -266c115 0 194 41 225 114zM774 -152
l286 -280h-284l-141 153h-18l-141 -153h-284l286 280h296z" />
    <glyph glyph-name="Etildebelow" unicode="&#x1e1a;" horiz-adv-x="1274" 
d="M812 -428c-161 0 -198 133 -297 133c-47 0 -83 -29 -85 -117h-183c0 192 103 292 247 292c167 0 208 -132 297 -132c44 0 83 24 86 113h182c0 -187 -103 -289 -247 -289zM1131 258v-258h-956v1443h956v-258h-654v-337h617v-239h-617v-351h654z" />
    <glyph glyph-name="etildebelow" unicode="&#x1e1b;" horiz-adv-x="1231" 
d="M785 -428c-161 0 -198 133 -297 133c-47 0 -83 -29 -85 -117h-183c0 192 103 292 247 292c167 0 208 -132 297 -132c44 0 83 24 86 113h182c0 -187 -103 -289 -247 -289zM623 904c-135 0 -230 -94 -240 -237h470c-6 146 -94 237 -230 237zM859 314h271
c-44 -208 -234 -338 -504 -338c-336 0 -534 212 -534 570c0 359 202 581 530 581c325 0 517 -207 517 -557v-89h-757v-15c4 -164 100 -266 252 -266c115 0 194 41 225 114z" />
    <glyph glyph-name="Ecedillabreve" unicode="&#x1e1c;" horiz-adv-x="1274" 
d="M845 1915h208c0 -198 -153 -336 -400 -336s-400 138 -400 336h208c2 -100 76 -164 192 -164s190 64 192 164zM1131 1185h-654v-337h617v-239h-617v-351h654v-258h-380l-46 -112c126 -6 196 -69 196 -177c0 -127 -96 -204 -267 -204c-58 0 -110 7 -147 17v135
c21 -8 77 -14 116 -14c74 0 112 20 112 59s-38 56 -130 56h-60v115l52 125h-402v1443h956v-258z" />
    <glyph glyph-name="ecedillabreve" unicode="&#x1e1d;" horiz-adv-x="1231" 
d="M813 1602h208c0 -205 -152 -351 -400 -351s-399 146 -399 351h207c2 -107 73 -178 192 -178s190 71 192 178zM383 667h470c-6 146 -94 237 -230 237c-135 0 -230 -94 -240 -237zM1139 481h-757v-15c4 -164 100 -266 252 -266c115 0 194 41 225 114h271
c-39 -184 -192 -307 -414 -333l-38 -93c126 -6 196 -69 196 -177c0 -127 -96 -204 -267 -204c-58 0 -110 7 -147 17v135c21 -8 77 -14 116 -14c74 0 112 20 112 59s-38 56 -130 56h-60v115l44 106c-285 33 -450 238 -450 565c0 359 202 581 530 581c325 0 517 -207 517 -557
v-89z" />
    <glyph glyph-name="Fdotaccent" unicode="&#x1e1e;" horiz-adv-x="1224" 
d="M648 1579c-93 0 -158 68 -158 158s65 158 158 158c92 0 157 -68 157 -158s-65 -158 -157 -158zM477 0h-302v1443h945v-258h-643v-376h587v-247h-587v-562z" />
    <glyph glyph-name="fdotaccent" unicode="&#x1e1f;" horiz-adv-x="828" 
d="M462 1629c-93 0 -158 68 -158 158s65 158 158 158c92 0 157 -68 157 -158s-65 -158 -157 -158zM231 0v863h-178v229h178v108c0 223 133 315 392 315c57 0 93 -4 136 -11v-209c-19 4 -55 8 -95 8c-102 0 -148 -40 -148 -130v-81h234v-229h-228v-863h-291z" />
    <glyph glyph-name="Gmacron" unicode="&#x1e20;" horiz-adv-x="1557" 
d="M1443 589c0 -386 -246 -626 -640 -626c-429 0 -692 288 -692 760c0 465 265 757 685 757c341 0 592 -197 634 -497h-300c-45 146 -166 231 -334 231c-233 0 -376 -185 -376 -488c0 -309 150 -497 388 -497c198 0 335 117 341 291l1 26h-313v227h606v-184zM1169 1633h-746
v181h746v-181z" />
    <glyph glyph-name="gmacron" unicode="&#x1e21;" horiz-adv-x="1322" 
d="M1012 1316h-735v180h735v-180zM888 561c0 194 -95 316 -252 316s-248 -122 -248 -315c0 -195 90 -316 248 -316s252 121 252 315zM632 -418c-293 0 -487 129 -505 323h288c15 -68 97 -111 223 -111c156 0 247 72 247 196v204h-18c-61 -116 -177 -178 -332 -178
c-275 0 -446 213 -446 545c0 342 172 560 452 560c149 0 276 -74 335 -195h18v177h282v-1099c0 -259 -211 -422 -544 -422z" />
    <glyph glyph-name="Hdotaccent" unicode="&#x1e22;" horiz-adv-x="1604" 
d="M1429 0h-302v603h-650v-603h-302v1443h302v-582h650v582h302v-1443zM802 1579c-93 0 -158 68 -158 158s65 158 158 158c92 0 157 -68 157 -158s-65 -158 -157 -158z" />
    <glyph glyph-name="hdotaccent" unicode="&#x1e23;" horiz-adv-x="1307" 
d="M156 0v1524h286v-602h18c51 126 171 202 333 202c237 0 378 -149 378 -414v-710h-291v641c0 153 -71 232 -203 232c-146 0 -230 -97 -230 -240v-633h-291zM299 1660c-93 0 -158 68 -158 158s65 158 158 158c92 0 157 -68 157 -158s-65 -158 -157 -158z" />
    <glyph glyph-name="Hdotbelow" unicode="&#x1e24;" horiz-adv-x="1604" 
d="M1429 0h-302v603h-650v-603h-302v1443h302v-582h650v582h302v-1443zM802 -419c-95 0 -157 59 -157 140c0 80 62 139 157 139s157 -59 157 -139c0 -81 -62 -140 -157 -140z" />
    <glyph glyph-name="hdotbelow" unicode="&#x1e25;" horiz-adv-x="1307" 
d="M156 0v1524h286v-602h18c51 126 171 202 333 202c237 0 378 -149 378 -414v-710h-291v641c0 153 -71 232 -203 232c-146 0 -230 -97 -230 -240v-633h-291zM671 -419c-95 0 -157 59 -157 140c0 80 62 139 157 139s157 -59 157 -139c0 -81 -62 -140 -157 -140z" />
    <glyph glyph-name="Hdieresis" unicode="&#x1e26;" horiz-adv-x="1604" 
d="M1429 0h-302v603h-650v-603h-302v1443h302v-582h650v582h302v-1443zM568 1579c-90 0 -155 64 -155 152s65 151 155 151s155 -63 155 -151s-65 -152 -155 -152zM1036 1579c-89 0 -155 64 -155 152s66 151 155 151c90 0 156 -63 156 -151s-66 -152 -156 -152z" />
    <glyph glyph-name="hdieresis" unicode="&#x1e27;" horiz-adv-x="1307" 
d="M156 0v1524h286v-602h18c51 126 171 202 333 202c237 0 378 -149 378 -414v-710h-291v641c0 153 -71 232 -203 232c-146 0 -230 -97 -230 -240v-633h-291zM65 1660c-90 0 -155 64 -155 152s65 151 155 151s155 -63 155 -151s-65 -152 -155 -152zM533 1660
c-89 0 -155 64 -155 152s66 151 155 151c90 0 156 -63 156 -151s-66 -152 -156 -152z" />
    <glyph glyph-name="Hcedilla" unicode="&#x1e28;" horiz-adv-x="1604" 
d="M175 1443h302v-582h650v582h302v-1443h-302v603h-650v-597l-49 -119c126 -6 197 -69 197 -177c0 -127 -97 -204 -267 -204c-59 0 -111 7 -147 17v135c21 -8 76 -14 116 -14c74 0 111 20 111 59s-38 56 -130 56h-60v115l53 126h-126v1443z" />
    <glyph glyph-name="hcedilla" unicode="&#x1e29;" horiz-adv-x="1307" 
d="M180 -482v134c23 -8 75 -14 116 -14c74 0 112 20 112 57c0 43 -35 58 -130 58h-60v116l57 131h-119v1524h286v-602h18c51 126 171 202 333 202c237 0 378 -149 378 -414v-710h-291v641c0 153 -71 232 -203 232c-146 0 -230 -97 -230 -240v-627l-52 -124
c123 -3 199 -71 199 -177c0 -129 -94 -205 -267 -205c-59 0 -111 7 -147 18z" />
    <glyph glyph-name="Hbrevebelow" unicode="&#x1e2a;" horiz-adv-x="1604" 
d="M402 -105h210c0 -91 71 -155 190 -155s190 64 190 155h210c0 -180 -147 -319 -400 -319s-400 139 -400 319zM1429 0h-302v603h-650v-603h-302v1443h302v-582h650v582h302v-1443z" />
    <glyph glyph-name="hbrevebelow" unicode="&#x1e2b;" horiz-adv-x="1307" 
d="M271 -105h210c0 -91 71 -155 190 -155s190 64 190 155h210c0 -180 -147 -319 -400 -319s-400 139 -400 319zM156 0v1524h286v-602h18c51 126 171 202 333 202c237 0 378 -149 378 -414v-710h-291v641c0 153 -71 232 -203 232c-146 0 -230 -97 -230 -240v-633h-291z" />
    <glyph glyph-name="Itildebelow" unicode="&#x1e2c;" horiz-adv-x="652" 
d="M477 0h-302v1443h302v-1443zM485 -428c-161 0 -198 133 -297 133c-47 0 -83 -29 -85 -117h-183c0 192 103 292 247 292c167 0 208 -132 297 -132c44 0 83 24 86 113h182c0 -187 -103 -289 -247 -289z" />
    <glyph glyph-name="itildebelow" unicode="&#x1e2d;" horiz-adv-x="587" 
d="M148 0v1103h291v-1103h-291zM294 1257c-105 0 -172 61 -172 147c0 87 67 147 172 147c104 0 172 -60 172 -147c0 -86 -68 -147 -172 -147zM453 -428c-161 0 -198 133 -297 133c-47 0 -83 -29 -85 -117h-183c0 192 103 292 247 292c167 0 208 -132 297 -132
c44 0 83 24 86 113h182c0 -187 -103 -289 -247 -289z" />
    <glyph glyph-name="Idieresisacute" unicode="&#x1e2e;" horiz-adv-x="652" 
d="M477 0h-302v1443h302v-1443zM206 1937l166 242h292l-218 -242h-240zM92 1579c-90 0 -155 64 -155 152s65 151 155 151s155 -63 155 -151s-65 -152 -155 -152zM560 1579c-89 0 -155 64 -155 152s66 151 155 151c90 0 156 -63 156 -151s-66 -152 -156 -152z" />
    <glyph glyph-name="idieresisacute" unicode="&#x1e2f;" horiz-adv-x="587" 
d="M166 1640l207 319h281l-247 -319h-241zM60 1258c-90 0 -155 64 -155 152s65 151 155 151s155 -63 155 -151s-65 -152 -155 -152zM528 1258c-89 0 -155 64 -155 152s66 151 155 151c90 0 156 -63 156 -151s-66 -152 -156 -152zM148 0v1103h291v-1103h-291z" />
    <glyph glyph-name="Kacute" unicode="&#x1e30;" horiz-adv-x="1453" 
d="M561 1590l277 318h315l-314 -318h-278zM477 0h-302v1443h302v-643h18l533 643h336l-526 -633l563 -810h-362l-419 604l-143 -169v-435z" />
    <glyph glyph-name="kacute" unicode="&#x1e31;" horiz-adv-x="1232" 
d="M161 1671l277 318h315l-314 -318h-278zM465 672l369 431h331l-420 -473l449 -630h-345l-322 448l-80 -82v-366h-291v1524h291v-852h18z" />
    <glyph glyph-name="Kdotbelow" unicode="&#x1e32;" horiz-adv-x="1453" 
d="M702 -419c-95 0 -157 59 -157 140c0 80 62 139 157 139s157 -59 157 -139c0 -81 -62 -140 -157 -140zM477 0h-302v1443h302v-643h18l533 643h336l-526 -633l563 -810h-362l-419 604l-143 -169v-435z" />
    <glyph glyph-name="kdotbelow" unicode="&#x1e33;" horiz-adv-x="1232" 
d="M651 -419c-95 0 -157 59 -157 140c0 80 62 139 157 139s157 -59 157 -139c0 -81 -62 -140 -157 -140zM465 672l369 431h331l-420 -473l449 -630h-345l-322 448l-80 -82v-366h-291v1524h291v-852h18z" />
    <glyph glyph-name="Klinebelow" unicode="&#x1e34;" horiz-adv-x="1453" 
d="M477 0h-302v1443h302v-643h18l533 643h336l-526 -633l563 -810h-362l-419 604l-143 -169v-435zM1075 -401h-746v181h746v-181z" />
    <glyph glyph-name="klinebelow" unicode="&#x1e35;" horiz-adv-x="1232" 
d="M465 672l369 431h331l-420 -473l449 -630h-345l-322 448l-80 -82v-366h-291v1524h291v-852h18zM1024 -401h-746v181h746v-181z" />
    <glyph glyph-name="Ldotbelow" unicode="&#x1e36;" horiz-adv-x="1218" 
d="M642 -419c-95 0 -157 59 -157 140c0 80 62 139 157 139s157 -59 157 -139c0 -81 -62 -140 -157 -140zM1119 263v-263h-944v1443h302v-1180h642z" />
    <glyph glyph-name="ldotbelow" unicode="&#x1e37;" horiz-adv-x="603" 
d="M302 -419c-95 0 -157 59 -157 140c0 80 62 139 157 139s157 -59 157 -139c0 -81 -62 -140 -157 -140zM156 0v1524h291v-1524h-291z" />
    <glyph glyph-name="Ldotbelowmacron" unicode="&#x1e38;" horiz-adv-x="1218" 
d="M642 -419c-95 0 -157 59 -157 140c0 80 62 139 157 139s157 -59 157 -139c0 -81 -62 -140 -157 -140zM1119 263v-263h-944v1443h302v-1180h642zM699 1632h-746v181h746v-181z" />
    <glyph glyph-name="ldotbelowmacron" unicode="&#x1e39;" horiz-adv-x="603" 
d="M302 -419c-95 0 -157 59 -157 140c0 80 62 139 157 139s157 -59 157 -139c0 -81 -62 -140 -157 -140zM156 0v1524h291v-1524h-291zM675 1713h-746v181h746v-181z" />
    <glyph glyph-name="Llinebelow" unicode="&#x1e3a;" horiz-adv-x="1218" 
d="M1015 -401h-746v181h746v-181zM1119 263v-263h-944v1443h302v-1180h642z" />
    <glyph glyph-name="llinebelow" unicode="&#x1e3b;" horiz-adv-x="603" 
d="M675 -401h-746v181h746v-181zM156 0v1524h291v-1524h-291z" />
    <glyph glyph-name="Lcircumflexbelow" unicode="&#x1e3c;" horiz-adv-x="1218" 
d="M1119 263v-263h-944v1443h302v-1180h642zM790 -152l286 -280h-284l-141 153h-18l-141 -153h-284l286 280h296z" />
    <glyph glyph-name="lcircumflexbelow" unicode="&#x1e3d;" horiz-adv-x="603" 
d="M156 0v1524h291v-1524h-291zM450 -152l286 -280h-284l-141 153h-18l-141 -153h-284l286 280h296z" />
    <glyph glyph-name="Macute" unicode="&#x1e3e;" horiz-adv-x="1878" 
d="M799 1590l277 318h315l-314 -318h-278zM455 0h-280v1443h356l399 -970h18l400 970h355v-1443h-280v965h-16l-367 -882h-201l-368 882h-16v-965z" />
    <glyph glyph-name="macute" unicode="&#x1e3f;" horiz-adv-x="1902" 
d="M800 1281l247 353h309l-287 -353h-269zM146 0v1103h282v-180h18c45 126 160 204 305 204c155 0 261 -76 305 -204h18c51 123 178 204 332 204c220 0 357 -143 357 -370v-757h-291v680c0 131 -61 196 -184 196c-118 0 -194 -84 -194 -201v-675h-280v692
c0 117 -68 184 -182 184s-195 -89 -195 -212v-664h-291z" />
    <glyph glyph-name="Mdotaccent" unicode="&#x1e40;" horiz-adv-x="1878" 
d="M940 1579c-93 0 -158 68 -158 158s65 158 158 158c92 0 157 -68 157 -158s-65 -158 -157 -158zM455 0h-280v1443h356l399 -970h18l400 970h355v-1443h-280v965h-16l-367 -882h-201l-368 882h-16v-965z" />
    <glyph glyph-name="mdotaccent" unicode="&#x1e41;" horiz-adv-x="1902" 
d="M955 1278c-94 0 -161 69 -161 160c0 92 67 161 161 161s161 -69 161 -161c0 -91 -67 -160 -161 -160zM146 0v1103h282v-180h18c45 126 160 204 305 204c155 0 261 -76 305 -204h18c51 123 178 204 332 204c220 0 357 -143 357 -370v-757h-291v680c0 131 -61 196 -184 196
c-118 0 -194 -84 -194 -201v-675h-280v692c0 117 -68 184 -182 184s-195 -89 -195 -212v-664h-291z" />
    <glyph glyph-name="Mdotbelow" unicode="&#x1e42;" horiz-adv-x="1878" 
d="M940 -419c-95 0 -157 59 -157 140c0 80 62 139 157 139s157 -59 157 -139c0 -81 -62 -140 -157 -140zM455 0h-280v1443h356l399 -970h18l400 970h355v-1443h-280v965h-16l-367 -882h-201l-368 882h-16v-965z" />
    <glyph glyph-name="mdotbelow" unicode="&#x1e43;" horiz-adv-x="1902" 
d="M955 -419c-95 0 -157 59 -157 140c0 80 62 139 157 139s157 -59 157 -139c0 -81 -62 -140 -157 -140zM146 0v1103h282v-180h18c45 126 160 204 305 204c155 0 261 -76 305 -204h18c51 123 178 204 332 204c220 0 357 -143 357 -370v-757h-291v680c0 131 -61 196 -184 196
c-118 0 -194 -84 -194 -201v-675h-280v692c0 117 -68 184 -182 184s-195 -89 -195 -212v-664h-291z" />
    <glyph glyph-name="Ndotaccent" unicode="&#x1e44;" horiz-adv-x="1573" 
d="M783 1579c-93 0 -158 68 -158 158s65 158 158 158c92 0 157 -68 157 -158s-65 -158 -157 -158zM464 0h-289v1443h252l664 -899h18v899h289v-1443h-250l-666 903h-18v-903z" />
    <glyph glyph-name="ndotaccent" unicode="&#x1e45;" horiz-adv-x="1285" 
d="M655 1278c-94 0 -161 69 -161 160c0 92 67 161 161 161s161 -69 161 -161c0 -91 -67 -160 -161 -160zM146 0v1103h282v-177h18c51 124 163 201 326 201c245 0 377 -150 377 -414v-713h-291v644c0 152 -65 232 -203 232c-135 0 -218 -95 -218 -240v-636h-291z" />
    <glyph glyph-name="Ndotbelow" unicode="&#x1e46;" horiz-adv-x="1573" 
d="M783 -419c-95 0 -157 59 -157 140c0 80 62 139 157 139s157 -59 157 -139c0 -81 -62 -140 -157 -140zM464 0h-289v1443h252l664 -899h18v899h289v-1443h-250l-666 903h-18v-903z" />
    <glyph glyph-name="ndotbelow" unicode="&#x1e47;" horiz-adv-x="1285" 
d="M655 -419c-95 0 -157 59 -157 140c0 80 62 139 157 139s157 -59 157 -139c0 -81 -62 -140 -157 -140zM146 0v1103h282v-177h18c51 124 163 201 326 201c245 0 377 -150 377 -414v-713h-291v644c0 152 -65 232 -203 232c-135 0 -218 -95 -218 -240v-636h-291z" />
    <glyph glyph-name="Nlinebelow" unicode="&#x1e48;" horiz-adv-x="1573" 
d="M1156 -401h-746v181h746v-181zM464 0h-289v1443h252l664 -899h18v899h289v-1443h-250l-666 903h-18v-903z" />
    <glyph glyph-name="nlinebelow" unicode="&#x1e49;" horiz-adv-x="1285" 
d="M1028 -401h-746v181h746v-181zM146 0v1103h282v-177h18c51 124 163 201 326 201c245 0 377 -150 377 -414v-713h-291v644c0 152 -65 232 -203 232c-135 0 -218 -95 -218 -240v-636h-291z" />
    <glyph glyph-name="Ncircumflexbelow" unicode="&#x1e4a;" horiz-adv-x="1573" 
d="M464 0h-289v1443h252l664 -899h18v899h289v-1443h-250l-666 903h-18v-903zM931 -152l286 -280h-284l-141 153h-18l-141 -153h-284l286 280h296z" />
    <glyph glyph-name="ncircumflexbelow" unicode="&#x1e4b;" horiz-adv-x="1285" 
d="M146 0v1103h282v-177h18c51 124 163 201 326 201c245 0 377 -150 377 -414v-713h-291v644c0 152 -65 232 -203 232c-135 0 -218 -95 -218 -240v-636h-291zM803 -152l286 -280h-284l-141 153h-18l-141 -153h-284l286 280h296z" />
    <glyph glyph-name="Otildeacute" unicode="&#x1e4c;" horiz-adv-x="1610" 
d="M806 1480c426 0 693 -291 693 -758c0 -468 -266 -759 -693 -759c-428 0 -695 291 -695 759s271 758 695 758zM806 1215c-234 0 -386 -191 -386 -493c0 -301 149 -494 386 -494c235 0 385 193 385 494c0 302 -150 493 -385 493zM710 1937l159 242h285l-190 -242h-254z
M960 1579c-161 0 -188 121 -285 121c-50 0 -83 -35 -86 -110h-184c0 180 105 284 247 284c161 0 188 -120 285 -120c46 0 82 30 87 107h183c0 -176 -105 -282 -247 -282z" />
    </font>
</defs>
</svg>
